<svg width="75" height="90" viewBox="0 0 75 90" fill="none" xmlns="http://www.w3.org/2000/svg">
<path d="M0 81.027C0 65.075 10.3101 43.0661 37.1964 43.0661C64.0827 43.0661 74.3928 65.075 74.3928 81.027C74.3928 92.991 0 92.991 0 81.027ZM18.1284 19.068C18.1284 22.8393 19.2467 26.5259 21.342 29.6616C23.4372 32.7973 26.4152 35.2413 29.8994 36.6845C33.3836 38.1277 37.2176 38.5054 40.9164 37.7696C44.6152 37.0339 48.0128 35.2178 50.6795 32.5511C53.3462 29.8844 55.1623 26.4868 55.898 22.788C56.6338 19.0891 56.2562 15.2552 54.813 11.771C53.3697 8.28676 50.9257 5.30875 47.79 3.21353C44.6543 1.11831 40.9677 -1.97781e-06 37.1964 0C32.1393 2.65217e-06 27.2892 2.00895 23.7133 5.58489C20.1374 9.16083 18.1284 14.0109 18.1284 19.068Z" fill="black"/>
</svg>
