<svg width="78" height="90" viewBox="0 0 78 90" fill="none" xmlns="http://www.w3.org/2000/svg">
<path d="M38.9048 42.8154C17.4526 42.8154 0 58.5401 0 77.8692C0 86.8233 20.9575 90 38.9048 90C56.8521 90 77.8096 86.8233 77.8096 77.8692C77.8096 58.54 60.3569 42.8154 38.9048 42.8154ZM38.9048 86.4004C17.0977 86.4004 3.59961 81.9717 3.59961 77.8692C3.59961 60.5254 19.4375 46.415 38.9048 46.415C58.3721 46.415 74.21 60.5254 74.21 77.8691C74.21 81.9717 60.7119 86.4004 38.9048 86.4004ZM58.0874 19.1826C58.0874 15.3887 56.9624 11.6799 54.8546 8.52534C52.7467 5.37078 49.7508 2.91209 46.2457 1.4602C42.7405 0.0083127 38.8835 -0.371568 35.1625 0.368596C31.4414 1.10876 28.0234 2.93573 25.3406 5.61846C22.6579 8.3012 20.8309 11.7192 20.0908 15.4403C19.3506 19.1613 19.7305 23.0183 21.1824 26.5235C22.6342 30.0287 25.0929 33.0246 28.2475 35.1324C31.4021 37.2402 35.1108 38.3652 38.9048 38.3652C43.9906 38.3595 48.8664 36.3367 52.4626 32.7405C56.0588 29.1443 58.0817 24.2684 58.0874 19.1826ZM23.3218 19.1826C23.3218 16.1006 24.2357 13.0878 25.948 10.5252C27.6603 7.96258 30.094 5.96527 32.9414 4.78583C35.7888 3.60639 38.9221 3.2978 41.9449 3.89907C44.9677 4.50035 47.7443 5.98448 49.9236 8.1638C52.1029 10.3431 53.5871 13.1197 54.1884 16.1426C54.7896 19.1654 54.481 22.2986 53.3016 25.146C52.1222 27.9934 50.1248 30.4272 47.5622 32.1394C44.9996 33.8517 41.9868 34.7656 38.9048 34.7656C34.7733 34.761 30.8125 33.1177 27.8911 30.1963C24.9697 27.275 23.3264 23.3141 23.3218 19.1826Z" fill="black"/>
</svg>
