<svg width="67" height="67" viewBox="0 0 67 67" fill="none" xmlns="http://www.w3.org/2000/svg">
<path d="M66.923 7.6183C66.769 7.2443 66.403 7.0013 65.999 7.0013H60.1C60.083 6.9823 60.078 6.9583 60.06 6.9403C60.042 6.9223 60.018 6.9173 59.999 6.9003V1.0013C59.999 0.597298 59.755 0.231298 59.382 0.077298C59.007 -0.079702 58.577 0.00729898 58.292 0.294299L51.292 7.2943C51.104 7.4823 50.999 7.7353 50.999 8.0013V13.8803L48.416 16.4633C43.276 11.8263 36.468 9.0013 29 9.0013C12.983 9.0013 0 21.9833 0 38.0013C0 54.0223 12.983 67.0013 29 67.0003C45.017 67.0013 57.999 54.0213 57.999 38.0013C57.999 31.4353 55.815 25.3813 52.137 20.5213L48.558 24.0993C51.352 28.0233 53 32.8183 53 38.0013C53 51.2583 42.255 62.0013 29 62.0013C15.744 62.0013 5 51.2583 5 38.0013C5 24.7453 15.744 14.0013 29 14.0013C35.087 14.0013 40.642 16.2713 44.872 20.0073L41.323 23.5563C38.005 20.7223 33.706 19.0013 28.999 19.0013C18.506 19.0013 10 27.5073 9.999 38.0013C10 48.4973 18.506 57.0013 29 57.0013C39.493 57.0013 47.999 48.4973 47.999 38.0013C47.999 34.2023 46.873 30.6733 44.953 27.7043L41.316 31.3413C42.389 33.3213 42.999 35.5903 42.999 38.0013C42.999 45.7343 36.732 52.0013 29 52.0013C21.268 52.0013 15 45.7343 15 38.0013C15 30.2683 21.268 24.0013 29 24.0013C32.325 24.0013 35.376 25.1653 37.776 27.1023L34.208 30.6713C32.738 29.6233 30.943 29.0013 29 29.0013C24.029 29.0013 20 33.0313 19.999 38.0013C20 42.9713 24.029 47.0013 29 47.0013C33.97 47.0013 37.999 42.9713 37.999 38.0013C37.999 36.9973 37.827 36.0343 37.524 35.1333L31.831 40.8253C31.107 41.5523 30.105 42.0013 29 42.0013C26.791 42.0013 24.999 40.2103 25 38.0003C25 35.7923 26.791 34.0003 29 34.0013C29.554 34.0013 30.081 34.1143 30.562 34.3173L27.939 36.9403C27.353 37.5263 27.353 38.4753 27.939 39.0613C28.232 39.3543 28.616 39.5003 29 39.5003C29.384 39.5003 29.768 39.3543 30.061 39.0613L53.122 16.0003H58.999C59.265 16.0003 59.519 15.8953 59.706 15.7073L66.706 8.7073C66.992 8.4223 67.077 7.9923 66.923 7.6183Z" fill="black"/>
</svg>
