<svg width="18" height="18" viewBox="0 0 18 18" fill="none" xmlns="http://www.w3.org/2000/svg">
<path d="M16.615 7.57695C14.551 7.57695 12.487 7.57695 10.4231 7.57695C10.4231 5.51298 10.4231 3.449 10.4231 1.38503C10.4231 -0.461678 7.57695 -0.461678 7.57695 1.38503C7.57695 3.449 7.57695 5.51298 7.57695 7.57695C5.51298 7.57695 3.449 7.57695 1.38503 7.57695C-0.461678 7.57695 -0.461678 10.4231 1.38503 10.4231C3.449 10.4231 5.51298 10.4231 7.57695 10.4231C7.57695 12.487 7.57695 14.551 7.57695 16.615C7.57695 18.4617 10.4231 18.4617 10.4231 16.615C10.4231 14.551 10.4231 12.487 10.4231 10.4231C12.487 10.4231 14.551 10.4231 16.615 10.4231C18.44 10.4448 18.44 7.57695 16.615 7.57695Z" fill="black"/>
</svg>
