<svg width="426" height="500" viewBox="0 0 426 500" fill="none" xmlns="http://www.w3.org/2000/svg">
<path d="M222.067 76.4806L234.657 102.551L263.317 106.461C269.017 107.231 271.117 114.261 267.147 118.081L246.227 138.121L251.357 166.611C252.347 172.191 246.427 176.451 241.467 173.781L215.957 160.091L190.457 173.791C185.557 176.431 179.317 172.341 180.617 166.191L185.687 138.131L164.767 118.091C160.687 114.181 162.897 107.181 168.677 106.441L197.217 102.561L209.807 76.4806C212.317 71.3506 219.627 71.4006 222.067 76.4806ZM223.997 111.741L215.947 95.0406L207.897 111.741C206.937 113.721 205.037 115.201 202.677 115.511L184.337 118.001L197.747 130.841H197.717C199.307 132.371 200.127 134.611 199.697 136.931L196.407 155.161L212.677 146.431C214.637 145.351 217.067 145.271 219.167 146.401L235.497 155.161L232.267 137.271C231.727 135.001 232.377 132.541 234.167 130.841L247.547 118.001L229.407 115.531C227.137 115.281 225.067 113.921 223.997 111.741ZM215.947 39.0906C262.637 39.0906 300.477 76.9306 300.477 123.621C300.477 170.311 262.637 208.151 215.947 208.151C169.287 208.151 131.417 170.311 131.417 123.621C131.417 76.9306 169.287 39.0906 215.947 39.0906ZM266.087 73.4706C238.397 45.7806 193.487 45.7806 165.827 73.4706C138.137 101.161 138.137 146.071 165.827 173.761C193.497 201.451 238.397 201.451 266.087 173.761C293.787 146.071 293.787 101.171 266.087 73.4706ZM270.367 13.8306L278.017 27.2906C280.087 30.9706 283.147 33.1906 287.347 33.9806L302.537 36.9006C316.537 39.5906 326.117 52.5806 324.507 66.7506L322.777 82.1406C322.297 86.3106 323.517 90.0506 326.377 93.0806L336.947 104.391C346.697 114.821 346.807 130.891 337.177 141.441L326.717 152.861C323.857 156.011 322.717 159.581 323.257 163.831L325.187 179.191C326.717 191.411 319.827 203.091 308.607 207.731L338.657 269.291C339.507 271.051 339.617 273.121 338.767 275.021C337.267 278.451 333.237 280.011 329.807 278.511L291.597 261.671L279.007 295.711C276.937 301.661 269.027 301.891 266.417 296.561L241.867 246.251C240.027 245.851 238.237 245.261 236.477 244.461L222.357 238.031C218.477 236.271 214.707 236.271 210.847 238.091L196.817 244.671C194.497 245.751 192.107 246.481 189.707 246.881L165.447 296.571C162.867 301.901 154.957 301.671 152.887 295.721L140.297 261.681L102.087 278.521C98.6272 280.021 94.6272 278.461 93.0972 275.031C92.2772 273.131 92.3872 271.061 93.2072 269.301L122.997 208.301C112.457 203.421 106.017 192.281 107.347 180.491L109.107 165.101C109.557 160.931 108.337 157.191 105.507 154.161L94.9072 142.851C85.1572 132.421 85.0672 116.351 94.7072 105.801L105.167 94.3806C108.027 91.2306 109.137 87.6606 108.627 83.4106L106.697 68.0506C104.937 53.9306 114.327 40.8106 128.327 37.9506L143.517 34.8606C147.627 34.0106 150.717 31.7406 152.727 28.0606L160.207 14.5106C167.127 1.98058 182.377 -3.08942 195.387 2.80058L209.507 9.23057C213.387 10.9906 217.157 10.9906 221.017 9.17058L235.047 2.59057C247.977 -3.45943 263.337 1.41057 270.367 13.8306ZM295.057 211.041C288.397 212.401 282.757 212.631 279.127 219.201L271.647 232.781C268.247 238.931 262.807 243.301 256.627 245.421L271.707 276.291L281.347 250.211C282.677 246.521 286.877 244.741 290.477 246.331L318.287 258.581L295.057 211.041ZM175.327 245.361C169.687 243.151 164.757 239.071 161.547 233.401L153.897 219.941C151.797 216.251 148.737 214.041 144.567 213.251L136.517 211.691L113.617 258.571L141.457 246.321C145.057 244.761 149.227 246.521 150.587 250.201L160.227 276.281L175.327 245.361ZM266.207 34.0106L258.557 20.5206C255.017 14.2606 247.327 11.8206 240.837 14.8806L226.807 21.4606C219.377 24.9206 211.387 24.9806 203.957 21.6006L189.837 15.1906C183.317 12.2106 175.637 14.7406 172.177 21.0006L164.697 34.5806C160.727 41.7806 154.327 46.4906 146.247 48.1306L131.077 51.2506C124.047 52.6706 119.337 59.1906 120.247 66.3906L122.147 81.7506C123.167 89.8306 120.697 97.4806 115.207 103.521L104.747 114.941C99.8972 120.241 99.9272 128.321 104.827 133.561L115.427 144.871C121.067 150.911 123.567 158.391 122.627 166.561L120.897 181.951C120.107 189.091 124.837 195.611 131.897 196.971L147.117 199.891C155.137 201.421 161.657 206.101 165.717 213.211L173.347 226.701C176.947 233.021 184.687 235.371 191.087 232.341L205.117 225.761C212.517 222.301 220.537 222.251 227.967 225.621L242.087 232.031C248.607 235.011 256.287 232.481 259.747 226.221L267.227 212.641C271.197 205.441 277.607 200.731 285.657 199.091L300.847 195.971C307.877 194.551 312.587 188.031 311.677 180.831L309.747 165.471C308.757 157.391 311.197 149.741 316.717 143.701L327.177 132.281C332.027 126.981 331.997 118.901 327.067 113.661L316.497 102.351C310.857 96.3106 308.357 88.8606 309.267 80.6606L311.027 65.2706C311.817 58.1306 307.087 51.6106 299.997 50.2706L284.777 47.3206C276.747 45.8106 270.227 41.1306 266.207 34.0106ZM11.0872 359.431L51.4572 352.511C58.1772 351.381 65.3172 353.131 69.0572 359.141C81.1572 351.801 97.3172 339.351 108.287 330.201C144.517 299.951 157.217 301.601 200.837 307.271C210.047 308.461 220.737 309.851 233.747 311.151C270.257 314.811 263.627 356.961 228.307 359.621L236.637 361.831C241.707 359.901 246.557 357.861 250.927 355.741C255.267 353.611 259.147 351.401 262.327 349.221C262.587 348.991 262.897 348.791 263.207 348.601C274.487 341.941 284.037 337.491 294.217 335.561C303.997 333.691 313.977 334.261 326.107 337.571C328.937 336.751 331.807 336.121 334.757 335.701C345.357 334.201 356.387 335.531 370.277 340.121L378.357 336.801C394.547 330.201 414.527 332.071 422.437 343.831C429.237 353.921 423.457 365.121 411.157 372.431C406.817 375.011 397.407 380.791 386.527 387.511C345.597 412.681 281.787 451.941 258.517 457.101C258.117 457.191 257.747 457.241 257.357 457.271C242.357 457.921 198.337 453.581 166.027 450.411C147.657 448.621 133.147 447.181 130.707 447.291C125.377 447.491 113.757 451.201 107.267 453.381C108.117 459.671 104.237 464.661 99.8972 468.661L69.1972 496.921C61.9172 503.641 50.5972 498.341 47.0572 489.801L1.21722 380.011C-2.24278 371.761 1.86722 360.991 11.0872 359.431ZM74.3772 371.791L102.527 440.641C110.747 437.861 122.877 434.041 130.137 433.721C133.507 433.581 148.447 435.051 167.297 436.921C198.787 440.011 241.507 444.201 256.137 443.721C277.567 438.531 339.507 400.441 379.387 375.891C388.287 370.421 395.997 365.691 404.217 360.781C411.387 356.501 414.587 352.251 407.847 348.761C402.317 345.901 393.247 345.421 383.437 349.411L306.337 380.871C298.767 383.901 265.657 381.691 257.497 380.731C251.687 380.021 252.597 380.081 248.397 379.001L170.477 358.281C162.767 356.271 164.357 344.731 172.377 344.931L224.167 346.151C244.267 346.631 254.047 326.821 232.417 324.631C219.607 323.351 208.607 321.941 199.137 320.721C160.047 315.651 148.677 314.171 117.017 340.621C105.307 350.391 87.4172 364.141 74.3772 371.791ZM13.7772 372.751V374.791L59.5572 484.611L60.8872 486.111L90.6572 458.671C91.5672 457.851 93.9172 455.411 93.7172 454.961L57.5772 366.521C57.2072 365.611 54.8572 365.751 53.7472 365.921L13.7772 372.751ZM348.487 349.001C333.547 347.471 322.177 352.491 308.037 360.821L307.867 360.931C302.087 364.621 299.447 366.201 293.977 368.841C298.627 368.781 299.307 368.671 301.237 368.301L348.487 349.001ZM300.047 349.851L302.737 348.181C291.397 348.801 282.017 353.401 270.107 360.311H270.077C266.677 362.691 262.707 364.991 258.367 367.171C260.347 367.451 259.957 367.371 262.057 366.721C272.067 363.631 282.717 359.491 291.987 354.641L300.047 349.851Z" fill="black"/>
</svg>
