<svg width="97" height="97" viewBox="0 0 97 97" fill="none" xmlns="http://www.w3.org/2000/svg">
<path d="M26.0231 12.4454C26.0504 12.4181 26.0778 12.3946 26.109 12.3673C26.1208 12.3595 26.1325 12.3516 26.1403 12.3438C26.1676 12.3204 26.195 12.3009 26.2262 12.2813C26.234 12.2735 26.2458 12.2696 26.2536 12.2657C26.2848 12.2462 26.32 12.2266 26.3512 12.2071C26.359 12.2032 26.3629 12.2032 26.3708 12.1993C26.4098 12.1798 26.445 12.1602 26.484 12.1446C26.4879 12.1446 26.4918 12.1407 26.4958 12.1407C26.5387 12.1251 26.5778 12.1095 26.6208 12.0938C26.6247 12.0938 26.6286 12.0899 26.6325 12.0899C26.6754 12.0782 26.7184 12.0665 26.7614 12.0587C26.7731 12.0548 26.7848 12.0548 26.7965 12.0548C26.8317 12.047 26.8668 12.0431 26.9059 12.0391C26.9567 12.0352 27.0075 12.0313 27.0544 12.0313H64.6444C68.7889 12.0313 72.1639 15.4024 72.1639 19.5508L72.1678 48.1128H76.6795V12.0268C76.6795 9.53854 74.6561 7.51514 72.1678 7.51514H22.5508C20.0625 7.51514 18.0391 9.53854 18.0391 12.0268V20.4252L25.9961 12.4682C26.0078 12.4604 26.0153 12.4532 26.0231 12.4454Z" fill="black"/>
<path d="M7.51953 58.6367H27.0665V64.6523H7.51953V58.6367Z" fill="black"/>
<path d="M36.0859 22.5547H61.6449V25.5625H36.0859V22.5547Z" fill="black"/>
<path d="M25.5584 17.1606L12.6484 30.0706H25.5584V17.1606Z" fill="black"/>
<path d="M26.8123 44.5904C27.5272 46.6998 29.4412 48.1138 31.574 48.1138H69.164V19.5478C69.164 17.0595 67.1406 15.0361 64.6523 15.0361H28.5663V31.5751C28.5663 32.4072 27.8945 33.079 27.0624 33.079H10.5234V39.0946H19.1406C22.6328 39.0946 25.699 41.317 26.8123 44.5904ZM33.0779 21.0514C33.0779 20.2194 33.7498 19.5475 34.5818 19.5475H63.1478C63.9799 19.5475 64.6517 20.2194 64.6517 21.0514V27.067C64.6517 27.8991 63.9799 28.5709 63.1478 28.5709L34.5818 28.567C33.7498 28.567 33.0779 27.8951 33.0779 27.0631V21.0514ZM34.5818 33.0784H63.1478C63.9799 33.0784 64.6517 33.7503 64.6517 34.5823C64.6517 35.4144 63.9799 36.0862 63.1478 36.0862H34.5818C33.7498 36.0862 33.0779 35.4144 33.0779 34.5823C33.0779 33.7503 33.7498 33.0784 34.5818 33.0784ZM34.5818 40.594H63.1478C63.9799 40.594 64.6517 41.2659 64.6517 42.0979C64.6517 42.93 63.9799 43.6018 63.1478 43.6018H34.5818C33.7498 43.6018 33.0779 42.93 33.0779 42.0979C33.0779 41.2698 33.7498 40.594 34.5818 40.594Z" fill="black"/>
<path d="M79.6873 12.0275V79.6875C82.1756 79.6875 84.199 77.6641 84.199 75.1758V4.5078C84.199 2.0234 82.1756 0 79.6873 0H30.0703C27.582 0 25.5586 2.0234 25.5586 4.5117H72.1676C76.316 4.5117 79.6873 7.883 79.6873 12.0275Z" fill="black"/>
<path d="M76.6793 87.9575V51.1215H31.5743C28.1485 51.1215 25.0899 48.8871 23.9649 45.5551C23.2813 43.5395 21.379 42.0981 19.1407 42.0981H4.5117C2.0234 42.0981 0 44.1215 0 46.6098V91.7148C0 94.2031 2.0234 96.2265 4.5117 96.2265H80.3007C78.078 94.164 76.6793 91.2231 76.6793 87.9575ZM30.0703 66.1565C30.0703 66.9886 29.3984 67.6604 28.5664 67.6604H6.0154C5.18337 67.6604 4.5115 66.9886 4.5115 66.1565V57.137C4.5115 56.305 5.18337 55.6331 6.0154 55.6331H28.5704C29.4024 55.6331 30.0743 56.305 30.0743 57.137L30.0703 66.1565Z" fill="black"/>
<path d="M87.207 36.0864V75.1804C87.207 79.3249 83.8359 82.6999 79.6875 82.6999V87.9616C79.6875 92.5202 83.3984 96.2311 87.957 96.2311C92.5273 96.2272 96.2265 92.528 96.2265 87.9577V36.0867L87.207 36.0864Z" fill="black"/>
</svg>
