<svg width="1344" height="1197" viewBox="0 0 1344 1197" fill="none" xmlns="http://www.w3.org/2000/svg">
<path d="M1167.52 171.712C1121.7 121.728 1038.96 118.649 983.798 173.805L443.798 713.805C429.834 727.769 429.834 745.56 443.798 759.524C457.768 773.493 475.553 773.493 489.517 759.524L936.184 312.857C962.225 286.821 1004.43 286.821 1030.47 312.857C1056.5 338.893 1056.5 381.103 1030.47 407.139L583.804 853.805C517.768 919.836 415.55 919.836 349.524 853.805C283.493 787.769 283.493 685.565 349.524 619.525L889.524 79.5254C994.029 -24.9746 1163.86 -28.3759 1264.82 80.5462C1368.31 185.109 1371.35 354.106 1262.85 454.76L630.467 1087.15C484.427 1233.17 255.547 1233.17 109.52 1087.15C-36.5067 941.106 -36.5067 712.24 109.52 566.2L649.52 26.1995C675.561 0.163536 717.765 0.163536 743.807 26.1995C769.837 52.2355 769.837 94.4449 743.807 120.481L203.807 660.481C109.843 754.445 109.843 898.908 203.807 992.868C297.776 1086.84 442.233 1086.84 536.193 992.868L1169.53 359.534C1170.21 358.852 1170.91 358.185 1171.62 357.529C1221.6 311.712 1224.69 228.972 1169.53 173.809C1168.84 173.127 1168.18 172.429 1167.53 171.715L1167.52 171.712Z" fill="black"/>
</svg>
