<svg width="14" height="18" viewBox="0 0 14 18" fill="none" xmlns="http://www.w3.org/2000/svg">
<path fill-rule="evenodd" clip-rule="evenodd" d="M5.6978 0.000333762L5.6856 0.000213838C5.6372 -0.000436162 5.5133 -0.00208601 5.3954 0.038594C5.2973 0.072424 5.208 0.127634 5.1339 0.200234C5.0447 0.287514 4.99082 0.399044 4.96977 0.442594L4.9644 0.453604L4.44105 1.50024H1.28405C1.15786 1.50023 1.03497 1.50021 0.930891 1.50872C0.816591 1.51805 0.681721 1.54009 0.546011 1.60924C0.357851 1.70511 0.204871 1.85809 0.109001 2.04625C0.0398509 2.18196 0.0178108 2.31683 0.00848079 2.43113C-2.92072e-05 2.53519 -9.27952e-06 2.65807 7.2048e-07 2.78424V16.7162C-9.27952e-06 16.8423 -2.92072e-05 16.9653 0.00848079 17.0693C0.0178108 17.1836 0.0398509 17.3185 0.109001 17.4542C0.204871 17.6424 0.357851 17.7953 0.546011 17.8912C0.681721 17.9604 0.816591 17.9824 0.930891 17.9917C1.03495 18.0002 1.15781 18.0002 1.28398 18.0002H12.7159C12.8421 18.0002 12.9651 18.0002 13.0691 17.9917C13.1834 17.9824 13.3183 17.9604 13.454 17.8912C13.6422 17.7953 13.7951 17.6424 13.891 17.4542C13.9598 17.3191 13.9821 17.1853 13.9915 17.0711C14 16.9677 14 16.8459 14 16.7215V2.78205C14 2.65661 14 2.53418 13.9915 2.43038C13.9821 2.31614 13.96 2.18169 13.891 2.04625C13.7951 1.85809 13.6422 1.70511 13.454 1.60924C13.3183 1.54009 13.1834 1.51805 13.0691 1.50872C12.965 1.50021 12.8421 1.50023 12.716 1.50024H9.5591L9.0357 0.453604L9.0303 0.442594C9.0093 0.399054 8.9554 0.287514 8.8662 0.200234C8.7921 0.127634 8.7028 0.072424 8.6047 0.038594C8.4868 -0.00208601 8.3629 -0.000436162 8.3145 0.000213838L8.3023 0.000333762H5.6978ZM9.9983 2.50024C10.0003 2.53143 10.0001 2.55774 10.0001 2.57084V2.57579V2.69037C10.0001 2.73706 10.0001 2.79797 9.9957 2.8524C9.9904 2.91667 9.9766 3.0145 9.9238 3.11812C9.8566 3.24983 9.7496 3.35692 9.6178 3.42403C9.5142 3.47683 9.4164 3.49069 9.3521 3.49594C9.2977 3.50039 9.2368 3.50036 9.1901 3.50033H4.81C4.76332 3.50036 4.70241 3.50039 4.64798 3.49594C4.58371 3.49069 4.48589 3.47683 4.38226 3.42403C4.25055 3.35692 4.14346 3.24983 4.07635 3.11812C4.02355 3.0145 4.00969 2.91667 4.00444 2.8524C3.99999 2.79797 4.00002 2.73707 4.00005 2.69038V2.57579L4.00003 2.57084C3.99996 2.55774 3.99982 2.53143 4.00183 2.50024H1.3C1.15174 2.50024 1.07061 2.50063 1.01232 2.50539L1.00573 2.50597L1.00516 2.51256C1.00039 2.57085 1 2.65198 1 2.80024V16.7002C1 16.8485 1.00039 16.9296 1.00516 16.9879L1.00573 16.9945L1.01232 16.9951C1.07061 16.9998 1.15174 17.0002 1.3 17.0002H12.7C12.8483 17.0002 12.9294 16.9998 12.9877 16.9951L12.9944 16.9945L12.9949 16.9888C12.9996 16.9316 13 16.8521 13 16.7056V2.79799C13 2.65045 12.9996 2.56999 12.9949 2.51218L12.9943 2.50597L12.9877 2.50539C12.9294 2.50063 12.8483 2.50024 12.7 2.50024H9.9983ZM5.059 2.50033L5.8091 1.00033H8.191L8.9411 2.50033H5.059Z" fill="black"/>
<path fill-rule="evenodd" clip-rule="evenodd" d="M4.14645 13.6464C4.34171 13.4512 4.65829 13.4512 4.85355 13.6464C5.0488 13.8417 5.0488 14.1583 4.85355 14.3536L3.86487 15.3422L3.85663 15.3504C3.85247 15.3544 3.84286 15.3636 3.83016 15.3744C3.80524 15.3956 3.74652 15.442 3.6576 15.4709C3.55517 15.5042 3.44483 15.5042 3.3424 15.4709C3.25348 15.442 3.19476 15.3956 3.16984 15.3744C3.15714 15.3636 3.14753 15.3544 3.14337 15.3504L3.13513 15.3422L2.64645 14.8536C2.45118 14.6583 2.45118 14.3417 2.64645 14.1464C2.84171 13.9512 3.15829 13.9512 3.35355 14.1464L3.5 14.2929L4.14645 13.6464Z" fill="black"/>
<path d="M4.14645 10.6464C4.34171 10.4512 4.65829 10.4512 4.85355 10.6464C5.0488 10.8417 5.0488 11.1583 4.85355 11.3536L3.86487 12.3422L3.85663 12.3504C3.85247 12.3544 3.84286 12.3636 3.83016 12.3744C3.80524 12.3956 3.74652 12.442 3.6576 12.4709C3.55517 12.5042 3.44483 12.5042 3.3424 12.4709C3.25348 12.442 3.19476 12.3956 3.16984 12.3744C3.15714 12.3636 3.14753 12.3544 3.14337 12.3504L3.13513 12.3422L2.64645 11.8536C2.45118 11.6583 2.45118 11.3417 2.64645 11.1464C2.84171 10.9512 3.15829 10.9512 3.35355 11.1464L3.5 11.2929L4.14645 10.6464Z" fill="black"/>
<path d="M4 8.99903C5.0507 8.99903 5.9122 8.18873 5.9937 7.15893C5.9978 7.10743 5.9998 7.08173 5.9896 7.05863C5.9811 7.03923 5.9642 7.02103 5.9456 7.01103C5.9234 6.99899 5.8956 6.99899 5.84 6.99899H4.16C4.10399 6.99899 4.07599 6.99898 4.0546 6.98808C4.03578 6.97849 4.02049 6.96321 4.0109 6.94439C4 6.923 4 6.895 4 6.83899V5.15899C4 5.10339 4 5.0756 3.988 5.05336C3.97797 5.03478 3.95972 5.01792 3.94041 5.00939C3.9173 4.99918 3.89154 5.00121 3.84002 5.00529C2.81025 5.08678 2 5.94827 2 6.99899C2 8.10353 2.89543 8.99903 4 8.99903Z" fill="black"/>
<path fill-rule="evenodd" clip-rule="evenodd" d="M6 11.5C6 11.2239 6.2239 11 6.5 11H11.5C11.7761 11 12 11.2239 12 11.5C12 11.7761 11.7761 12 11.5 12H6.5C6.2239 12 6 11.7761 6 11.5Z" fill="black"/>
<path fill-rule="evenodd" clip-rule="evenodd" d="M8 5.5C8 5.22386 8.2239 5 8.5 5H11.5C11.7761 5 12 5.22386 12 5.5C12 5.77614 11.7761 6 11.5 6H8.5C8.2239 6 8 5.77614 8 5.5Z" fill="black"/>
<path fill-rule="evenodd" clip-rule="evenodd" d="M6 14.5C6 14.2239 6.2239 14 6.5 14H11.5C11.7761 14 12 14.2239 12 14.5C12 14.7761 11.7761 15 11.5 15H6.5C6.2239 15 6 14.7761 6 14.5Z" fill="black"/>
<path fill-rule="evenodd" clip-rule="evenodd" d="M8 8.5C8 8.2239 8.2239 8 8.5 8H11.5C11.7761 8 12 8.2239 12 8.5C12 8.7761 11.7761 9 11.5 9H8.5C8.2239 9 8 8.7761 8 8.5Z" fill="black"/>
</svg>
