<svg width="65" height="70" viewBox="0 0 65 70" fill="none" xmlns="http://www.w3.org/2000/svg">
<path d="M62.9 11.4C61.9 10.4 60.8 9.89999 59.4 9.89999H54.5V6.20001C54.5 4.50001 53.9 3.1 52.7 1.8C51.5 0.600003 50 0 48.3 0H45.8C44.1 0 42.7 0.600003 41.4 1.8C40.2 3 39.6 4.50001 39.6 6.20001V9.89999H24.8V6.20001C24.8 4.50001 24.2 3.1 23 1.8C21.8 0.600003 20.3 0 18.6 0H16.1C14.4 0 13 0.600003 11.7 1.8C10.5 3 9.90002 4.50001 9.90002 6.20001V9.89999H5C3.7 9.89999 2.5 10.4 1.5 11.4C0.5 12.4 0 13.5 0 14.9V64.3C0 65.6 0.5 66.8 1.5 67.8C2.5 68.8 3.6 69.3 5 69.3H59.3C60.6 69.3 61.8 68.8 62.8 67.8C63.8 66.8 64.3 65.7 64.3 64.3V14.9C64.4 13.5 63.9 12.4 62.9 11.4ZM44.6 7.5H49.5V15.2H44.6V7.5ZM15 7.5H19.9V15.2H15V7.5ZM59.4 64.2H5.10001V24.7H59.4V64.2Z" fill="black"/>
<path d="M28.9 57C29.2 57.2 29.5 57.3 29.8 57.3C30.1 57.3 30.4 57.2 30.7 57L50.4 37.3C50.6 37 50.7 36.7 50.7 36.4C50.7 36.1 50.6 35.8 50.4 35.6L48.6 33.8C48.4 33.6 48.1 33.5 47.8 33.5C47.5 33.5 47.2 33.6 46.9 33.8L29.8 50.9L21.3 42.4C21 42.2 20.7 42.1 20.4 42.1C20.1 42.1 19.8 42.2 19.6 42.4L17.8 44.2C17.6 44.4 17.5 44.7 17.5 45C17.5 45.3 17.6 45.6 17.8 45.9L28.9 57Z" fill="black"/>
</svg>
