<svg width="36" height="63" viewBox="0 0 36 63" fill="none" xmlns="http://www.w3.org/2000/svg">
<path d="M34.0231 1.17315C33.6517 0.801241 33.2105 0.506206 32.7249 0.304909C32.2393 0.103612 31.7188 0 31.1931 0C30.6675 0 30.147 0.103612 29.6614 0.304909C29.1758 0.506206 28.7346 0.801241 28.3631 1.17315L1.17315 28.3431C0.801243 28.7146 0.506206 29.1558 0.304909 29.6414C0.103612 30.127 0 30.6475 0 31.1731C0 31.6988 0.103612 32.2193 0.304909 32.7049C0.506206 33.1905 0.801243 33.6317 1.17315 34.0032L28.3631 61.1731C28.7312 61.5599 29.173 61.869 29.6624 62.0823C30.1519 62.2956 30.6791 62.4088 31.2129 62.4152C31.7468 62.4215 32.2765 62.3209 32.7709 62.1194C33.2653 61.9178 33.7143 61.6192 34.0915 61.2414C34.4687 60.8635 34.7664 60.414 34.9671 59.9192C35.1679 59.4245 35.2675 58.8946 35.2602 58.3607C35.2529 57.8269 35.1388 57.2999 34.9246 56.8108C34.7105 56.3218 34.4005 55.8805 34.0131 55.5131L9.65315 31.1731L34.0131 6.83315C34.3857 6.46231 34.6815 6.02168 34.8837 5.53644C35.0858 5.05121 35.1904 4.53088 35.1913 4.00522C35.1922 3.47956 35.0895 2.95887 34.8891 2.47292C34.6887 1.98697 34.3944 1.5453 34.0231 1.17315Z" fill="black"/>
</svg>
