<svg width="80" height="77" viewBox="0 0 80 77" fill="none" xmlns="http://www.w3.org/2000/svg">
<path d="M72.9111 74.626H71.1113C70.5591 74.626 70.1113 75.0737 70.1113 75.626C70.1113 76.1782 70.5591 76.626 71.1113 76.626H72.9111C73.4634 76.626 73.9111 76.1782 73.9111 75.626C73.9111 75.0737 73.4634 74.626 72.9111 74.626Z" fill="black"/>
<path d="M75.1343 38.9117H66.8832V32.4263H7.02802V42.2911L7.03271 42.2902H42.3848C42.937 42.2902 43.3848 42.7379 43.3848 43.2902C43.3848 43.8424 42.937 44.2902 42.3848 44.2902H7.03271L7.02802 44.2892V45.7034C7.02802 59.5628 16.4662 71.2269 29.2604 74.6261H1C0.447754 74.6261 0 75.0739 0 75.6261C0 76.1783 0.447754 76.6261 1 76.6261H63.9834C64.5356 76.6261 64.9834 76.1783 64.9834 75.6261C64.9834 75.0739 64.5356 74.6261 63.9834 74.6261H44.6339C51.006 72.9377 56.5389 69.2001 60.4917 64.1486C65.6017 63.9221 70.3778 61.8499 74.0156 58.212C77.8745 54.3688 80 49.2423 80 43.7775C80 41.0944 77.8174 38.9117 75.1343 38.9117ZM49.8657 44.2902H48.5386C47.9863 44.2902 47.5386 43.8424 47.5386 43.2902C47.5386 42.7379 47.9863 42.2902 48.5386 42.2902H49.8657C50.418 42.2902 50.8657 42.7379 50.8657 43.2902C50.8657 43.8424 50.418 44.2902 49.8657 44.2902ZM72.603 56.7965C69.7049 59.6942 66.0073 61.4902 62.0101 62.0164C65.0923 57.3195 66.8832 51.7268 66.8832 45.7034V40.9117H75.1343C76.7144 40.9117 78 42.1974 78 43.7775C78 48.7067 76.084 53.3297 72.603 56.7965Z" fill="black"/>
<path d="M56.3286 2H57.769C58.3213 2 58.769 1.55225 58.769 1C58.769 0.447754 58.3213 0 57.769 0H56.3286C55.7764 0 55.3286 0.447754 55.3286 1C55.3286 1.55225 55.7764 2 56.3286 2Z" fill="black"/>
<path d="M17.3053 26.9707C17.3409 26.9741 17.3756 26.976 17.4102 26.976C17.9161 26.976 18.3502 26.5937 18.4039 26.08C18.4517 25.6215 19.6905 14.8501 29.5352 14.8501C33.9815 14.8501 38.0367 12.7793 41.2623 8.86178C43.7633 5.82467 47.193 3.67672 51.1807 2.64938C51.7154 2.51168 52.0372 1.96676 51.8995 1.4316C51.7618 0.896447 51.2188 0.574182 50.6817 0.712853C46.2813 1.84615 42.4903 4.22408 39.7183 7.59029C36.8448 11.0805 33.4185 12.8501 29.5352 12.8501C17.9097 12.8501 16.4283 25.7417 16.4146 25.872C16.3575 26.4214 16.7559 26.913 17.3053 26.9707Z" fill="black"/>
<path d="M29.7711 25.7798C29.6627 26.3213 30.0138 26.8481 30.5553 26.9565C30.6217 26.9697 30.6876 26.9761 30.7526 26.9761C31.2194 26.9761 31.6368 26.6475 31.732 26.1724C31.7433 26.1167 32.9532 20.6416 42.8776 20.6416C47.3238 20.6416 51.379 18.5708 54.6046 14.6533C58.1949 10.2925 63.6866 7.7915 69.671 7.7915H71.111C71.6632 7.7915 72.111 7.34375 72.111 6.7915C72.111 6.23926 71.6632 5.7915 71.111 5.7915H69.671C63.0865 5.7915 57.0323 8.55811 53.0607 13.3818C50.1871 16.8721 46.7609 18.6416 42.8776 18.6416C31.3317 18.6416 29.8292 25.4883 29.7711 25.7798Z" fill="black"/>
<path d="M61.4511 18.8953C58.4286 25.4778 48.6952 24.9812 48.5985 24.9778C48.0433 24.9387 47.5741 25.3645 47.5409 25.9163C47.5077 26.4671 47.9266 26.9402 48.4774 26.9739C48.5419 26.9778 48.8129 26.9925 49.2401 26.9925C51.8309 26.9925 60.1815 26.4544 63.2684 19.7293C63.4989 19.2278 63.2787 18.6341 62.7767 18.4036C62.2782 18.1751 61.6815 18.3933 61.4511 18.8953Z" fill="black"/>
</svg>
