<svg width="56" height="41" viewBox="0 0 56 41" fill="none" xmlns="http://www.w3.org/2000/svg">
<path d="M35.1575 19.9128L32.1136 18.9413C31.8201 18.8416 31.5771 18.6312 31.4366 18.3549C31.2961 18.0786 31.2691 17.7583 31.3614 17.4624L32.2791 14.3685C32.3156 14.245 32.3763 14.1301 32.4577 14.0304C32.5392 13.9308 32.6397 13.8484 32.7534 13.7881C32.8671 13.7278 32.9917 13.6908 33.1199 13.6793C33.2481 13.6678 33.3773 13.6821 33.5 13.7212C33.6226 13.7603 33.7362 13.8236 33.834 13.9072C33.9319 13.9908 34.012 14.0931 34.0698 14.2081C34.1276 14.3231 34.1618 14.4485 34.1705 14.5769C34.1791 14.7054 34.1621 14.8342 34.1203 14.956L33.7938 16.0567C34.6541 15.3218 35.3476 14.4116 35.8277 13.387C36.3079 12.3624 36.5637 11.2471 36.578 10.1157C36.616 9.08809 36.4486 8.06321 36.0855 7.10111C35.7224 6.139 35.171 5.25901 34.4636 4.51268C33.7562 3.76634 32.907 3.16867 31.9657 2.75465C31.0244 2.34064 30.0099 2.11861 28.9817 2.10157C28.7245 2.09 28.4816 1.97966 28.3036 1.79353C28.1257 1.6074 28.0264 1.35981 28.0264 1.1023C28.0264 0.844787 28.1257 0.597197 28.3036 0.411064C28.4816 0.224931 28.7245 0.114596 28.9817 0.103027L28.9911 0.105027V0.103027C30.2793 0.125903 31.55 0.405378 32.7289 0.925109C33.9078 1.44484 34.9712 2.1944 35.8571 3.12995C36.7429 4.0655 37.4333 5.16827 37.8879 6.37378C38.3425 7.57929 38.5522 8.86334 38.5048 10.1508C38.4865 11.6032 38.1505 13.034 37.5204 14.3427C36.8903 15.6514 35.9813 16.8063 34.8573 17.7263L35.7238 18.003C36.9285 18.3868 36.3892 20.3088 35.1575 19.9128Z" fill="black"/>
<path d="M26.9909 20.1011V20.1031C25.7027 20.08 24.4322 19.8004 23.2534 19.2806C22.0746 18.7608 21.0112 18.0112 20.1254 17.0757C19.2397 16.1402 18.5493 15.0375 18.0946 13.8321C17.6399 12.6267 17.43 11.3427 17.4772 10.0553C17.4948 8.55211 17.8529 7.07247 18.5248 5.72769C19.1967 4.3829 20.1648 3.20797 21.3562 2.2913L20.2582 1.94066C20.0141 1.85792 19.8116 1.68388 19.6931 1.45505C19.5746 1.22622 19.5493 0.960384 19.6226 0.713326C19.6959 0.466268 19.862 0.25719 20.0861 0.129959C20.3101 0.00272785 20.5748 -0.032766 20.8245 0.0309255L23.8684 1.00238C24.1619 1.10207 24.4048 1.31252 24.5453 1.58881C24.6859 1.8651 24.7128 2.18536 24.6205 2.48128L23.7029 5.57514C23.6669 5.69918 23.6065 5.81477 23.5252 5.91509C23.4439 6.0154 23.3433 6.0984 23.2293 6.15918C23.1154 6.21997 22.9904 6.2573 22.8618 6.26899C22.7332 6.28067 22.6036 6.26646 22.4805 6.22721C22.3575 6.18795 22.2436 6.12444 22.1455 6.04043C22.0474 5.95641 21.9672 5.85359 21.9095 5.73805C21.8518 5.62251 21.8179 5.49658 21.8097 5.3677C21.8015 5.23882 21.8192 5.1096 21.8618 4.98768L22.0856 4.23298C21.2549 4.96838 20.5872 5.86938 20.1254 6.87812C19.6636 7.88686 19.4179 8.98104 19.404 10.0904C19.3659 11.118 19.5333 12.1429 19.8964 13.1051C20.2594 14.0672 20.8108 14.9472 21.5182 15.6936C22.2257 16.4399 23.0749 17.0376 24.0163 17.4516C24.9576 17.8656 25.9721 18.0876 27.0003 18.1045C27.2582 18.1159 27.5017 18.2267 27.6798 18.4136C27.8578 18.6006 27.9566 18.8492 27.9553 19.1074C27.9541 19.3655 27.853 19.6132 27.6732 19.7984C27.4934 19.9837 27.2489 20.0922 26.9909 20.1011Z" fill="black"/>
<path d="M47.6947 23.7446H8.28719C6.08846 23.747 3.9806 24.6222 2.42671 26.1778C0.872822 27.7334 0 29.8422 0 32.0409C0 34.2397 0.872822 36.3485 2.42671 37.9041C3.9806 39.4597 6.08846 40.3348 8.28719 40.3372H47.6947C49.8934 40.3348 52.0013 39.4597 53.5552 37.9041C55.109 36.3485 55.9819 34.2397 55.9819 32.0409C55.9819 29.8422 55.109 27.7334 53.5552 26.1778C52.0013 24.6222 49.8934 23.747 47.6947 23.7446ZM11.4626 34.5757L10.4909 33.9448V35.1031C10.4909 35.3683 10.3856 35.6227 10.198 35.8102C10.0105 35.9977 9.75615 36.1031 9.49093 36.1031C9.22572 36.1031 8.97136 35.9977 8.78382 35.8102C8.59629 35.6227 8.49093 35.3683 8.49093 35.1031V33.9448L7.51925 34.5757C7.29679 34.7172 7.02747 34.7651 6.76989 34.709C6.5123 34.6529 6.28728 34.4974 6.14376 34.2762C6.00025 34.0551 5.94984 33.7863 6.00352 33.5282C6.05719 33.2701 6.2106 33.0436 6.43038 32.898L7.65463 32.1031L6.43038 31.3082C6.21028 31.1627 6.05655 30.9362 6.00269 30.678C5.94883 30.4197 5.9992 30.1506 6.14282 29.9293C6.28644 29.708 6.51168 29.5524 6.76949 29.4965C7.0273 29.4405 7.29678 29.4886 7.51925 29.6304L8.49093 30.2613V29.1031C8.49093 28.8379 8.59629 28.5835 8.78382 28.396C8.97136 28.2084 9.22572 28.1031 9.49093 28.1031C9.75615 28.1031 10.0105 28.2084 10.198 28.396C10.3856 28.5835 10.4909 28.8379 10.4909 29.1031V30.2613L11.4626 29.6304C11.6851 29.4886 11.9546 29.4405 12.2124 29.4965C12.4702 29.5524 12.6954 29.708 12.839 29.9293C12.9827 30.1506 13.033 30.4197 12.9792 30.678C12.9253 30.9362 12.7716 31.1627 12.5515 31.3082L11.3272 32.1031L12.5515 32.898C12.7713 33.0436 12.9247 33.2701 12.9783 33.5282C13.032 33.7863 12.9816 34.0551 12.8381 34.2762C12.6946 34.4974 12.4696 34.6529 12.212 34.709C11.9544 34.7651 11.6851 34.7172 11.4626 34.5757ZM21.5515 32.898C21.7713 33.0436 21.9247 33.2701 21.9783 33.5282C22.032 33.7863 21.9816 34.0551 21.8381 34.2762C21.6946 34.4974 21.4696 34.6529 21.212 34.709C20.9544 34.7651 20.6851 34.7172 20.4626 34.5757L19.4909 33.9448V35.1031C19.4909 35.3683 19.3856 35.6227 19.198 35.8102C19.0105 35.9977 18.7561 36.1031 18.4909 36.1031C18.2257 36.1031 17.9714 35.9977 17.7838 35.8102C17.5963 35.6227 17.4909 35.3683 17.4909 35.1031V33.9448L16.5193 34.5757C16.2968 34.7172 16.0275 34.7651 15.7699 34.709C15.5123 34.6529 15.2873 34.4974 15.1438 34.2762C15.0002 34.0551 14.9498 33.7863 15.0035 33.5282C15.0572 33.2701 15.2106 33.0436 15.4304 32.898L16.6546 32.1031L15.4304 31.3082C15.2103 31.1627 15.0566 30.9362 15.0027 30.678C14.9488 30.4197 14.9992 30.1506 15.1428 29.9293C15.2864 29.708 15.5117 29.5524 15.7695 29.4965C16.0273 29.4405 16.2968 29.4886 16.5193 29.6304L17.4909 30.2613V29.1031C17.4909 28.8379 17.5963 28.5835 17.7838 28.396C17.9714 28.2084 18.2257 28.1031 18.4909 28.1031C18.7561 28.1031 19.0105 28.2084 19.198 28.396C19.3856 28.5835 19.4909 28.8379 19.4909 29.1031V30.2613L20.4626 29.6304C20.6851 29.4886 20.9546 29.4405 21.2124 29.4965C21.4702 29.5524 21.6954 29.708 21.839 29.9293C21.9827 30.1506 22.033 30.4197 21.9792 30.678C21.9253 30.9362 21.7716 31.1627 21.5515 31.3082L20.3272 32.1031L21.5515 32.898ZM29.4626 34.5757L28.4909 33.9448V35.1031C28.4909 35.3683 28.3856 35.6227 28.198 35.8102C28.0105 35.9977 27.7561 36.1031 27.4909 36.1031C27.2257 36.1031 26.9714 35.9977 26.7838 35.8102C26.5963 35.6227 26.4909 35.3683 26.4909 35.1031V33.9448L25.5193 34.5757C25.2968 34.7172 25.0275 34.7651 24.7699 34.709C24.5123 34.6529 24.2873 34.4974 24.1438 34.2762C24.0002 34.0551 23.9498 33.7863 24.0035 33.5282C24.0572 33.2701 24.2106 33.0436 24.4304 32.898L25.6546 32.1031L24.4304 31.3082C24.2103 31.1627 24.0566 30.9362 24.0027 30.678C23.9488 30.4197 23.9992 30.1506 24.1428 29.9293C24.2864 29.708 24.5117 29.5524 24.7695 29.4965C25.0273 29.4405 25.2968 29.4886 25.5193 29.6304L26.4909 30.2613V29.1031C26.4909 28.8379 26.5963 28.5835 26.7838 28.396C26.9714 28.2084 27.2257 28.1031 27.4909 28.1031C27.7561 28.1031 28.0105 28.2084 28.198 28.396C28.3856 28.5835 28.4909 28.8379 28.4909 29.1031V30.2613L29.4626 29.6304C29.6851 29.4886 29.9546 29.4405 30.2124 29.4965C30.4702 29.5524 30.6954 29.708 30.839 29.9293C30.9827 30.1506 31.033 30.4197 30.9792 30.678C30.9253 30.9362 30.7716 31.1627 30.5515 31.3082L29.3272 32.1031L30.5515 32.898C30.7713 33.0436 30.9247 33.2701 30.9783 33.5282C31.032 33.7863 30.9816 34.0551 30.8381 34.2762C30.6946 34.4974 30.4696 34.6529 30.212 34.709C29.9544 34.7651 29.6851 34.7172 29.4626 34.5757ZM38.4626 34.5757L37.4909 33.9448V35.1031C37.4909 35.3683 37.3856 35.6227 37.198 35.8102C37.0105 35.9977 36.7561 36.1031 36.4909 36.1031C36.2257 36.1031 35.9714 35.9977 35.7838 35.8102C35.5963 35.6227 35.4909 35.3683 35.4909 35.1031V33.9448L34.5193 34.5757C34.2968 34.7172 34.0275 34.7651 33.7699 34.709C33.5123 34.6529 33.2873 34.4974 33.1438 34.2762C33.0002 34.0551 32.9498 33.7863 33.0035 33.5282C33.0572 33.2701 33.2106 33.0436 33.4304 32.898L34.6546 32.1031L33.4304 31.3082C33.2103 31.1627 33.0566 30.9362 33.0027 30.678C32.9488 30.4197 32.9992 30.1506 33.1428 29.9293C33.2864 29.708 33.5117 29.5524 33.7695 29.4965C34.0273 29.4405 34.2968 29.4886 34.5193 29.6304L35.4909 30.2613V29.1031C35.4909 28.8379 35.5963 28.5835 35.7838 28.396C35.9714 28.2084 36.2257 28.1031 36.4909 28.1031C36.7561 28.1031 37.0105 28.2084 37.198 28.396C37.3856 28.5835 37.4909 28.8379 37.4909 29.1031V30.2613L38.4626 29.6304C38.6851 29.4886 38.9546 29.4405 39.2124 29.4965C39.4702 29.5524 39.6954 29.708 39.839 29.9293C39.9827 30.1506 40.033 30.4197 39.9792 30.678C39.9253 30.9362 39.7716 31.1627 39.5515 31.3082L38.3272 32.1031L39.5515 32.898C39.7713 33.0436 39.9247 33.2701 39.9783 33.5282C40.032 33.7863 39.9816 34.0551 39.8381 34.2762C39.6946 34.4974 39.4696 34.6529 39.212 34.709C38.9544 34.7651 38.6851 34.7172 38.4626 34.5757ZM48.9909 36.1031H42.9909C42.7257 36.1031 42.4714 35.9977 42.2838 35.8102C42.0963 35.6227 41.9909 35.3683 41.9909 35.1031C41.9909 34.8379 42.0963 34.5835 42.2838 34.396C42.4714 34.2084 42.7257 34.1031 42.9909 34.1031H48.9909C49.2561 34.1031 49.5105 34.2084 49.698 34.396C49.8856 34.5835 49.9909 34.8379 49.9909 35.1031C49.9909 35.3683 49.8856 35.6227 49.698 35.8102C49.5105 35.9977 49.2561 36.1031 48.9909 36.1031Z" fill="black"/>
</svg>
