<svg width="95" height="94" viewBox="0 0 95 94" fill="none" xmlns="http://www.w3.org/2000/svg">
<path d="M0 93.2H95V87.2H89V36.5L55.8 27.4V87.1H51.3V0L6 9V87.2H0V93.2ZM75.4 44.3H81.4V52.1H75.4V44.3ZM75.4 58.2H81.4V66H75.4V58.2ZM75.4 72.1H81.4V79.9H75.4V72.1ZM63.3 44.3H69.3V52.1H63.3V44.3ZM63.3 58.2H69.3V66H63.3V58.2ZM63.3 72.1H69.3V79.9H63.3V72.1ZM37.7 16.6H43.7V24.4H37.7V16.6ZM37.7 30.5H43.7V38.3H37.7V30.5ZM37.7 44.3H43.7V52.1H37.7V44.3ZM37.7 58.2H43.7V66H37.7V58.2ZM25.6 16.6H31.6V24.4H25.6V16.6ZM25.6 30.5H31.6V38.3H25.6V30.5ZM25.6 44.3H31.6V52.1H25.6V44.3ZM25.6 58.2H31.6V66H25.6V58.2ZM13.5 16.6H19.5V24.4H13.5V16.6ZM13.5 30.5H19.5V38.3H13.5V30.5ZM13.5 44.3H19.5V52.1H13.5V44.3ZM13.5 58.2H19.5V66H13.5V58.2ZM22.9 72.1H34.4V87.2H22.9V72.1Z" fill="black"/>
</svg>
