<svg width="12" height="12" viewBox="0 0 12 12" fill="none" xmlns="http://www.w3.org/2000/svg">
<path fill-rule="evenodd" clip-rule="evenodd" d="M10.8751 0.000434718C10.6153 0.00817574 10.3687 0.116755 10.1876 0.303169L2.00009 8.49067V2.4184C2.00192 2.28478 1.97695 2.15215 1.92665 2.02834C1.87636 1.90453 1.80176 1.79206 1.70726 1.69756C1.61277 1.60307 1.5003 1.52847 1.37649 1.47817C1.25268 1.42788 1.12005 1.40291 0.986423 1.40473C0.721207 1.40836 0.468294 1.51719 0.283321 1.70729C0.098349 1.89739 -0.0035308 2.15319 9.34907e-05 2.4184V10.9047C0.000120008 11.1699 0.105485 11.4243 0.293016 11.6118C0.480547 11.7993 0.734885 11.9047 1.00009 11.9047H9.48642C9.61894 11.9066 9.7505 11.8821 9.87347 11.8327C9.99643 11.7833 10.1084 11.7099 10.2027 11.6169C10.2971 11.5238 10.372 11.413 10.4232 11.2907C10.4743 11.1685 10.5007 11.0373 10.5007 10.9047C10.5007 10.7722 10.4743 10.641 10.4232 10.5187C10.372 10.3965 10.2971 10.2856 10.2027 10.1926C10.1084 10.0995 9.99643 10.0262 9.87347 9.97675C9.7505 9.92734 9.61894 9.90286 9.48642 9.90473H3.41415L11.6017 1.71723C11.7462 1.57677 11.8449 1.39593 11.8848 1.19841C11.9248 1.00089 11.9041 0.795905 11.8256 0.610319C11.747 0.424734 11.6143 0.267204 11.4447 0.158375C11.2751 0.049546 11.0765 -0.00550532 10.8751 0.000434718Z" fill="black"/>
</svg>
