<svg width="12" height="12" viewBox="0 0 12 12" fill="none" xmlns="http://www.w3.org/2000/svg">
<path fill-rule="evenodd" clip-rule="evenodd" d="M1.02969 11.9044C1.28949 11.8967 1.53607 11.7881 1.71719 11.6017L9.90469 3.41418V9.48644C9.90287 9.62006 9.92784 9.7527 9.97813 9.87651C10.0284 10.0003 10.103 10.1128 10.1975 10.2073C10.292 10.3018 10.4045 10.3764 10.5283 10.4267C10.6521 10.477 10.7847 10.5019 10.9184 10.5001C11.1836 10.4965 11.4365 10.3877 11.6215 10.1976C11.8064 10.0075 11.9083 9.75166 11.9047 9.48644L11.9047 1.00011C11.9047 0.734906 11.7993 0.480568 11.6118 0.293037C11.4242 0.105507 11.1699 0.000140931 10.9047 0.000114441L2.41836 0.000114441C2.28585 -0.00175961 2.15429 0.0227222 2.03132 0.0721359C1.90835 0.12155 1.79643 0.19491 1.70206 0.287954C1.60769 0.380999 1.53275 0.491871 1.48161 0.614128C1.43046 0.736385 1.40412 0.867589 1.40412 1.00011C1.40412 1.13264 1.43046 1.26384 1.48161 1.3861C1.53275 1.50836 1.60769 1.61923 1.70206 1.71227C1.79643 1.80532 1.90835 1.87868 2.03132 1.92809C2.15429 1.97751 2.28585 2.00199 2.41836 2.00011L8.49063 2.00011L0.303132 10.1876C0.158629 10.3281 0.0599304 10.5089 0.0199709 10.7064C-0.0199886 10.904 0.000654861 11.1089 0.079196 11.2945C0.157737 11.4801 0.290512 11.6376 0.46012 11.7465C0.629729 11.8553 0.828259 11.9104 1.02969 11.9044Z" fill="black"/>
</svg>
