<svg xmlns="http://www.w3.org/2000/svg" xmlns:xlink="http://www.w3.org/1999/xlink" version="1.1" x="0px" y="0px" viewBox="0 0 1024 1280" style="enable-background:new 0 0 1024 1024;" xml:space="preserve"><path d="M983.5,529.9c-5.3-28.8-13.3-56.9-23.9-84c-20.8-53.6-50.6-102.6-88.7-145.6c-37-41.9-82.7-78.1-132.1-104.6  c-51.5-27.6-107.1-45.4-165.4-52.9c-58.3-7.6-119.7-4.1-177.4,10.2c-55.3,13.8-109.1,38.1-155.6,70.3  c-47.1,32.5-87.7,72.7-120.6,119.2C86.7,389.3,62.5,441.3,47.9,497c-16.4,62.5-19.8,127.3-10.2,192.6c5.2,36,14.8,71.6,28.3,105.6  c6.7,17,14.4,33.6,22.8,49.4c4.8,9,9,16.3,13.1,23.1c0.4,0.6,0.7,1.2,1.1,1.8c3.3,5.7,8.9,15.2,21.6,15.9c3.3,0.2,6.6,0.2,9.9,0.2  c3.2,0,6.4-0.1,9.5-0.1c3.1-0.1,6-0.1,9-0.1h708.6c3.9,0,7.9,0,11.8,0.1c7.9,0.1,16.1,0.1,24.3-0.1c3.1-0.1,10.4-0.3,16.5-6.4  c3.3-3.3,5.6-7.4,7.4-10.7c0.4-0.8,0.8-1.5,1.3-2.3c2.4-4.1,4.8-8.3,7.2-12.5c4.8-8.5,8.8-16.2,12.4-23.6  c16.3-33.5,28.7-68.1,36.7-102.9c8-34.8,12.2-70.6,12.3-106.5c0.1-0.7,0.1-1.5,0.1-2.3C991.5,588.2,988.8,558.7,983.5,529.9z   M778.8,599.1c8.4-22.5,29.3-37.2,53.3-37.5l0.6,0.1l0.9,0c26.4,1.2,49,20.2,53.7,45.2c0.7,3.6,1,7.3,1,10.9  c0,19.9-10.2,38.8-27.4,49.1c-20.3,12.3-46.7,10-65.5-5.5C777.9,646.8,770.9,620.6,778.8,599.1z M793.3,405.9  c-5.6,22.8-25.8,39.8-50,42.4c-23,2.4-46.6-11.2-56.1-32.3l0,0c-9.9-21.8-5.5-47,11.3-64.2l0.7-0.4l0.7-0.6  c19.6-17.8,49.1-20.2,70.1-5.8C789.6,358.5,799.1,383,793.3,405.9z M565.8,581.8c-5.3,20.9-10.7,42.2-15.9,62.8l-1.8,7.3l5.8,4.8  c13.1,11,21.6,26,23.9,42.3c4.3,31.3-14.4,61.7-44.5,72.1c-28.6,10-61.4-1.9-78.1-28.5l-0.2-0.4c-0.1-0.1-0.1-0.2-0.2-0.3l-0.1-0.2  c-10.7-18.6-11.8-41.4-3-61c8.5-19.3,25.9-33,47.9-37.6l7.5-1.6l1.7-7.5c1.1-5,2.5-10.2,3.9-15.2c0.9-3.1,1.7-6.4,2.6-9.7  c2.4-9.6,4.8-19.2,7.2-28.7c1.9-7.7,3.9-15.3,5.8-23c3.5-14.1,7.1-28.2,10.7-42.3c3.6-14.2,7.2-28.5,10.8-42.8  c1.2-4.9,3-8.6,5.7-11.5c7.1-7.8,19.9-8.7,28.4-2.2c6.6,5.2,9.5,13.8,7.5,22.5c-0.3,1.1-0.6,2.3-0.9,3.4c-0.3,1.3-0.7,2.6-1,3.9  c-4.4,17.3-8.8,34.7-13.1,52.1C572.7,554.3,569.3,568.1,565.8,581.8z M568.5,298.9l0,0.9c-1.2,26.4-20.2,49-45.2,53.7  c-23.6,4.5-47.7-6.1-60-26.4c-12.3-20.3-10.1-46.6,5.5-65.5c14.7-17.7,40.9-24.7,62.4-16.7c22.5,8.4,37.2,29.3,37.5,53.3  L568.5,298.9z M261.5,340.7c7.7-3.5,15.9-5.2,24-5.2c14.7,0,29.1,5.7,40.2,16.5l0.4,0.7l0.6,0.7c17.8,19.6,20.2,49,5.8,70.1  c-13.6,19.7-38.1,29.1-61,23.4c-22.8-5.6-39.8-25.8-42.4-50C226.9,373.9,240.5,350.3,261.5,340.7z M220.8,666.9  c-20.3,12.3-46.7,10-65.5-5.5c-17.7-14.7-24.7-40.9-16.7-62.4c8.4-22.5,29.3-37.2,53.3-37.5l0.6,0.1l0.9,0  c26.4,1.2,49,20.2,53.7,45.2C251.7,630.6,241.1,654.7,220.8,666.9z"/><text x="0" y="1039" fill="#000000" font-size="5px" font-weight="bold" font-family="'Helvetica Neue', Helvetica, Arial-Unicode, Arial, Sans-serif">Created by shashank singh</text><text x="0" y="1044" fill="#000000" font-size="5px" font-weight="bold" font-family="'Helvetica Neue', Helvetica, Arial-Unicode, Arial, Sans-serif">from the Noun Project</text></svg>