<svg xmlns="http://www.w3.org/2000/svg" xmlns:xlink="http://www.w3.org/1999/xlink" version="1.1" x="0px" y="0px" viewBox="0 0 1024 1280" style="enable-background:new 0 0 1024 1024;" xml:space="preserve"><g><g><path d="M929.6,618.3c0,20.6-1.4,41.1-4.1,61.5c0.5-3.5,1-7.1,1.4-10.6c-5.5,40.1-16.2,79.3-31.9,116.6    c1.3-3.2,2.7-6.4,4-9.6c-9.8,23.2-21.5,45.4-34.9,66.7c11.5-6.6,23-13.2,34.5-19.8c-6.9,0-13.8,0-20.8,0c-18.7,0-37.4,0-56.2,0    c-27.8,0-55.6,0-83.4,0c-33.8,0-67.5,0-101.3,0c-37,0-74,0-111,0c-37.5,0-75,0-112.5,0c-34.8,0-69.6,0-104.5,0    c-29.6,0-59.1,0-88.7,0c-21.2,0-42.3,0-63.5,0c-10.1,0-20.1-0.2-30.2,0c-0.4,0-0.9,0-1.3,0c11.5,6.6,23,13.2,34.5,19.8    c-13.4-21.3-25.1-43.6-34.9-66.7c1.3,3.2,2.7,6.4,4,9.6c-15.7-37.3-26.4-76.5-31.9-116.6c0.5,3.5,1,7.1,1.4,10.6    c-5.4-40.7-5.4-81.9-0.1-122.6c-0.5,3.5-1,7.1-1.4,10.6c5.4-40.1,16.1-79.4,31.8-116.7c-1.3,3.2-2.7,6.4-4,9.6    c15.4-36.4,35.5-70.7,59.7-102.1c-2.1,2.7-4.2,5.4-6.3,8.1c23.8-30.7,51.5-58.3,82.2-82.2c-2.7,2.1-5.4,4.2-8.1,6.3    c31.3-24.2,65.6-44.3,102.1-59.7c-3.2,1.3-6.4,2.7-9.6,4c37.3-15.7,76.6-26.4,116.7-31.8c-3.5,0.5-7.1,1-10.6,1.4    c40.5-5.3,81.6-5.3,122.1,0c-3.5-0.5-7.1-1-10.6-1.4c40.1,5.4,79.4,16.1,116.7,31.8c-3.2-1.3-6.4-2.7-9.6-4    c36.4,15.4,70.7,35.5,102.1,59.7c-2.7-2.1-5.4-4.2-8.1-6.3c30.7,23.8,58.3,51.5,82.2,82.2c-2.1-2.7-4.2-5.4-6.3-8.1    c24.2,31.3,44.3,65.6,59.7,102.1c-1.3-3.2-2.7-6.4-4-9.6c15.7,37.3,26.4,76.6,31.8,116.7c-0.5-3.5-1-7.1-1.4-10.6    C928.2,577.5,929.5,597.9,929.6,618.3c0,20.9,18.4,41,40,40c21.6-1,40-17.6,40-40c-0.1-59.8-10.6-120.3-32.3-176.1    C955.1,385.1,923.8,333,883.1,287c-38-42.9-84.4-79.6-134.9-106.7c-27-14.5-55.5-26.6-84.6-36c-30-9.7-60.7-15.7-91.9-19.7    c-60.1-7.8-122.1-3.6-180.9,11c-56.3,14-111,38.4-158.8,71.4c-50.2,34.7-93.1,77.2-128.3,127c-33.5,47.4-58.4,101.7-73.1,157.8    c-8,30.5-12.8,62.1-15,93.5c-2.6,36.9-0.2,73.6,5.1,110.2c5.1,35.2,14.4,69.8,27.6,102.9c7.5,18.8,15.7,37.4,25.3,55.2    c4.1,7.6,8.3,15.1,12.8,22.5c6.7,11.1,14.7,22.4,28.3,25.5c1.5,0.3,9.2,1.4,10.7,1.4c9.2,0.4,18.5,0,27.7,0c23.1,0,46.2,0,69.3,0    c33.1,0,66.2,0,99.3,0c39.2,0,78.5,0,117.7,0c41.3,0,82.6,0,124,0c39.9,0,79.8,0,119.7,0c34.4,0,68.9,0,103.3,0    c25.1,0,50.2,0,75.3,0c11.9,0,23.8,0.1,35.7,0c10.7-0.1,22.2-3.6,29.7-11.7c7.6-8.3,13.2-19.1,18.7-28.9c4.2-7.5,8.3-15.2,12.1-23    c16.8-34.3,30.2-70.3,38.8-107.5c8.6-37.2,13-75.6,13.1-113.8c0-20.9-18.4-41-40-40C947.9,579.3,929.6,595.9,929.6,618.3z"/></g></g><g><g><path d="M498.3,302.9c0,1.4-0.1,2.7-0.3,4.1c0.5-3.5,1-7.1,1.4-10.6c-0.4,2.2-1,4.3-1.9,6.4c1.3-3.2,2.7-6.4,4-9.6    c-0.9,2-2,3.8-3.4,5.6c2.1-2.7,4.2-5.4,6.3-8.1c-1.4,1.7-2.9,3.2-4.6,4.6c2.7-2.1,5.4-4.2,8.1-6.3c-1.8,1.3-3.6,2.4-5.6,3.4    c3.2-1.3,6.4-2.7,9.6-4c-2.1,0.9-4.2,1.5-6.4,1.9c3.5-0.5,7.1-1,10.6-1.4c-2.8,0.4-5.5,0.4-8.3,0c3.5,0.5,7.1,1,10.6,1.4    c-2.2-0.4-4.3-1-6.4-1.9c3.2,1.3,6.4,2.7,9.6,4c-2-0.9-3.8-2-5.6-3.4c2.7,2.1,5.4,4.2,8.1,6.3c-1.7-1.4-3.2-2.9-4.6-4.6    c2.1,2.7,4.2,5.4,6.3,8.1c-1.3-1.8-2.4-3.6-3.4-5.6c1.3,3.2,2.7,6.4,4,9.6c-0.9-2.1-1.5-4.2-1.9-6.4c0.5,3.5,1,7.1,1.4,10.6    c-0.4-2.8-0.4-5.5,0-8.3c-0.5,3.5-1,7.1-1.4,10.6c0.4-2.2,1-4.3,1.9-6.4c-1.3,3.2-2.7,6.4-4,9.6c0.9-2,2-3.8,3.4-5.6    c-2.1,2.7-4.2,5.4-6.3,8.1c1.4-1.7,2.9-3.2,4.6-4.6c-2.7,2.1-5.4,4.2-8.1,6.3c1.8-1.3,3.6-2.4,5.6-3.4c-3.2,1.3-6.4,2.7-9.6,4    c2.1-0.9,4.2-1.5,6.4-1.9c-3.5,0.5-7.1,1-10.6,1.4c2.8-0.4,5.5-0.4,8.3,0c-3.5-0.5-7.1-1-10.6-1.4c2.2,0.4,4.3,1,6.4,1.9    c-3.2-1.3-6.4-2.7-9.6-4c2,0.9,3.8,2,5.6,3.4c-2.7-2.1-5.4-4.2-8.1-6.3c1.7,1.4,3.2,2.9,4.6,4.6c-2.1-2.7-4.2-5.4-6.3-8.1    c1.3,1.8,2.4,3.6,3.4,5.6c-1.3-3.2-2.7-6.4-4-9.6c0.9,2.1,1.5,4.2,1.9,6.4c-0.5-3.5-1-7.1-1.4-10.6    C498.2,300.1,498.3,301.5,498.3,302.9c0.3,10.4,4.3,20.8,11.7,28.3c6.9,6.9,18.3,12.2,28.3,11.7c21.2-0.9,40.6-17.6,40-40    c-0.8-29.4-18.8-53.4-46.4-63.2c-11.5-4.1-25.6-3.9-37.4-0.8c-11.6,3.1-23.3,10-31.2,19c-19,21.6-23.6,53.4-8.5,78.6    c6.1,10.2,15.6,19.9,26.4,25c14.8,7,29.4,8.9,45.5,5.9c12.5-2.3,25.6-10.1,33.9-19.6c11.2-12.9,17.2-27.8,17.7-45    c0.5-20.9-18.8-41-40-40C516.2,263.9,498.9,280.5,498.3,302.9z"/></g></g><g><g><path d="M213.5,651.2c1.4,0,2.7,0.1,4.1,0.3c-3.5-0.5-7.1-1-10.6-1.4c2.2,0.4,4.3,1,6.4,1.9    c-3.2-1.3-6.4-2.7-9.6-4c2,0.9,3.8,2,5.6,3.4c-2.7-2.1-5.4-4.2-8.1-6.3c1.7,1.4,3.2,2.9,4.6,4.6c-2.1-2.7-4.2-5.4-6.3-8.1    c1.3,1.8,2.4,3.6,3.4,5.6c-1.3-3.2-2.7-6.4-4-9.6c0.9,2.1,1.5,4.2,1.9,6.4c-0.5-3.5-1-7.1-1.4-10.6c0.4,2.8,0.4,5.5,0,8.3    c0.5-3.5,1-7.1,1.4-10.6c-0.4,2.2-1,4.3-1.9,6.4c1.3-3.2,2.7-6.4,4-9.6c-0.9,2-2,3.8-3.4,5.6c2.1-2.7,4.2-5.4,6.3-8.1    c-1.4,1.7-2.9,3.2-4.6,4.6c2.7-2.1,5.4-4.2,8.1-6.3c-1.8,1.3-3.6,2.4-5.6,3.4c3.2-1.3,6.4-2.7,9.6-4c-2.1,0.9-4.2,1.5-6.4,1.9    c3.5-0.5,7.1-1,10.6-1.4c-2.8,0.4-5.5,0.4-8.3,0c3.5,0.5,7.1,1,10.6,1.4c-2.2-0.4-4.3-1-6.4-1.9c3.2,1.3,6.4,2.7,9.6,4    c-2-0.9-3.8-2-5.6-3.4c2.7,2.1,5.4,4.2,8.1,6.3c-1.7-1.4-3.2-2.9-4.6-4.6c2.1,2.7,4.2,5.4,6.3,8.1c-1.3-1.8-2.4-3.6-3.4-5.6    c1.3,3.2,2.7,6.4,4,9.6c-0.9-2.1-1.5-4.2-1.9-6.4c0.5,3.5,1,7.1,1.4,10.6c-0.4-2.8-0.4-5.5,0-8.3c-0.5,3.5-1,7.1-1.4,10.6    c0.4-2.2,1-4.3,1.9-6.4c-1.3,3.2-2.7,6.4-4,9.6c0.9-2,2-3.8,3.4-5.6c-2.1,2.7-4.2,5.4-6.3,8.1c1.4-1.7,2.9-3.2,4.6-4.6    c-2.7,2.1-5.4,4.2-8.1,6.3c1.8-1.3,3.6-2.4,5.6-3.4c-3.2,1.3-6.4,2.7-9.6,4c2.1-0.9,4.2-1.5,6.4-1.9c-3.5,0.5-7.1,1-10.6,1.4    C210.7,651.3,212.1,651.2,213.5,651.2c10.4-0.3,20.8-4.3,28.3-11.7c6.9-6.9,12.2-18.3,11.7-28.3c-0.9-21.2-17.6-40.6-40-40    C184,572,160,590,150.3,617.6c-4.1,11.5-3.9,25.6-0.8,37.4c3.1,11.6,10,23.3,19,31.2c21.6,19,53.4,23.6,78.6,8.5    c10.2-6.1,19.9-15.6,25-26.4c7-14.8,8.9-29.4,5.9-45.5c-2.3-12.5-10.1-25.6-19.6-33.9c-12.9-11.2-27.8-17.2-45-17.7    c-20.9-0.5-41,18.8-40,40C174.4,633.3,191,650.6,213.5,651.2z"/></g></g><g><g><path d="M810.5,651.2c1.4,0,2.7,0.1,4.1,0.3c-3.5-0.5-7.1-1-10.6-1.4c2.2,0.4,4.3,1,6.4,1.9    c-3.2-1.3-6.4-2.7-9.6-4c2,0.9,3.8,2,5.6,3.4c-2.7-2.1-5.4-4.2-8.1-6.3c1.7,1.4,3.2,2.9,4.6,4.6c-2.1-2.7-4.2-5.4-6.3-8.1    c1.3,1.8,2.4,3.6,3.4,5.6c-1.3-3.2-2.7-6.4-4-9.6c0.9,2.1,1.5,4.2,1.9,6.4c-0.5-3.5-1-7.1-1.4-10.6c0.4,2.8,0.4,5.5,0,8.3    c0.5-3.5,1-7.1,1.4-10.6c-0.4,2.2-1,4.3-1.9,6.4c1.3-3.2,2.7-6.4,4-9.6c-0.9,2-2,3.8-3.4,5.6c2.1-2.7,4.2-5.4,6.3-8.1    c-1.4,1.7-2.9,3.2-4.6,4.6c2.7-2.1,5.4-4.2,8.1-6.3c-1.8,1.3-3.6,2.4-5.6,3.4c3.2-1.3,6.4-2.7,9.6-4c-2.1,0.9-4.2,1.5-6.4,1.9    c3.5-0.5,7.1-1,10.6-1.4c-2.8,0.4-5.5,0.4-8.3,0c3.5,0.5,7.1,1,10.6,1.4c-2.2-0.4-4.3-1-6.4-1.9c3.2,1.3,6.4,2.7,9.6,4    c-2-0.9-3.8-2-5.6-3.4c2.7,2.1,5.4,4.2,8.1,6.3c-1.7-1.4-3.2-2.9-4.6-4.6c2.1,2.7,4.2,5.4,6.3,8.1c-1.3-1.8-2.4-3.6-3.4-5.6    c1.3,3.2,2.7,6.4,4,9.6c-0.9-2.1-1.5-4.2-1.9-6.4c0.5,3.5,1,7.1,1.4,10.6c-0.4-2.8-0.4-5.5,0-8.3c-0.5,3.5-1,7.1-1.4,10.6    c0.4-2.2,1-4.3,1.9-6.4c-1.3,3.2-2.7,6.4-4,9.6c0.9-2,2-3.8,3.4-5.6c-2.1,2.7-4.2,5.4-6.3,8.1c1.4-1.7,2.9-3.2,4.6-4.6    c-2.7,2.1-5.4,4.2-8.1,6.3c1.8-1.3,3.6-2.4,5.6-3.4c-3.2,1.3-6.4,2.7-9.6,4c2.1-0.9,4.2-1.5,6.4-1.9c-3.5,0.5-7.1,1-10.6,1.4    C807.8,651.3,809.1,651.2,810.5,651.2c10.4-0.3,20.8-4.3,28.3-11.7c6.9-6.9,12.2-18.3,11.7-28.3c-0.9-21.2-17.6-40.6-40-40    c-29.4,0.8-53.4,18.8-63.2,46.4c-4.1,11.5-3.9,25.6-0.8,37.4c3.1,11.6,10,23.3,19,31.2c21.6,19,53.4,23.6,78.6,8.5    c10.2-6.1,19.9-15.6,25-26.4c7-14.8,8.9-29.4,5.9-45.5c-2.3-12.5-10.1-25.6-19.6-33.9c-12.9-11.2-27.8-17.2-45-17.7    c-20.9-0.5-41,18.8-40,40C771.5,633.3,788.1,650.6,810.5,651.2z"/></g></g><g><g><path d="M277.6,426.8c0.7,0.7,1.3,1.4,1.9,2.1c-2.1-2.7-4.2-5.4-6.3-8.1c1.4,1.9,2.6,3.8,3.6,5.9    c-1.3-3.2-2.7-6.4-4-9.6c0.9,2.1,1.5,4.2,1.9,6.5c-0.5-3.5-1-7.1-1.4-10.6c0.3,2.7,0.3,5.3,0,8.1c0.5-3.5,1-7.1,1.4-10.6    c-0.4,2.3-1,4.4-1.9,6.5c1.3-3.2,2.7-6.4,4-9.6c-1,2.1-2.2,4.1-3.6,5.9c2.1-2.7,4.2-5.4,6.3-8.1c-1.3,1.5-2.6,2.8-4.1,4.1    c2.7-2.1,5.4-4.2,8.1-6.3c-1.9,1.4-3.8,2.6-5.9,3.6c3.2-1.3,6.4-2.7,9.6-4c-2.1,0.9-4.2,1.5-6.5,1.9c3.5-0.5,7.1-1,10.6-1.4    c-2.7,0.3-5.3,0.3-8.1,0c3.5,0.5,7.1,1,10.6,1.4c-2.3-0.4-4.4-1-6.5-1.9c3.2,1.3,6.4,2.7,9.6,4c-2.1-1-4.1-2.2-5.9-3.6    c2.7,2.1,5.4,4.2,8.1,6.3c-1.5-1.3-2.8-2.6-4.1-4.1c2.1,2.7,4.2,5.4,6.3,8.1c-1.4-1.9-2.6-3.8-3.6-5.9c1.3,3.2,2.7,6.4,4,9.6    c-0.9-2.1-1.5-4.2-1.9-6.5c0.5,3.5,1,7.1,1.4,10.6c-0.3-2.7-0.3-5.3,0-8.1c-0.5,3.5-1,7.1-1.4,10.6c0.4-2.3,1-4.4,1.9-6.5    c-1.3,3.2-2.7,6.4-4,9.6c1-2.1,2.2-4.1,3.6-5.9c-2.1,2.7-4.2,5.4-6.3,8.1c1.3-1.5,2.6-2.8,4.1-4.1c-2.7,2.1-5.4,4.2-8.1,6.3    c1.9-1.4,3.8-2.6,5.9-3.6c-3.2,1.3-6.4,2.7-9.6,4c2.1-0.9,4.2-1.5,6.5-1.9c-3.5,0.5-7.1,1-10.6,1.4c2.7-0.3,5.3-0.3,8.1,0    c-3.5-0.5-7.1-1-10.6-1.4c2.3,0.4,4.4,1,6.5,1.9c-3.2-1.3-6.4-2.7-9.6-4c2.1,1,4.1,2.2,5.9,3.6c-2.7-2.1-5.4-4.2-8.1-6.3    C276.2,425.5,276.9,426.2,277.6,426.8c7.6,7.2,17.7,11.7,28.3,11.7c9.8,0,21.5-4.4,28.3-11.7c14.3-15.6,16.2-41.2,0-56.6    c-8.8-8.4-20.1-15.5-32.2-17.7c-16.1-2.9-30.6-1.1-45.4,5.9c-10.9,5.2-20.7,15-26.7,25.5c-6,10.5-9.7,23.8-8.7,35.9    c1.3,16.2,6.8,29.7,17.4,42.1c7.8,9.2,19.9,16.2,31.5,19.3c28.4,7.5,56.9-4.7,73.2-28.5c7.2-10.5,11.3-25.5,10.3-38.2    c-1.4-17.1-7.4-31.7-19.3-44.2c-14.4-15.2-42.2-15.6-56.6,0C262.6,386.6,262.2,410.6,277.6,426.8z"/></g></g><g><g><path d="M747,426.8c0.7-0.7,1.4-1.3,2.1-1.9c-2.7,2.1-5.4,4.2-8.1,6.3c1.9-1.4,3.8-2.6,5.9-3.6    c-3.2,1.3-6.4,2.7-9.6,4c2.1-0.9,4.2-1.5,6.5-1.9c-3.5,0.5-7.1,1-10.6,1.4c2.7-0.3,5.3-0.3,8.1,0c-3.5-0.5-7.1-1-10.6-1.4    c2.3,0.4,4.4,1,6.5,1.9c-3.2-1.3-6.4-2.7-9.6-4c2.1,1,4.1,2.2,5.9,3.6c-2.7-2.1-5.4-4.2-8.1-6.3c1.5,1.3,2.8,2.6,4.1,4.1    c-2.1-2.7-4.2-5.4-6.3-8.1c1.4,1.9,2.6,3.8,3.6,5.9c-1.3-3.2-2.7-6.4-4-9.6c0.9,2.1,1.5,4.2,1.9,6.5c-0.5-3.5-1-7.1-1.4-10.6    c0.3,2.7,0.3,5.3,0,8.1c0.5-3.5,1-7.1,1.4-10.6c-0.4,2.3-1,4.4-1.9,6.5c1.3-3.2,2.7-6.4,4-9.6c-1,2.1-2.2,4.1-3.6,5.9    c2.1-2.7,4.2-5.4,6.3-8.1c-1.3,1.5-2.6,2.8-4.1,4.1c2.7-2.1,5.4-4.2,8.1-6.3c-1.9,1.4-3.8,2.6-5.9,3.6c3.2-1.3,6.4-2.7,9.6-4    c-2.1,0.9-4.2,1.5-6.5,1.9c3.5-0.5,7.1-1,10.6-1.4c-2.7,0.3-5.3,0.3-8.1,0c3.5,0.5,7.1,1,10.6,1.4c-2.3-0.4-4.4-1-6.5-1.9    c3.2,1.3,6.4,2.7,9.6,4c-2.1-1-4.1-2.2-5.9-3.6c2.7,2.1,5.4,4.2,8.1,6.3c-1.5-1.3-2.8-2.6-4.1-4.1c2.1,2.7,4.2,5.4,6.3,8.1    c-1.4-1.9-2.6-3.8-3.6-5.9c1.3,3.2,2.7,6.4,4,9.6c-0.9-2.1-1.5-4.2-1.9-6.5c0.5,3.5,1,7.1,1.4,10.6c-0.3-2.7-0.3-5.3,0-8.1    c-0.5,3.5-1,7.1-1.4,10.6c0.4-2.3,1-4.4,1.9-6.5c-1.3,3.2-2.7,6.4-4,9.6c1-2.1,2.2-4.1,3.6-5.9c-2.1,2.7-4.2,5.4-6.3,8.1    C745.7,428.2,746.4,427.5,747,426.8c7.2-7.6,11.7-17.7,11.7-28.3c0-9.8-4.4-21.5-11.7-28.3c-15.6-14.3-41.2-16.2-56.6,0    c-8.4,8.8-15.5,20.1-17.7,32.2c-2.9,16.1-1.1,30.6,5.9,45.4c5.2,10.9,15,20.7,25.5,26.7c10.5,6,23.8,9.7,35.9,8.7    c16.2-1.3,29.7-6.8,42.1-17.4c9.2-7.8,16.2-19.9,19.3-31.5c7.5-28.4-4.7-56.9-28.5-73.2c-10.5-7.2-25.5-11.3-38.2-10.3    c-17.1,1.4-31.7,7.4-44.2,19.3c-15.2,14.4-15.6,42.2,0,56.6C706.8,441.8,730.8,442.2,747,426.8z"/></g></g><g><g><path d="M534.4,463.4c-5.5,18.8-10.9,37.5-16.4,56.3c-8.8,30.1-17.6,60.2-26.3,90.3c-2,6.9-4,13.8-6,20.6    c-6,20.7,7.3,43.6,27.9,49.2c2.1,0.6,4.2,1.3,6.2,2c-3.2-1.3-6.4-2.7-9.6-4c4.2,1.8,8,4,11.7,6.7c-2.7-2.1-5.4-4.2-8.1-6.3    c3.4,2.7,6.5,5.7,9.2,9.2c-2.1-2.7-4.2-5.4-6.3-8.1c2.5,3.3,4.5,6.8,6.2,10.6c-1.3-3.2-2.7-6.4-4-9.6c1.7,4.2,2.9,8.4,3.6,12.9    c-0.5-3.5-1-7.1-1.4-10.6c0.5,4.5,0.6,8.9,0,13.4c0.5-3.5,1-7.1,1.4-10.6c-0.7,4.5-1.9,8.8-3.6,13c1.3-3.2,2.7-6.4,4-9.6    c-1.7,3.9-3.9,7.4-6.4,10.8c2.1-2.7,4.2-5.4,6.3-8.1c-2.7,3.3-5.6,6.3-9,9c2.7-2.1,5.4-4.2,8.1-6.3c-3.3,2.5-6.8,4.5-10.6,6.2    c3.2-1.3,6.4-2.7,9.6-4c-4.2,1.7-8.4,2.9-12.9,3.6c3.5-0.5,7.1-1,10.6-1.4c-4.5,0.5-8.9,0.6-13.4,0c3.5,0.5,7.1,1,10.6,1.4    c-4.5-0.7-8.8-1.9-13-3.6c3.2,1.3,6.4,2.7,9.6,4c-3.9-1.7-7.4-3.9-10.8-6.4c2.7,2.1,5.4,4.2,8.1,6.3c-3.3-2.7-6.3-5.6-9-9    c2.1,2.7,4.2,5.4,6.3,8.1c-2.5-3.3-4.5-6.8-6.2-10.6c1.3,3.2,2.7,6.4,4,9.6c-1.7-4.2-2.9-8.4-3.6-12.9c0.5,3.5,1,7.1,1.4,10.6    c-0.5-4.5-0.6-8.9,0-13.4c-0.5,3.5-1,7.1-1.4,10.6c0.7-4.5,1.9-8.8,3.6-13c-1.3,3.2-2.7,6.4-4,9.6c1.7-3.9,3.9-7.4,6.4-10.8    c-2.1,2.7-4.2,5.4-6.3,8.1c2.8-3.5,5.9-6.6,9.5-9.3c-2.7,2.1-5.4,4.2-8.1,6.3c2.7-1.9,5.5-3.6,8.5-5.1c-3.2,1.3-6.4,2.7-9.6,4    c5-1.9,10.3-3.1,15.5-3.8c-3.5,0.5-7.1,1-10.6,1.4c4-0.5,8-0.6,12.1-0.3c-3.5-0.5-7.1-1-10.6-1.4c1.5,0.2,3,0.5,4.5,0.8    c10.4,2.4,21.5,1.4,30.8-4c8.3-4.9,16.2-14.4,18.4-23.9c2.3-10.2,1.8-21.7-4-30.8c-5.5-8.6-13.7-16-23.9-18.4    c-16.8-3.9-34.8-2.9-51.2,2.5c-18.8,6.2-33.5,18.7-44.8,34.7c-19.7,27.7-20.1,69.6-1,97.7c11.8,17.3,27,29.1,46.6,36.6    c15.9,6.1,33.9,6,50.4,2.4c16.4-3.6,33.3-13.5,44.4-26.1c5.3-6,10.4-12.6,13.9-19.9c5.7-11.8,8.2-21.6,9.6-34.5    c4.7-42.4-26.1-82.4-66.3-93.3c9.3,16.4,18.6,32.8,27.9,49.2c5.5-18.8,10.9-37.5,16.4-56.3c8.8-30.1,17.6-60.2,26.3-90.3    c2-6.9,4-13.8,6-20.6c5.9-20.1-7.1-44.5-27.9-49.2C562.2,430.6,540.7,441.9,534.4,463.4L534.4,463.4z"/></g></g><text x="0" y="1039" fill="#000000" font-size="5px" font-weight="bold" font-family="'Helvetica Neue', Helvetica, Arial-Unicode, Arial, Sans-serif">Created by shashank singh</text><text x="0" y="1044" fill="#000000" font-size="5px" font-weight="bold" font-family="'Helvetica Neue', Helvetica, Arial-Unicode, Arial, Sans-serif">from the Noun Project</text></svg>