<svg width="80" height="92" viewBox="0 0 80 92" fill="none" xmlns="http://www.w3.org/2000/svg">
<path d="M73.565 26.052C76.847 26.052 79.517 23.382 79.517 20.101V5.952C79.517 2.67 76.847 0 73.565 0H5.951C2.669 0 0 2.67 0 5.952V20.1C0 23.382 2.67 26.051 5.951 26.051H8.529V32.974H5.951C2.669 32.974 0 35.644 0 38.925V53.073C0 56.355 2.67 59.025 5.951 59.025H8.529V65.948H5.951C2.669 65.948 0 68.618 0 71.899V86.047C0 89.329 2.67 91.998 5.951 91.998H73.565C76.847 91.998 79.517 89.328 79.517 86.047V71.9C79.517 68.618 76.847 65.949 73.565 65.949H70.987V59.026H73.565C76.847 59.026 79.517 56.356 79.517 53.074V38.926C79.517 35.644 76.847 32.975 73.565 32.975H70.987V26.052H73.565ZM2.243 20.1V5.952C2.243 3.908 3.906 2.244 5.951 2.244H73.565C75.609 2.244 77.273 3.907 77.273 5.952V20.1C77.273 22.144 75.61 23.808 73.565 23.808H5.951C3.906 23.808 2.243 22.145 2.243 20.1ZM77.273 71.9V86.048C77.273 88.092 75.61 89.756 73.565 89.756H5.951C3.907 89.756 2.243 88.093 2.243 86.048V71.9C2.243 69.856 3.906 68.192 5.951 68.192H73.565C75.61 68.192 77.273 69.855 77.273 71.9ZM68.743 65.948H10.772V59.025H68.743V65.948ZM77.273 38.926V53.074C77.273 55.118 75.61 56.782 73.565 56.782H5.951C3.907 56.782 2.243 55.119 2.243 53.074V38.926C2.243 36.882 3.906 35.218 5.951 35.218H73.565C75.61 35.218 77.273 36.882 77.273 38.926ZM68.743 32.975H10.772V26.052H68.743V32.975ZM32.17 9.221C30.072 9.221 28.364 10.928 28.364 13.027C28.364 15.126 30.071 16.833 32.17 16.833C34.268 16.833 35.976 15.126 35.976 13.027C35.976 10.928 34.269 9.221 32.17 9.221ZM32.17 14.588C31.309 14.588 30.608 13.887 30.608 13.026C30.608 12.165 31.309 11.464 32.17 11.464C33.031 11.464 33.732 12.165 33.732 13.026C33.732 13.887 33.031 14.588 32.17 14.588ZM20.808 9.221C18.71 9.221 17.002 10.928 17.002 13.027C17.002 15.126 18.709 16.833 20.808 16.833C22.907 16.833 24.614 15.126 24.614 13.027C24.614 10.928 22.906 9.221 20.808 9.221ZM20.808 14.588C19.947 14.588 19.246 13.887 19.246 13.026C19.246 12.165 19.947 11.464 20.808 11.464C21.669 11.464 22.37 12.165 22.37 13.026C22.37 13.887 21.669 14.588 20.808 14.588ZM9.445 9.221C7.347 9.221 5.639 10.928 5.639 13.027C5.639 15.126 7.346 16.833 9.445 16.833C11.544 16.833 13.251 15.126 13.251 13.027C13.251 10.928 11.543 9.221 9.445 9.221ZM9.445 14.588C8.584 14.588 7.883 13.887 7.883 13.026C7.883 12.165 8.584 11.464 9.445 11.464C10.306 11.464 11.007 12.165 11.007 13.026C11.007 13.887 10.306 14.588 9.445 14.588ZM70.823 9.973H45.298C43.614 9.973 42.244 11.343 42.244 13.027C42.244 14.711 43.614 16.081 45.298 16.081H70.823C72.507 16.081 73.877 14.711 73.877 13.027C73.877 11.343 72.507 9.973 70.823 9.973ZM70.823 13.836H45.298C44.851 13.836 44.488 13.473 44.488 13.026C44.488 12.58 44.851 12.216 45.298 12.216H70.823C71.27 12.216 71.633 12.579 71.633 13.026C71.633 13.473 71.269 13.836 70.823 13.836ZM32.17 82.779C34.268 82.779 35.976 81.072 35.976 78.973C35.976 76.874 34.269 75.167 32.17 75.167C30.072 75.167 28.364 76.874 28.364 78.973C28.365 81.072 30.072 82.779 32.17 82.779ZM32.17 77.412C33.031 77.412 33.732 78.113 33.732 78.974C33.732 79.835 33.031 80.536 32.17 80.536C31.309 80.536 30.608 79.835 30.608 78.974C30.608 78.113 31.309 77.412 32.17 77.412ZM9.445 82.779C11.543 82.779 13.251 81.072 13.251 78.973C13.251 76.874 11.544 75.167 9.445 75.167C7.346 75.167 5.639 76.874 5.639 78.973C5.639 81.072 7.346 82.779 9.445 82.779ZM9.445 77.412C10.306 77.412 11.007 78.113 11.007 78.974C11.007 79.835 10.306 80.536 9.445 80.536C8.584 80.536 7.883 79.835 7.883 78.974C7.883 78.113 8.584 77.412 9.445 77.412ZM20.808 82.779C22.906 82.779 24.614 81.072 24.614 78.973C24.614 76.874 22.907 75.167 20.808 75.167C18.709 75.167 17.002 76.874 17.002 78.973C17.002 81.072 18.709 82.779 20.808 82.779ZM20.808 77.412C21.669 77.412 22.37 78.113 22.37 78.974C22.37 79.835 21.669 80.536 20.808 80.536C19.947 80.536 19.246 79.835 19.246 78.974C19.246 78.113 19.946 77.412 20.808 77.412ZM45.298 82.028H70.823C72.507 82.028 73.877 80.658 73.877 78.974C73.877 77.29 72.507 75.92 70.823 75.92H45.298C43.614 75.92 42.244 77.29 42.244 78.974C42.244 80.658 43.614 82.028 45.298 82.028ZM45.298 78.164H70.823C71.27 78.164 71.633 78.527 71.633 78.974C71.633 79.421 71.27 79.784 70.823 79.784H45.298C44.851 79.784 44.488 79.421 44.488 78.974C44.488 78.527 44.851 78.164 45.298 78.164ZM9.445 49.806C11.543 49.806 13.251 48.099 13.251 46C13.251 43.902 11.544 42.194 9.445 42.194C7.346 42.194 5.639 43.902 5.639 46C5.639 48.099 7.346 49.806 9.445 49.806ZM9.445 44.438C10.306 44.438 11.007 45.138 11.007 46C11.007 46.862 10.306 47.562 9.445 47.562C8.584 47.562 7.883 46.861 7.883 46C7.883 45.139 8.584 44.438 9.445 44.438ZM32.17 49.806C34.268 49.806 35.976 48.099 35.976 46C35.976 43.902 34.269 42.194 32.17 42.194C30.072 42.194 28.364 43.901 28.364 46C28.365 48.099 30.072 49.806 32.17 49.806ZM32.17 44.438C33.031 44.438 33.732 45.138 33.732 46C33.732 46.862 33.031 47.562 32.17 47.562C31.309 47.562 30.608 46.861 30.608 46C30.608 45.139 31.309 44.438 32.17 44.438ZM20.808 49.806C22.906 49.806 24.614 48.099 24.614 46C24.614 43.902 22.907 42.194 20.808 42.194C18.709 42.194 17.002 43.902 17.002 46C17.002 48.099 18.709 49.806 20.808 49.806ZM20.808 44.438C21.669 44.438 22.37 45.138 22.37 46C22.37 46.862 21.669 47.562 20.808 47.562C19.947 47.562 19.246 46.861 19.246 46C19.246 45.139 19.946 44.438 20.808 44.438ZM45.298 49.054H70.823C72.507 49.054 73.877 47.684 73.877 46C73.877 44.316 72.507 42.946 70.823 42.946H45.298C43.614 42.946 42.244 44.316 42.244 46C42.244 47.684 43.614 49.054 45.298 49.054ZM45.298 45.19H70.823C71.27 45.19 71.633 45.553 71.633 46C71.633 46.446 71.27 46.81 70.823 46.81H45.298C44.851 46.81 44.488 46.447 44.488 46C44.488 45.554 44.851 45.19 45.298 45.19Z" fill="black"/>
</svg>
