<svg width="46" height="46" viewBox="0 0 46 46" fill="none" xmlns="http://www.w3.org/2000/svg">
<path d="M46 11V3C45.9991 2.20462 45.6828 1.44206 45.1204 0.879639C44.5579 0.317218 43.7954 0.000868196 43 0H3C2.20462 0.000868196 1.44206 0.317218 0.879639 0.879639C0.317218 1.44206 0.000868196 2.20462 0 3V11C0.000868196 11.7954 0.317218 12.5579 0.879639 13.1204C1.44206 13.6828 2.20462 13.9991 3 14V16C2.20462 16.0009 1.44206 16.3172 0.879639 16.8796C0.317218 17.4421 0.000868196 18.2046 0 19V27C0.000868196 27.7954 0.317218 28.5579 0.879639 29.1204C1.44206 29.6828 2.20462 29.9991 3 30V32C2.20462 32.0009 1.44206 32.3172 0.879639 32.8796C0.317218 33.4421 0.000868196 34.2046 0 35V43C0.000868196 43.7954 0.317218 44.5579 0.879639 45.1204C1.44206 45.6828 2.20462 45.9991 3 46H43C43.7954 45.9991 44.5579 45.6828 45.1204 45.1204C45.6828 44.5579 45.9991 43.7954 46 43V35C45.9991 34.2046 45.6828 33.4421 45.1204 32.8796C44.5579 32.3172 43.7954 32.0009 43 32V30C43.7954 29.9991 44.5579 29.6828 45.1204 29.1204C45.6828 28.5579 45.9991 27.7954 46 27V19C45.9991 18.2046 45.6828 17.4421 45.1204 16.8796C44.5579 16.3172 43.7954 16.0009 43 16V14C43.7954 13.9991 44.5579 13.6828 45.1204 13.1204C45.6828 12.5579 45.9991 11.7954 46 11ZM27 6H41C41.2652 6 41.5196 6.10536 41.7071 6.29289C41.8946 6.48043 42 6.73478 42 7C42 7.26522 41.8946 7.51957 41.7071 7.70711C41.5196 7.89464 41.2652 8 41 8H27C26.7348 8 26.4804 7.89464 26.2929 7.70711C26.1054 7.51957 26 7.26522 26 7C26 6.73478 26.1054 6.48043 26.2929 6.29289C26.4804 6.10536 26.7348 6 27 6ZM16 4C16.5933 4 17.1734 4.17595 17.6667 4.50559C18.1601 4.83524 18.5446 5.30377 18.7716 5.85195C18.9987 6.40013 19.0581 7.00333 18.9424 7.58527C18.8266 8.16721 18.5409 8.70176 18.1213 9.12132C17.7018 9.54088 17.1672 9.8266 16.5853 9.94236C16.0033 10.0581 15.4001 9.9987 14.8519 9.77164C14.3038 9.54458 13.8352 9.16006 13.5056 8.66671C13.1759 8.17336 13 7.59334 13 7C13.0009 6.20462 13.3172 5.44206 13.8796 4.87964C14.4421 4.31722 15.2046 4.00087 16 4ZM7 4C7.59334 4 8.17336 4.17595 8.66671 4.50559C9.16006 4.83524 9.54458 5.30377 9.77164 5.85195C9.9987 6.40013 10.0581 7.00333 9.94236 7.58527C9.8266 8.16721 9.54088 8.70176 9.12132 9.12132C8.70176 9.54088 8.16721 9.8266 7.58527 9.94236C7.00333 10.0581 6.40013 9.9987 5.85195 9.77164C5.30377 9.54458 4.83524 9.16006 4.50559 8.66671C4.17595 8.17336 4 7.59334 4 7C4.00087 6.20462 4.31722 5.44206 4.87964 4.87964C5.44206 4.31722 6.20462 4.00087 7 4ZM4 23C4 22.4067 4.17595 21.8266 4.50559 21.3333C4.83524 20.8399 5.30377 20.4554 5.85195 20.2284C6.40013 20.0013 7.00333 19.9419 7.58527 20.0576C8.16721 20.1734 8.70176 20.4591 9.12132 20.8787C9.54088 21.2982 9.8266 21.8328 9.94236 22.4147C10.0581 22.9967 9.9987 23.5999 9.77164 24.1481C9.54458 24.6962 9.16006 25.1648 8.66671 25.4944C8.17336 25.8241 7.59334 26 7 26C6.20462 25.9991 5.44206 25.6828 4.87964 25.1204C4.31722 24.5579 4.00087 23.7954 4 23ZM7 42C6.40666 42 5.82664 41.8241 5.33329 41.4944C4.83994 41.1648 4.45542 40.6962 4.22836 40.148C4.0013 39.5999 3.94189 38.9967 4.05764 38.4147C4.1734 37.8328 4.45912 37.2982 4.87868 36.8787C5.29824 36.4591 5.83279 36.1734 6.41473 36.0576C6.99667 35.9419 7.59987 36.0013 8.14805 36.2284C8.69623 36.4554 9.16476 36.8399 9.49441 37.3333C9.82405 37.8266 10 38.4067 10 39C9.99913 39.7954 9.68278 40.5579 9.12036 41.1204C8.55794 41.6828 7.79538 41.9991 7 42ZM16 42C15.4067 42 14.8266 41.8241 14.3333 41.4944C13.8399 41.1648 13.4554 40.6962 13.2284 40.148C13.0013 39.5999 12.9419 38.9967 13.0576 38.4147C13.1734 37.8328 13.4591 37.2982 13.8787 36.8787C14.2982 36.4591 14.8328 36.1734 15.4147 36.0576C15.9967 35.9419 16.5999 36.0013 17.1481 36.2284C17.6962 36.4554 18.1648 36.8399 18.4944 37.3333C18.8241 37.8266 19 38.4067 19 39C18.9991 39.7954 18.6828 40.5579 18.1204 41.1204C17.5579 41.6828 16.7954 41.9991 16 42ZM41 40H27C26.7348 40 26.4804 39.8946 26.2929 39.7071C26.1054 39.5196 26 39.2652 26 39C26 38.7348 26.1054 38.4804 26.2929 38.2929C26.4804 38.1054 26.7348 38 27 38H41C41.2652 38 41.5196 38.1054 41.7071 38.2929C41.8946 38.4804 42 38.7348 42 39C42 39.2652 41.8946 39.5196 41.7071 39.7071C41.5196 39.8946 41.2652 40 41 40ZM41 32H5V30H41V32ZM13 23C13 22.4067 13.1759 21.8266 13.5056 21.3333C13.8352 20.8399 14.3038 20.4554 14.8519 20.2284C15.4001 20.0013 16.0033 19.9419 16.5853 20.0576C17.1672 20.1734 17.7018 20.4591 18.1213 20.8787C18.5409 21.2982 18.8266 21.8328 18.9424 22.4147C19.0581 22.9967 18.9987 23.5999 18.7716 24.1481C18.5446 24.6962 18.1601 25.1648 17.6667 25.4944C17.1734 25.8241 16.5933 26 16 26C15.2046 25.9991 14.4421 25.6828 13.8796 25.1204C13.3172 24.5579 13.0009 23.7954 13 23ZM42 23C42.0001 23.1313 41.9743 23.2614 41.924 23.3828C41.8738 23.5041 41.8001 23.6144 41.7073 23.7073C41.6144 23.8001 41.5041 23.8738 41.3828 23.924C41.2614 23.9743 41.1313 24.0001 41 24H27C26.7348 24 26.4804 23.8946 26.2929 23.7071C26.1054 23.5196 26 23.2652 26 23C26 22.7348 26.1054 22.4804 26.2929 22.2929C26.4804 22.1054 26.7348 22 27 22H41C41.1313 21.9999 41.2614 22.0257 41.3828 22.076C41.5041 22.1262 41.6144 22.1999 41.7073 22.2927C41.8001 22.3856 41.8738 22.4959 41.924 22.6172C41.9743 22.7386 42.0001 22.8687 42 23ZM41 16H5V14H41V16Z" fill="black"/>
<path d="M16 8C16.5523 8 17 7.55228 17 7C17 6.44772 16.5523 6 16 6C15.4477 6 15 6.44772 15 7C15 7.55228 15.4477 8 16 8Z" fill="black"/>
<path d="M7 8C7.55228 8 8 7.55228 8 7C8 6.44772 7.55228 6 7 6C6.44772 6 6 6.44772 6 7C6 7.55228 6.44772 8 7 8Z" fill="black"/>
<path d="M16 24C16.5523 24 17 23.5523 17 23C17 22.4477 16.5523 22 16 22C15.4477 22 15 22.4477 15 23C15 23.5523 15.4477 24 16 24Z" fill="black"/>
<path d="M7 24C7.55228 24 8 23.5523 8 23C8 22.4477 7.55228 22 7 22C6.44772 22 6 22.4477 6 23C6 23.5523 6.44772 24 7 24Z" fill="black"/>
<path d="M7 40C7.55228 40 8 39.5523 8 39C8 38.4477 7.55228 38 7 38C6.44772 38 6 38.4477 6 39C6 39.5523 6.44772 40 7 40Z" fill="black"/>
<path d="M16 40C16.5523 40 17 39.5523 17 39C17 38.4477 16.5523 38 16 38C15.4477 38 15 38.4477 15 39C15 39.5523 15.4477 40 16 40Z" fill="black"/>
</svg>
