<svg width="90" height="90" viewBox="0 0 90 90" fill="none" xmlns="http://www.w3.org/2000/svg">
<path d="M83.22 60.3702V29.4402V14.4402C83.22 13.6155 83.0576 12.7988 82.742 12.0369C82.4264 11.275 81.9638 10.5827 81.3806 9.99955C80.7975 9.41639 80.1052 8.95381 79.3433 8.63821C78.5813 8.32261 77.7647 8.16018 76.94 8.16018H71.04V4.53018C71.04 3.93445 70.9225 3.34457 70.6942 2.79431C70.4659 2.24405 70.1314 1.74422 69.7097 1.32344C69.288 0.902662 68.7874 0.569193 68.2366 0.342128C67.6859 0.115063 67.0957 -0.00113846 66.5 0.000176619H65.44C64.8443 -0.00113846 64.2541 0.115063 63.7034 0.342128C63.1526 0.569193 62.652 0.902662 62.2303 1.32344C61.8086 1.74422 61.4741 2.24405 61.2458 2.79431C61.0175 3.34457 60.9 3.93445 60.9 4.53018V8.13018H46.65V4.53018C46.65 3.32875 46.1727 2.17652 45.3232 1.32698C44.4737 0.477443 43.3214 0.000176619 42.12 0.000176619H41.12C39.9186 0.000176619 38.7663 0.477443 37.9168 1.32698C37.0673 2.17652 36.59 3.32875 36.59 4.53018V8.13018H22.29V4.53018C22.29 3.93191 22.1715 3.33956 21.9414 2.78733C21.7112 2.2351 21.374 1.73393 20.9491 1.31276C20.5242 0.891581 20.0201 0.558741 19.4658 0.333453C18.9116 0.108166 18.3182 -0.00510611 17.72 0.000176619H16.72C16.1243 -0.00113846 15.5341 0.115063 14.9834 0.342128C14.4326 0.569193 13.932 0.902662 13.5103 1.32344C13.0886 1.74422 12.7541 2.24405 12.5258 2.79431C12.2975 3.34457 12.18 3.93445 12.18 4.53018V8.13018H6.28C4.61444 8.13018 3.0171 8.79182 1.83937 9.96955C0.661641 11.1473 0 12.7446 0 14.4102V29.4102V76.9702C0.00264456 78.6349 0.665135 80.2307 1.84229 81.4079C3.01945 82.585 4.61525 83.2475 6.28 83.2502H60.34C61.7611 85.069 63.5524 86.5652 65.5951 87.6398C67.6378 88.7145 69.8855 89.343 72.1894 89.4839C74.4933 89.6247 76.8008 89.2747 78.9592 88.4569C81.1176 87.6391 83.0778 86.3722 84.7099 84.7401C86.342 83.108 87.6089 81.1478 88.4267 78.9894C89.2445 76.8309 89.5945 74.5234 89.4537 72.2196C89.3128 69.9157 88.6843 67.668 87.6097 65.6253C86.535 63.5825 85.0388 61.7913 83.22 60.3702ZM1.97 23.8802H81.22V28.4402H1.97V23.8802ZM62.9 9.13018V4.53018C62.9026 3.85826 63.1714 3.21477 63.6475 2.74059C64.1235 2.2664 64.7681 2.00017 65.44 2.00018H66.5C67.1719 2.00017 67.8165 2.2664 68.2925 2.74059C68.7686 3.21477 69.0374 3.85826 69.04 4.53018V16.2502H62.9V9.13018ZM38.54 9.13018V4.53018C38.5426 3.85999 38.81 3.218 39.2839 2.74411C39.7578 2.27021 40.3998 2.00281 41.07 2.00018H42.07C42.7402 2.00281 43.3822 2.27021 43.8561 2.74411C44.33 3.218 44.5974 3.85999 44.6 4.53018V16.2502H38.54V9.13018ZM14.15 9.13018V4.53018C14.1513 4.19492 14.2189 3.86324 14.3491 3.55426C14.4792 3.24528 14.6692 2.96511 14.9081 2.72992C15.147 2.49472 15.4301 2.30915 15.7411 2.1839C16.0521 2.05866 16.3848 1.99621 16.72 2.00018H17.72C18.3919 2.00017 19.0365 2.2664 19.5125 2.74059C19.9886 3.21477 20.2574 3.85826 20.26 4.53018V16.2502H14.15V9.13018ZM1.97 14.4102C1.97 13.275 2.42093 12.1864 3.22358 11.3838C4.02624 10.5811 5.11487 10.1302 6.25 10.1302H12.15V17.2502C12.15 17.5154 12.2554 17.7697 12.4429 17.9573C12.6304 18.1448 12.8848 18.2502 13.15 18.2502H21.29C21.5552 18.2502 21.8096 18.1448 21.9971 17.9573C22.1846 17.7697 22.29 17.5154 22.29 17.2502V10.1302H36.54V17.2502C36.54 17.5154 36.6454 17.7697 36.8329 17.9573C37.0204 18.1448 37.2748 18.2502 37.54 18.2502H45.65C45.9152 18.2502 46.1696 18.1448 46.3571 17.9573C46.5446 17.7697 46.65 17.5154 46.65 17.2502V10.1302H60.9V17.2502C60.9 17.5154 61.0054 17.7697 61.1929 17.9573C61.3804 18.1448 61.6348 18.2502 61.9 18.2502H70.04C70.3052 18.2502 70.5596 18.1448 70.7471 17.9573C70.9346 17.7697 71.04 17.5154 71.04 17.2502V10.1302H76.94C78.0751 10.1302 79.1638 10.5811 79.9664 11.3838C80.7691 12.1864 81.22 13.275 81.22 14.4102V21.8802H1.97V14.4102ZM6.25 81.2502C5.11487 81.2502 4.02624 80.7992 3.22358 79.9966C2.42093 79.1939 1.97 78.1053 1.97 76.9702V30.4402H81.22V59.0102L81.09 58.9502C80.6201 58.681 80.1361 58.4374 79.64 58.2202L79.38 58.1202C78.93 57.9302 78.46 57.7602 77.99 57.6102L77.72 57.5302C77.21 57.3802 76.72 57.2602 76.15 57.1602L75.8 57.1002L75.08 56.9902V37.5602C75.08 37.295 74.9746 37.0406 74.7871 36.8531C74.5996 36.6655 74.3452 36.5602 74.08 36.5602H9.08C8.81478 36.5602 8.56043 36.6655 8.37289 36.8531C8.18536 37.0406 8.08 37.295 8.08 37.5602V70.0602C8.08 70.3254 8.18536 70.5797 8.37289 70.7673C8.56043 70.9548 8.81478 71.0602 9.08 71.0602H56.98C56.877 71.7656 56.8235 72.4773 56.82 73.1902C56.82 73.5902 56.82 73.9902 56.87 74.3902V74.7702C56.87 75.0402 56.93 75.3102 56.97 75.5802C57.01 75.8502 57.02 75.8702 57.04 76.0102C57.06 76.1502 57.14 76.5202 57.2 76.7802L57.29 77.1802C57.36 77.4702 57.45 77.7602 57.53 78.0402L57.62 78.3202C57.74 78.6902 57.88 79.0602 58.03 79.4202C58.03 79.5202 58.12 79.6202 58.17 79.7202C58.28 79.9802 58.4 80.2302 58.53 80.4902C58.66 80.7502 58.67 80.7502 58.74 80.8902C58.81 81.0302 58.86 81.1302 58.93 81.2502H6.25ZM24.35 52.8102H10.1V38.5602H24.35V52.8102ZM10.1 54.8102H24.35V69.0602H10.1V54.8102ZM40.6 52.8102H26.35V38.5602H40.6V52.8102ZM26.35 54.8102H40.6V69.0602H26.35V54.8102ZM73.1 52.8102H58.85V38.5602H73.1V52.8102ZM56.85 52.8102H42.6V38.5602H56.85V52.8102ZM42.6 54.8102H56.84V69.0602H42.6V54.8102ZM58.85 65.3502V54.8102H73.1V56.8702C72.67 56.8702 72.25 56.8702 71.83 56.9302H71.47C71.15 56.9302 70.84 56.9702 70.54 57.0502L70.11 57.1302C69.81 57.1302 69.51 57.2502 69.21 57.3302L68.86 57.4202C68.45 57.5302 68.05 57.6502 67.65 57.7902L67.51 57.8502C67.1567 57.9835 66.8233 58.1235 66.51 58.2702L66.14 58.4502C65.88 58.5702 65.62 58.7002 65.36 58.8502L65 59.0502C64.72 59.2102 64.45 59.3802 64.18 59.5602L63.92 59.7502C63.58 59.9802 63.24 60.2302 62.92 60.4902L62.72 60.7502C62.48 60.9502 62.25 61.1602 62.02 61.3802L61.71 61.6702L61.11 62.3002L60.84 62.6002C60.6 62.8802 60.36 63.1802 60.13 63.4802L60.06 63.5702C59.81 63.9102 59.58 64.2502 59.36 64.5702C59.29 64.6702 59.23 64.7902 59.16 64.9002C59.09 65.0102 58.93 65.1902 58.85 65.3502ZM73.16 87.5002C71.2483 87.5507 69.3458 87.2178 67.5649 86.5211C65.7839 85.8245 64.1605 84.7781 62.7905 83.4439C61.4205 82.1096 60.3316 80.5144 59.5882 78.7525C58.8447 76.9906 58.4616 75.0975 58.4616 73.1852C58.4616 71.2728 58.8447 69.3798 59.5882 67.6179C60.3316 65.8559 61.4205 64.2608 62.7905 62.9265C64.1605 61.5922 65.7839 60.5459 67.5649 59.8492C69.3458 59.1525 71.2483 58.8196 73.16 58.8702C73.46 58.8702 73.75 58.8702 74.03 58.8702C74.43 58.8702 74.83 58.9402 75.23 59.0002C77.5472 59.3321 79.7442 60.2398 81.62 61.6402C84.0511 63.4237 85.8563 65.9301 86.7775 68.8011C87.6988 71.6721 87.6889 74.7608 86.7494 77.6259C85.8099 80.491 83.9889 82.9858 81.5464 84.7538C79.104 86.5218 76.1652 87.4726 73.15 87.4702L73.16 87.5002Z" fill="black"/>
<path d="M80.0803 63.7501C78.2752 62.414 76.1218 61.629 73.8803 61.4901H73.1603C70.476 61.4987 67.8759 62.4277 65.7939 64.1221C63.7119 65.8164 62.2741 68.1736 61.7203 70.8001C61.5598 71.5866 61.4794 72.3874 61.4803 73.1901C61.4622 75.6747 62.248 78.0986 63.7203 80.1001C64.7249 81.4368 66.0048 82.5423 67.4735 83.3417C68.9422 84.1411 70.5654 84.6158 72.2334 84.7338C73.9013 84.8518 75.5752 84.6102 77.1418 84.0255C78.7084 83.4408 80.1311 82.5265 81.3139 81.3445C82.4966 80.1624 83.4118 78.7402 83.9975 77.174C84.5832 75.6078 84.8257 73.9341 84.7088 72.266C84.5918 70.598 84.1181 68.9745 83.3196 67.5053C82.5211 66.0361 81.4164 64.7555 80.0803 63.7501ZM73.1603 82.8701C71.6376 82.8617 70.1382 82.4952 68.7832 81.8004C67.4283 81.1055 66.2557 80.1018 65.3603 78.8701C64.1296 77.2135 63.4667 75.2038 63.4703 73.1401C63.4696 72.4684 63.5366 71.7984 63.6703 71.1401C64.1322 68.9636 65.3261 67.0112 67.0529 65.6082C68.7798 64.2053 70.9353 63.4365 73.1603 63.4301H73.7603C75.6155 63.5426 77.3979 64.1923 78.8903 65.3001C80.5337 66.5079 81.7536 68.2039 82.376 70.1461C82.9983 72.0882 82.9914 74.1774 82.3561 76.1154C81.7208 78.0534 80.4897 79.7412 78.8383 80.938C77.1869 82.1349 75.1998 82.7796 73.1603 82.7801V82.8701Z" fill="black"/>
<path d="M74.1602 64.6001H72.1602V72.9101C72.1597 73.0595 72.1926 73.2071 72.2567 73.3421C72.3207 73.4771 72.4141 73.596 72.5302 73.6901L76.6302 76.9601L77.8802 75.4001L74.1602 72.4001V64.6001Z" fill="black"/>
</svg>
