<svg width="92" height="95" viewBox="0 0 92 95" fill="none" xmlns="http://www.w3.org/2000/svg">
<path d="M81.5 9.3H77.2V8.3C77.2 3.7 73.5 0 68.9 0C64.3 0 60.6 3.7 60.6 8.3V9.3H54.1V8.3C54.1 3.7 50.4 0 45.8 0C41.2 0 37.5 3.7 37.5 8.3V9.3H31V8.3C31 3.7 27.3 0 22.7 0C18.1 0 14.4 3.7 14.4 8.3V9.3H10.1C4.5 9.3 0 13.8 0 19.4V84.9C0 90.5 4.5 95 10.1 95H81.3C86.9 95 91.4 90.5 91.4 84.9V19.5C91.6 13.9 87.1 9.3 81.5 9.3ZM65.9 8.4C65.9 6.7 67.3 5.4 68.9 5.4C70.5 5.4 71.9 6.8 71.9 8.4V15.6C71.9 17.3 70.5 18.6 68.9 18.6C67.3 18.6 65.9 17.2 65.9 15.6V8.4ZM42.9 8.4C42.9 6.7 44.3 5.4 45.9 5.4C47.6 5.4 48.9 6.8 48.9 8.4V15.6C48.9 17.3 47.5 18.6 45.9 18.6C44.2 18.6 42.9 17.2 42.9 15.6V8.4ZM19.8 8.4C19.8 6.7 21.2 5.4 22.8 5.4C24.5 5.4 25.8 6.8 25.8 8.4V15.6C25.8 17.3 24.4 18.6 22.8 18.6C21.1 18.6 19.8 17.2 19.8 15.6V8.4ZM86.4 85C86.4 87.7 84.2 89.9 81.5 89.9H10.3C7.6 89.9 5.4 87.7 5.4 85V32H86.3V85H86.4Z" fill="black"/>
<path d="M18.1996 57.7001H28.4996C29.8996 57.7001 31.0996 56.5001 31.0996 55.1001V44.7001C31.0996 43.3001 29.8996 42.1001 28.4996 42.1001H18.1996C16.7996 42.1001 15.5996 43.3001 15.5996 44.7001V55.1001C15.5996 56.5001 16.7996 57.7001 18.1996 57.7001Z" fill="black"/>
<path d="M40.8002 57.7001H51.1002C52.5002 57.7001 53.7002 56.5001 53.7002 55.1001V44.7001C53.7002 43.3001 52.5002 42.1001 51.1002 42.1001H40.8002C39.4002 42.1001 38.2002 43.3001 38.2002 44.7001V55.1001C38.1002 56.5001 39.3002 57.7001 40.8002 57.7001Z" fill="black"/>
<path d="M63.3002 57.7001H73.6002C75.0002 57.7001 76.2002 56.5001 76.2002 55.1001V44.7001C76.2002 43.3001 75.0002 42.1001 73.6002 42.1001H63.3002C61.9002 42.1001 60.7002 43.3001 60.7002 44.7001V55.1001C60.7002 56.5001 61.8002 57.7001 63.3002 57.7001Z" fill="black"/>
<path d="M18.1996 79.8998H28.4996C29.8996 79.8998 31.0996 78.6998 31.0996 77.2998V66.8998C31.0996 65.4998 29.8996 64.2998 28.4996 64.2998H18.1996C16.7996 64.2998 15.5996 65.4998 15.5996 66.8998V77.2998C15.5996 78.6998 16.7996 79.8998 18.1996 79.8998Z" fill="black"/>
<path d="M40.8002 79.8998H51.1002C52.5002 79.8998 53.7002 78.6998 53.7002 77.2998V66.8998C53.7002 65.4998 52.5002 64.2998 51.1002 64.2998H40.8002C39.4002 64.2998 38.2002 65.4998 38.2002 66.8998V77.2998C38.1002 78.6998 39.3002 79.8998 40.8002 79.8998Z" fill="black"/>
<path d="M63.3002 79.8998H73.6002C75.0002 79.8998 76.2002 78.6998 76.2002 77.2998V66.8998C76.2002 65.4998 75.0002 64.2998 73.6002 64.2998H63.3002C61.9002 64.2998 60.7002 65.4998 60.7002 66.8998V77.2998C60.7002 78.6998 61.8002 79.8998 63.3002 79.8998Z" fill="black"/>
</svg>
