<svg width="21" height="15" viewBox="0 0 21 15" fill="none" xmlns="http://www.w3.org/2000/svg">
<path d="M19.2006 6.85C19.2306 6.85 19.2606 6.84 19.3006 6.84C20.0606 6.68 21.0006 5.32 21.0006 3.97C21.0006 1.52 19.7506 0.43 18.5106 0.43H13.0706C12.9692 0.311264 12.8552 0.203959 12.7306 0.11C12.6468 0.0388187 12.5405 -0.000181793 12.4306 6.37114e-07H8.93055C8.83714 0.00117598 8.74583 0.0278877 8.6665 0.077243C8.58718 0.126598 8.52288 0.196715 8.48055 0.28C8.45799 0.327072 8.44443 0.377945 8.44055 0.43H2.99055C2.95691 0.428362 2.92321 0.431732 2.89055 0.44C2.10055 0.46 0.000554426 0.94 0.000554426 4.97C-0.0151108 5.97776 0.301574 6.96263 0.901667 7.77239C1.50176 8.58215 2.35185 9.17173 3.32055 9.45C3.363 9.46153 3.40661 9.46824 3.45055 9.47H9.43055C9.5812 9.69565 9.7749 9.88935 10.0006 10.04V13.97C10.0012 14.0598 10.0257 14.1477 10.0713 14.225C10.117 14.3023 10.1823 14.3661 10.2606 14.41C10.3343 14.4498 10.4168 14.4704 10.5006 14.47C10.5961 14.4682 10.6894 14.4405 10.7706 14.39L12.0406 13.57L13.2106 14.38C13.2961 14.4381 13.3971 14.4695 13.5006 14.47C13.5811 14.4703 13.6604 14.4496 13.7306 14.41C13.813 14.3703 13.8823 14.3077 13.9302 14.2297C13.9781 14.1517 14.0025 14.0615 14.0006 13.97V10.04C14.2262 9.88935 14.4199 9.69565 14.5706 9.47H18.9606C19.0811 9.46834 19.1972 9.42436 19.2886 9.34576C19.38 9.26715 19.4409 9.15893 19.4606 9.04C19.4754 8.91915 19.4461 8.797 19.3782 8.69598C19.3102 8.59495 19.2081 8.52182 19.0906 8.49C18.2098 8.21516 17.4596 7.62849 16.9806 6.84H19.1106C19.1398 6.84825 19.1702 6.85163 19.2006 6.85ZM12.2406 1C12.2906 1.05 12.3406 1.11 12.4106 1.19C12.416 1.19539 12.4195 1.20242 12.4206 1.21C12.453 1.24462 12.483 1.28137 12.5106 1.32C12.9679 1.95322 13.1745 2.73341 13.0906 3.51C12.7264 3.44174 12.3508 3.4693 12.0006 3.59C11.5844 3.44696 11.1348 3.43301 10.7106 3.55C10.6017 2.65147 10.3126 1.78416 9.86055 1H12.2406ZM8.95055 1.43C9.43427 2.2327 9.7093 3.14373 9.75055 4.08C9.40716 4.40004 9.17282 4.81975 9.08055 5.28C8.89527 5.43796 8.73952 5.62757 8.62055 5.84H5.23055C5.69009 5.2032 5.93206 4.43521 5.92055 3.65C5.92145 3.23812 5.83959 2.83026 5.67983 2.45062C5.52008 2.07098 5.28568 1.72731 4.99055 1.44L4.98055 1.43H8.95055ZM3.42055 5.83C3.24055 5.68 3.10055 5.15 3.19055 4.15L4.88055 4.14C4.84915 4.51365 4.71477 4.87128 4.49233 5.17315C4.2699 5.47502 3.96813 5.70932 3.62055 5.85C3.60055 5.85 3.59055 5.86 3.58055 5.86C3.55412 5.87245 3.52443 5.87626 3.4957 5.87087C3.46698 5.86549 3.44068 5.85119 3.42055 5.83ZM3.52055 8.47C2.78116 8.23326 2.13727 7.76544 1.68363 7.13539C1.22999 6.50533 0.990556 5.74631 1.00055 4.97C1.00055 2.75 1.74055 1.43 2.99055 1.43C3.48873 1.51325 3.9437 1.76366 4.28055 2.14C4.55905 2.41775 4.76211 2.76192 4.87055 3.14L2.74055 3.15C2.62023 3.14866 2.50366 3.19181 2.41322 3.27118C2.32278 3.35054 2.26485 3.46053 2.25055 3.58C2.04055 5.09 2.21055 6.1 2.75055 6.58C2.88505 6.70223 3.04734 6.78981 3.22335 6.83511C3.39935 6.88042 3.58375 6.8821 3.76055 6.84H8.33055C8.32227 6.87943 8.31891 6.91974 8.32055 6.96C8.31445 7.52071 8.52593 8.06196 8.91055 8.47H3.52055ZM13.0006 13.02L12.3806 12.6L12.3306 12.56C12.2894 12.5269 12.2417 12.5031 12.1906 12.49C12.0991 12.4633 12.002 12.4633 11.9106 12.49C11.8631 12.4996 11.8186 12.5201 11.7806 12.55L11.0006 13.05V10.43C11.3372 10.4714 11.6788 10.4372 12.0006 10.33C12.2325 10.4087 12.4756 10.4492 12.7206 10.45C12.8142 10.4483 12.9076 10.4416 13.0006 10.43V13.02ZM14.1606 7.97C14.1017 8.01137 14.0525 8.06495 14.0163 8.12708C13.98 8.18921 13.9576 8.25842 13.9506 8.33C13.9328 8.52576 13.8681 8.71434 13.7619 8.87974C13.6557 9.04513 13.5112 9.18244 13.3406 9.28C13.3306 9.29 13.3106 9.29 13.3006 9.3C13.2706 9.31 13.2506 9.33 13.2206 9.34C13.0611 9.4101 12.8886 9.44547 12.7145 9.44375C12.5403 9.44202 12.3686 9.40325 12.2106 9.33C12.0756 9.27664 11.9255 9.27664 11.7906 9.33C11.6326 9.40325 11.4608 9.44202 11.2866 9.44375C11.1125 9.44547 10.94 9.4101 10.7806 9.34C10.7506 9.33 10.7306 9.31 10.7006 9.3C10.6906 9.29 10.6706 9.29 10.6606 9.28C10.4526 9.16249 10.2853 8.98466 10.1806 8.77C10.1028 8.63214 10.0583 8.47807 10.0506 8.32C10.0421 8.25017 10.0191 8.18291 9.98289 8.1226C9.94671 8.06229 9.89821 8.01029 9.84055 7.97C9.67979 7.85515 9.54875 7.7036 9.45831 7.52794C9.36787 7.35228 9.32065 7.15757 9.32055 6.96C9.31949 6.76222 9.36621 6.5671 9.45674 6.39126C9.54728 6.21541 9.67895 6.06403 9.84055 5.95C9.89939 5.90863 9.94861 5.85505 9.98485 5.79292C10.0211 5.7308 10.0435 5.66158 10.0506 5.59C10.0655 5.41113 10.1209 5.23801 10.2128 5.08379C10.3046 4.92958 10.4304 4.79832 10.5806 4.7C10.6027 4.67463 10.63 4.65419 10.6606 4.64C10.8309 4.54191 11.0221 4.48536 11.2184 4.47493C11.4147 4.46451 11.6107 4.5005 11.7906 4.58C11.9277 4.62 12.0734 4.62 12.2106 4.58C12.3717 4.50986 12.5459 4.4745 12.7216 4.47622C12.8974 4.47795 13.0708 4.51671 13.2306 4.59L13.2406 4.6C13.2772 4.60269 13.3122 4.61666 13.3406 4.64C13.5112 4.73756 13.6557 4.87487 13.7619 5.04026C13.8681 5.20566 13.9328 5.39424 13.9506 5.59C13.9576 5.66158 13.98 5.7308 14.0163 5.79292C14.0525 5.85505 14.1017 5.90863 14.1606 5.95C14.3642 6.09267 14.518 6.29548 14.6006 6.53C14.618 6.558 14.6315 6.58829 14.6406 6.62C14.6643 6.73186 14.6777 6.84568 14.6806 6.96C14.6805 7.15757 14.6332 7.35228 14.5428 7.52794C14.4524 7.7036 14.3213 7.85515 14.1606 7.97ZM17.0506 8.47H15.0906C15.4752 8.06196 15.6867 7.52071 15.6806 6.96V6.84H15.8706C16.1329 7.46706 16.5368 8.02494 17.0506 8.47ZM15.3806 5.84C15.2592 5.62626 15.1038 5.43374 14.9206 5.27C14.8154 4.72199 14.504 4.23521 14.0506 3.91C14.195 3.069 14.0799 2.20395 13.7206 1.43H18.5106C19.4006 1.43 20.0006 2.45 20.0006 3.97C19.9976 4.3248 19.9195 4.67494 19.7712 4.99729C19.623 5.31964 19.408 5.60687 19.1406 5.84H15.3806ZM12.0006 5.416C11.6954 5.416 11.3971 5.5065 11.1433 5.67604C10.8896 5.84559 10.6918 6.08657 10.575 6.36852C10.4582 6.65047 10.4277 6.96071 10.4872 7.26003C10.5467 7.55934 10.6937 7.83427 10.9095 8.05007C11.1253 8.26586 11.4002 8.41282 11.6995 8.47235C11.9988 8.53189 12.3091 8.50133 12.591 8.38455C12.873 8.26776 13.114 8.06999 13.2835 7.81625C13.4531 7.5625 13.5436 7.26418 13.5436 6.959C13.543 6.54993 13.3803 6.15777 13.091 5.86852C12.8018 5.57926 12.4096 5.41653 12.0006 5.416ZM12.0006 7.502C11.8932 7.502 11.7882 7.47015 11.6989 7.41049C11.6096 7.35082 11.54 7.26602 11.4989 7.1668C11.4578 7.06758 11.447 6.9584 11.468 6.85307C11.4889 6.74773 11.5407 6.65098 11.6166 6.57504C11.6925 6.4991 11.7893 6.44739 11.8946 6.42643C12 6.40548 12.1091 6.41624 12.2084 6.45733C12.3076 6.49843 12.3924 6.56803 12.452 6.65733C12.5117 6.74662 12.5436 6.85161 12.5436 6.959C12.5433 7.10293 12.486 7.24089 12.3842 7.34267C12.2824 7.44444 12.1445 7.50174 12.0006 7.502Z" fill="black"/>
</svg>
