<svg width="8" height="10" viewBox="0 0 8 10" fill="none" xmlns="http://www.w3.org/2000/svg">
<path d="M6.31611 3.20455L6.07483 8.99542C6.07302 9.03867 6.0309 9.07898 5.98599 9.07898H1.64544C1.6014 9.07898 1.55837 9.03778 1.5566 8.99542L1.31531 3.20455C1.30473 2.95042 1.09014 2.753 0.836015 2.76359C0.581894 2.77418 0.384472 2.98877 0.39506 3.24289L0.636346 9.03376C0.658683 9.56983 1.108 10 1.64544 10H5.98599C6.52422 10 6.9727 9.57081 6.99508 9.03376L7.23637 3.24289C7.24696 2.98877 7.04953 2.77418 6.79541 2.76359C6.54129 2.753 6.3267 2.95042 6.31611 3.20455Z" fill="black"/>
<path d="M3.48682 3.6185V8.09218C3.48682 8.27386 3.63409 8.42113 3.81576 8.42113C3.99744 8.42113 4.14471 8.27386 4.14471 8.09218V3.6185C4.14471 3.43683 3.99744 3.28955 3.81576 3.28955C3.63409 3.28955 3.48682 3.43683 3.48682 3.6185Z" fill="black"/>
<path d="M1.97378 3.62817L2.10536 8.10186C2.1107 8.28345 2.26224 8.42633 2.44383 8.42099C2.62543 8.41565 2.76831 8.26411 2.76297 8.08251L2.63139 3.60883C2.62605 3.42724 2.47451 3.28435 2.29291 3.2897C2.11132 3.29504 1.96844 3.44658 1.97378 3.62817Z" fill="black"/>
<path d="M5.00013 3.60883L4.86855 8.08251C4.86321 8.26411 5.00609 8.41565 5.18769 8.42099C5.36928 8.42633 5.52082 8.28345 5.52616 8.10186L5.65774 3.62817C5.66308 3.44658 5.5202 3.29504 5.33861 3.2897C5.15701 3.28435 5.00547 3.42724 5.00013 3.60883Z" fill="black"/>
<path d="M0.460526 2.30264H7.03947C7.29382 2.30264 7.5 2.09646 7.5 1.84212C7.5 1.58778 7.29382 1.38159 7.03947 1.38159H0.460526C0.206185 1.38159 0 1.58778 0 1.84212C0 2.09646 0.206185 2.30264 0.460526 2.30264Z" fill="black"/>
<path d="M2.88098 1.62485L3.01641 1.08312C3.03573 1.00584 3.14419 0.921053 3.22318 0.921053H4.27681C4.35592 0.921053 4.46421 1.00567 4.48357 1.08312L4.61901 1.62485L5.51256 1.40146L5.37712 0.859731C5.2553 0.372419 4.77873 0 4.27681 0H3.22318C2.72131 0 2.24463 0.372658 2.12286 0.859731L1.98743 1.40146L2.88098 1.62485Z" fill="black"/>
</svg>
