<svg width="65" height="62" viewBox="0 0 65 62" fill="none" xmlns="http://www.w3.org/2000/svg">
<path d="M21.31 26.331L46.44 20.981C46.7362 20.918 47.0419 20.9141 47.3395 20.9696C47.6372 21.025 47.921 21.1387 48.1747 21.304C48.4283 21.4694 48.6468 21.6833 48.8176 21.9333C48.9884 22.1833 49.1082 22.4646 49.17 22.761L52 35.851C52.0631 36.1478 52.0671 36.4541 52.0118 36.7524C51.9565 37.0508 51.8429 37.3353 51.6776 37.5897C51.5123 37.8442 51.2985 38.0636 51.0484 38.2354C50.7983 38.4072 50.5168 38.528 50.22 38.591L25.06 43.941L21.31 26.331ZM62.42 45.961L28 53.341C27.942 54.7443 27.5155 56.1075 26.7636 57.2937C26.0116 58.4799 24.9606 59.4472 23.7162 60.0984C22.4719 60.7496 21.078 61.0618 19.6748 61.0035C18.2715 60.9452 16.9084 60.5185 15.7223 59.7663C14.5362 59.0141 13.5691 57.963 12.9181 56.7185C12.2671 55.474 11.9552 54.0801 12.0138 52.6769C12.0723 51.2736 12.4993 49.9105 13.2517 48.7246C14.0041 47.5387 15.0554 46.5718 16.3 45.921L6.42 4.001H2C1.46957 4.001 0.960859 3.79029 0.585786 3.41521C0.210714 3.04014 0 2.53143 0 2.001C0 1.47057 0.210714 0.96186 0.585786 0.586787C0.960859 0.211715 1.46957 0.001001 2 0.001001H8C8.45418 -0.0133698 8.89972 0.127354 9.26325 0.400001C9.62678 0.672647 9.88662 1.06096 10 1.501L20.17 45.011C21.6279 45.0383 23.0506 45.4636 24.2843 46.2409C25.5181 47.0181 26.5159 48.1178 27.17 49.421L61.6 42.041C62.1198 41.9296 62.6626 42.0293 63.1089 42.3181C63.5553 42.6069 63.8686 43.0612 63.98 43.581C64.0914 44.1008 63.9917 44.6436 63.7029 45.0899C63.4141 45.5363 62.9598 45.8496 62.44 45.961H62.42ZM23 53.001C23 52.4077 22.8241 51.8276 22.4944 51.3343C22.1648 50.8409 21.6962 50.4564 21.1481 50.2294C20.5999 50.0023 19.9967 49.9429 19.4147 50.0586C18.8328 50.1744 18.2982 50.4601 17.8787 50.8797C17.4591 51.2992 17.1734 51.8338 17.0576 52.4157C16.9419 52.9977 17.0013 53.6009 17.2284 54.149C17.4554 54.6972 17.8399 55.1658 18.3333 55.4954C18.8266 55.8251 19.4067 56.001 20 56.001C20.7956 56.001 21.5587 55.6849 22.1213 55.1223C22.6839 54.5597 23 53.7966 23 53.001ZM20.89 24.381L36.67 21.021C37.1542 20.9154 37.577 20.623 37.8467 20.2072C38.1164 19.7915 38.211 19.2861 38.11 18.801L35.55 6.801C35.4989 6.56061 35.401 6.33265 35.2617 6.13015C35.1225 5.92765 34.9447 5.75458 34.7385 5.62084C34.5323 5.4871 34.3018 5.39532 34.0601 5.35073C33.8184 5.30615 33.5703 5.30964 33.33 5.361L19.39 8.361C18.918 8.4754 18.509 8.76895 18.2495 9.17956C17.9901 9.59016 17.9006 10.0856 18 10.561L20.89 24.381Z" fill="black"/>
</svg>
