<svg width="91" height="49" viewBox="0 0 91 49" fill="none" xmlns="http://www.w3.org/2000/svg">
<path d="M2.70968 0.00407137C2.13784 0.0597234 1.59401 0.278394 1.14281 0.634091C0.691621 0.989789 0.352045 1.46755 0.164446 2.0106C-0.0231525 2.55365 -0.0508846 3.13915 0.0845466 3.6975C0.219978 4.25585 0.512877 4.76357 0.92843 5.16032L42.9284 47.1603C43.2072 47.44 43.5383 47.6618 43.903 47.8132C44.2676 47.9646 44.6586 48.0426 45.0534 48.0426C45.4483 48.0426 45.8392 47.9646 46.2039 47.8132C46.5685 47.6618 46.8997 47.44 47.1784 47.1603L89.1784 5.16032C89.742 4.59674 90.0586 3.83235 90.0586 3.03532C90.0586 2.23829 89.742 1.47391 89.1784 0.910321C88.6148 0.346736 87.8505 0.0301181 87.0534 0.0301181C86.2564 0.0301181 85.492 0.346736 84.9284 0.910321L45.0534 40.7853L5.17843 0.910321C4.89801 0.622584 4.56265 0.3941 4.19225 0.238425C3.82185 0.0827508 3.42396 0.00305667 3.02218 0.00407137C2.91808 -0.00135712 2.81378 -0.00135712 2.70968 0.00407137Z" fill="black"/>
</svg>
