<svg width="28" height="28" viewBox="0 0 28 28" fill="none" xmlns="http://www.w3.org/2000/svg">
<path d="M4.82034 2.65894H17.751C18.0162 2.65894 18.2706 2.55358 18.4581 2.36604C18.6456 2.17851 18.751 1.92415 18.751 1.65894C18.751 1.39372 18.6456 1.13937 18.4581 0.951829C18.2706 0.764292 18.0162 0.658936 17.751 0.658936H4.82034C3.54235 0.660365 2.31711 1.16868 1.41343 2.07235C0.509755 2.97602 0.00143722 4.20126 0 5.47925V22.9782C0.00143456 24.2562 0.509749 25.4815 1.41342 26.3851C2.3171 27.2888 3.54233 27.7971 4.82032 27.7986H22.3193C23.5973 27.7972 24.8226 27.2889 25.7263 26.3852C26.63 25.4815 27.1383 24.2563 27.1396 22.9782V10.2175C27.1396 9.95231 27.0343 9.69796 26.8467 9.51042C26.6592 9.32288 26.4048 9.21753 26.1396 9.21753C25.8744 9.21753 25.6201 9.32288 25.4325 9.51042C25.245 9.69796 25.1396 9.95231 25.1396 10.2175V22.9783C25.1386 23.726 24.8412 24.4427 24.3125 24.9714C23.7838 25.5001 23.067 25.7976 22.3193 25.7986H4.82034C4.07262 25.7977 3.35579 25.5002 2.82707 24.9715C2.29835 24.4428 2.00091 23.726 2 22.9783V5.47925C2.00091 4.73153 2.29835 4.0147 2.82707 3.48598C3.35579 2.95727 4.07262 2.65984 4.82034 2.65894Z" fill="black"/>
<path d="M22.5109 0.907521L21.4409 1.98752L22.8609 3.40752L24.5709 5.11752L25.9909 6.53752L27.0609 5.45752C27.6614 4.85264 27.9984 4.03487 27.9984 3.18252C27.9984 2.33018 27.6614 1.5124 27.0609 0.907521C26.4468 0.324832 25.6325 0 24.7859 0C23.9393 0 23.125 0.324832 22.5109 0.907521Z" fill="black"/>
<path d="M21.451 4.81746L20.031 3.39746L12.601 10.8175C12.4673 10.9566 12.374 11.1294 12.331 11.3175L11.491 15.2875C11.4588 15.4336 11.4599 15.585 11.4943 15.7306C11.5287 15.8762 11.5955 16.0122 11.6896 16.1284C11.7838 16.2447 11.9029 16.3382 12.0382 16.4021C12.1734 16.466 12.3214 16.4986 12.471 16.4975C12.5413 16.4957 12.6115 16.489 12.681 16.4775L16.651 15.6375C16.839 15.5944 17.0118 15.5011 17.151 15.3675L24.581 7.94746L23.161 6.52746L21.451 4.81746Z" fill="black"/>
</svg>
