<svg width="94" height="60" viewBox="0 0 94 60" fill="none" xmlns="http://www.w3.org/2000/svg">
<path fill-rule="evenodd" clip-rule="evenodd" d="M76.1729 32.437V49.378C76.1729 57.9171 54.8919 60.007 47.0009 60.007C39.1099 60.007 17.8289 57.9172 17.8289 49.378V32.437L43.6099 43.437C45.774 44.3785 48.2271 44.3785 50.3911 43.437L76.1729 32.437ZM87.8839 24.8862L92.7355 22.8276H92.7316C93.5089 22.5034 94.0128 21.7417 94.0011 20.8979C94.0128 20.0659 93.505 19.312 92.7316 19.0073L49.4616 0.52734C47.8952 -0.17578 46.1061 -0.17578 44.5397 0.52734L1.2697 19.0073C0.49626 19.312 -0.0114999 20.0659 0.000200116 20.8979C-0.0115189 21.7417 0.49239 22.5034 1.2697 22.8276L44.5397 41.2686C46.1061 41.9718 47.8952 41.9718 49.4616 41.2686L85.5316 25.8976V40.0066C84.6332 40.452 84.0628 41.366 84.0589 42.366V49.5066C84.0667 50.2606 84.6761 50.8699 85.43 50.8777H88.0003C88.7542 50.8699 89.3636 50.2606 89.3714 49.5066V42.3972C89.3753 41.3777 88.7972 40.448 87.8792 40.0066L87.8839 24.8862Z" fill="black"/>
</svg>
