<svg width="86" height="75" viewBox="0 0 86 75" fill="none" xmlns="http://www.w3.org/2000/svg">
<path d="M27.0809 1.05127C21.0339 6.35427 25.7989 13.3193 25.7989 13.3193C30.0129 19.2553 27.1419 19.5713 25.3699 24.6353C25.3699 24.6353 26.2659 21.1583 25.1569 17.7503C24.4029 15.4323 21.4509 12.1683 21.1469 10.7323C20.2969 6.70527 22.1129 2.69127 27.0809 1.05127Z" fill="black"/>
<path d="M25.7239 24.7592L25.0069 24.5412C25.0159 24.5082 25.8609 21.1252 24.8009 17.8662C24.4219 16.6992 23.4239 15.2272 22.5429 13.9282C21.6829 12.6592 20.9399 11.5632 20.7809 10.8092C19.8129 6.22521 22.2389 2.25421 26.9639 0.694211L28.7159 0.116211L27.3279 1.33321C21.5979 6.35821 26.0619 13.0402 26.1079 13.1062C29.3319 17.6472 28.5269 19.1272 27.1929 21.5822C26.7219 22.4522 26.1849 23.4382 25.7239 24.7592ZM25.5499 2.10021C22.2669 3.82421 20.7369 6.97421 21.5139 10.6552C21.6429 11.2642 22.3819 12.3542 23.1639 13.5082C24.0719 14.8482 25.1019 16.3662 25.5139 17.6342C26.0299 19.2212 26.1279 20.8082 26.0789 22.0782C26.2349 21.7782 26.3879 21.4962 26.5359 21.2242C27.8099 18.8772 28.4509 17.7002 25.4939 13.5352C25.4439 13.4642 21.3469 7.33321 25.5499 2.10021Z" fill="black"/>
<path d="M65.836 0.935059C59.79 6.23806 64.554 13.2011 64.554 13.2011C68.769 19.1371 65.897 19.4551 64.126 24.5191C64.126 24.5191 65.021 21.0401 63.912 17.6341C63.159 15.3161 60.206 12.0521 59.902 10.6141C59.052 6.58806 60.868 2.57606 65.836 0.935059Z" fill="black"/>
<path d="M64.48 24.643L63.763 24.426C63.772 24.392 64.616 21.007 63.556 17.75C63.177 16.583 62.18 15.111 61.299 13.813C60.439 12.542 59.695 11.446 59.536 10.691C58.568 6.108 60.994 2.138 65.719 0.578L67.471 0L66.084 1.217C60.355 6.242 64.818 12.922 64.864 12.988C68.088 17.528 67.283 19.01 65.95 21.466C65.477 22.337 64.941 23.323 64.48 24.643ZM64.305 1.985C61.021 3.708 59.492 6.858 60.269 10.538C60.398 11.148 61.137 12.239 61.92 13.393C62.828 14.733 63.857 16.251 64.269 17.518C64.785 19.105 64.884 20.692 64.834 21.962C64.99 21.662 65.143 21.38 65.291 21.108C66.566 18.759 67.206 17.582 64.249 13.417C64.199 13.346 60.102 7.217 64.305 1.985Z" fill="black"/>
<path d="M77.417 16.4106C72.938 20.9596 76.467 26.9306 76.467 26.9306C79.589 32.0146 77.462 32.2876 76.15 36.6316C76.15 36.6316 76.814 33.6496 75.993 30.7276C75.435 28.7436 73.25 25.9426 73.024 24.7116C72.393 21.2586 73.737 17.8206 77.417 16.4106Z" fill="black"/>
<path d="M76.508 36.7394L75.783 36.5504C75.789 36.5214 76.416 33.6204 75.631 30.8284C75.351 29.8334 74.614 28.5734 73.964 27.4624C73.325 26.3704 72.774 25.4284 72.655 24.7784C71.935 20.8354 73.752 17.4134 77.283 16.0594L78.897 15.4414L77.684 16.6724C73.465 20.9574 76.652 26.5044 76.79 26.7384C79.183 30.6344 78.585 31.9084 77.596 34.0174C77.246 34.7634 76.85 35.6084 76.508 36.7394ZM76.024 17.5504C73.479 19.2844 72.951 22.2254 73.392 24.6444C73.487 25.1644 74.033 26.0964 74.61 27.0834C75.283 28.2334 76.047 29.5374 76.352 30.6254C76.684 31.8074 76.783 32.9884 76.779 33.9924C76.825 33.8934 76.871 33.7964 76.916 33.7004C77.858 31.6914 78.331 30.6834 76.146 27.1264C76.111 27.0644 73.184 21.9944 76.024 17.5504Z" fill="black"/>
<path d="M13.3069 17.0918C8.97988 21.4868 12.3899 27.2558 12.3899 27.2558C15.4069 32.1698 13.3519 32.4318 12.0829 36.6308C12.0829 36.6308 12.7249 33.7478 11.9309 30.9258C11.3929 29.0078 9.28088 26.3008 9.06188 25.1128C8.45288 21.7748 9.75188 18.4528 13.3069 17.0918Z" fill="black"/>
<path d="M12.4418 36.739L11.7168 36.55C11.7228 36.522 12.3268 33.721 11.5698 31.028C11.2998 30.066 10.5868 28.848 9.95782 27.773C9.34082 26.719 8.80882 25.81 8.69282 25.182C7.99682 21.363 9.75582 18.05 13.1728 16.742L14.7868 16.125L13.5748 17.355C9.50582 21.488 12.5798 26.84 12.7138 27.066C15.0288 30.837 14.4508 32.07 13.4938 34.111C13.1548 34.831 12.7718 35.647 12.4418 36.739ZM11.9178 18.238C9.50782 19.914 9.00782 22.728 9.43082 25.046C9.52182 25.544 10.0478 26.442 10.6048 27.394C11.2568 28.508 11.9958 29.77 12.2918 30.825C12.6068 31.945 12.7048 33.066 12.7058 34.025C12.7428 33.946 12.7788 33.869 12.8138 33.793C13.7218 31.857 14.1778 30.886 12.0698 27.453C12.0348 27.393 9.22582 22.525 11.9178 18.238Z" fill="black"/>
<path d="M82.9048 66.496H2.82983C2.82983 47.797 18.9698 32.435 39.5018 30.928C40.6168 30.826 41.7318 30.791 42.8728 30.791C44.0018 30.791 45.1308 30.826 46.2318 30.928C66.7788 32.435 82.9048 47.797 82.9048 66.496Z" fill="black"/>
<path d="M46.6209 32.4664L46.1869 32.4264C45.2049 32.3354 44.1209 32.2914 42.8739 32.2914C41.6139 32.2914 40.5569 32.3344 39.5479 32.4264L39.1149 32.4654L39.0159 32.0424C38.9189 31.6274 38.8699 31.1754 38.8699 30.6954C38.8699 27.9244 40.6659 25.6704 42.8739 25.6704C45.0749 25.6704 46.8659 27.9244 46.8659 30.6954C46.8659 31.1744 46.8169 31.6274 46.7199 32.0424L46.6209 32.4664ZM42.8739 26.6704C41.2179 26.6704 39.8699 28.4764 39.8699 30.6954C39.8699 30.9374 39.8849 31.1714 39.9129 31.3914C40.8159 31.3234 41.7689 31.2904 42.8729 31.2904C43.9619 31.2904 44.9319 31.3234 45.8219 31.3914C45.8509 31.1704 45.8649 30.9374 45.8649 30.6954C45.8659 28.4754 44.5239 26.6704 42.8739 26.6704Z" fill="black"/>
<path d="M85.235 71.3751C85.235 72.7621 84.37 73.8831 83.303 73.8831H2.432C1.366 73.8831 0.5 72.7621 0.5 71.3751C0.5 69.9921 1.365 68.8711 2.432 68.8711H83.303C84.37 68.8711 85.235 69.9921 85.235 71.3751Z" fill="black"/>
<path d="M83.304 74.3831H2.432C1.091 74.3831 0 73.0331 0 71.3751C0 69.7191 1.091 68.3711 2.432 68.3711H83.303C84.644 68.3711 85.735 69.7191 85.735 71.3751C85.735 73.0331 84.644 74.3831 83.304 74.3831ZM2.432 69.3711C1.656 69.3711 1 70.2891 1 71.3751C1 72.4631 1.656 73.3831 2.432 73.3831H83.303C84.079 73.3831 84.735 72.4631 84.735 71.3751C84.735 70.2891 84.079 69.3711 83.303 69.3711H2.432Z" fill="black"/>
<path d="M42.8678 26.388C43.3715 26.388 43.7798 25.9466 43.7798 25.402C43.7798 24.8575 43.3715 24.416 42.8678 24.416C42.3641 24.416 41.9558 24.8575 41.9558 25.402C41.9558 25.9466 42.3641 26.388 42.8678 26.388Z" fill="black"/>
</svg>
