<svg width="64" height="60" viewBox="0 0 64 60" fill="none" xmlns="http://www.w3.org/2000/svg">
<path d="M4 59.0232H59.998C62.204 59.0232 63.998 57.2292 63.998 55.0232V54.0232C63.998 53.4702 63.551 53.0232 62.998 53.0232H61.998V48.0332C61.997 32.6182 50.309 19.8882 35.331 18.2262C35.751 17.5932 35.998 16.8362 35.998 16.0212C35.998 13.8152 34.204 12.0212 31.998 12.0212C29.792 12.0212 27.998 13.8152 27.998 16.0212C27.998 16.8362 28.245 17.5932 28.666 18.2262C13.689 19.8912 2.003 32.6192 2.002 48.0322V53.0222H1.002H1.001C0.448 53.0222 0 53.4692 0 54.0222V55.0222C0 57.2292 1.794 59.0232 4 59.0232ZM31.998 14.0212C33.101 14.0212 33.998 14.9182 33.998 16.0212C33.998 17.1242 33.101 18.0212 31.998 18.0212C30.895 18.0212 29.998 17.1242 29.998 16.0212C29.998 14.9182 30.895 14.0212 31.998 14.0212ZM4.002 48.0342C4.002 32.5962 16.562 20.0362 32 20.0362C47.438 20.0362 59.998 32.5962 59.998 48.0342V53.0222H4.002V48.0342ZM61.998 55.0232C61.998 56.1262 61.101 57.0232 59.998 57.0232H4C2.897 57.0232 2 56.1262 2 55.0232H61.998Z" fill="black"/>
<path d="M31.9858 22.0212C31.4328 22.0212 30.9858 22.4682 30.9858 23.0212C30.9858 23.5742 31.4328 24.0212 31.9858 24.0212C45.2258 24.0212 55.9978 34.7922 55.9978 48.0332C55.9978 48.5862 56.4448 49.0332 56.9978 49.0332C57.5508 49.0332 57.9978 48.5862 57.9978 48.0332C57.9978 33.6902 46.3288 22.0212 31.9858 22.0212Z" fill="black"/>
<path d="M17.284 15.7372C17.48 15.9402 17.742 16.0431 18.004 16.0431C18.254 16.0431 18.505 15.9502 18.698 15.7632C19.952 14.5522 21.59 11.2532 18.812 7.43415C16.429 4.15815 18.455 1.96315 18.702 1.71615C19.096 1.33115 19.105 0.70115 18.723 0.30615C18.34 -0.0898499 17.705 -0.10285 17.309 0.28115C16.055 1.49215 14.417 4.79115 17.195 8.61015C19.583 11.8932 17.544 14.0892 17.309 14.3242C16.912 14.7062 16.901 15.3392 17.284 15.7372Z" fill="black"/>
<path d="M45.2488 15.7372C45.4448 15.9402 45.7068 16.0431 45.9688 16.0431C46.2188 16.0431 46.4698 15.9502 46.6628 15.7632C47.9168 14.5522 49.5548 11.2532 46.7768 7.43415C44.3938 4.15815 46.4198 1.96315 46.6668 1.71615C47.0608 1.33115 47.0698 0.70115 46.6878 0.30615C46.3048 -0.0898499 45.6698 -0.10285 45.2738 0.28115C44.0198 1.49215 42.3818 4.79115 45.1598 8.61015C47.5478 11.8932 45.5088 14.0892 45.2738 14.3242C44.8768 14.7062 44.8658 15.3392 45.2488 15.7372Z" fill="black"/>
<path d="M32.7201 0.305173C32.3371 -0.0908265 31.7021 -0.103826 31.3061 0.280174C30.0521 1.49117 28.4141 4.79017 31.1921 8.60917C31.3871 8.87917 31.6921 9.02117 32.0021 9.02117C32.2061 9.02117 32.4111 8.95817 32.5891 8.83017C33.0361 8.50617 33.1351 7.88017 32.8101 7.43417C30.4261 4.15617 32.4561 1.96017 32.7011 1.71517C33.0921 1.33017 33.1021 0.700173 32.7201 0.305173Z" fill="black"/>
</svg>
