<svg width="36" height="54" viewBox="0 0 36 54" fill="none" xmlns="http://www.w3.org/2000/svg">
<path d="M5 54H31C32.2376 54.0006 33.4312 53.5416 34.3495 52.712C35.2678 51.8823 35.8453 50.7413 35.97 49.51C35.99 49.3407 36 49.1704 36 49V5C36 3.67392 35.4732 2.40215 34.5355 1.46447C33.5979 0.526784 32.3261 0 31 0H5C3.67392 0 2.40215 0.526784 1.46447 1.46447C0.526784 2.40215 0 3.67392 0 5V49C2.52888e-05 49.1704 0.0100422 49.3407 0.0299997 49.51C0.154672 50.7413 0.732158 51.8823 1.65046 52.712C2.56877 53.5416 3.76244 54.0006 5 54ZM16 49C16 48.6044 16.1173 48.2178 16.3371 47.8889C16.5568 47.56 16.8692 47.3036 17.2346 47.1522C17.6001 47.0009 18.0022 46.9613 18.3902 47.0384C18.7781 47.1156 19.1345 47.3061 19.4142 47.5858C19.6939 47.8655 19.8844 48.2219 19.9616 48.6098C20.0387 48.9978 19.9991 49.3999 19.8478 49.7654C19.6964 50.1308 19.44 50.4432 19.1111 50.6629C18.7822 50.8827 18.3956 51 18 51C17.4701 50.9984 16.9623 50.7872 16.5875 50.4125C16.2128 50.0377 16.0016 49.5299 16 49ZM5 2H8.03L9.33 4.39C9.76092 5.18051 10.3971 5.84018 11.1714 6.29951C11.9458 6.75884 12.8297 7.00083 13.73 7H22.27C23.1703 7.00083 24.0542 6.75884 24.8286 6.29951C25.6029 5.84018 26.2391 5.18051 26.67 4.39L27.97 2H31C31.7949 2.00237 32.5566 2.31921 33.1187 2.8813C33.6808 3.4434 33.9976 4.20508 34 5V44H2V5C2.00237 4.20508 2.31921 3.4434 2.8813 2.8813C3.4434 2.31921 4.20508 2.00237 5 2Z" fill="black"/>
<path d="M10 33.4728V35.9998C10 36.7955 10.3161 37.5585 10.8787 38.1212C11.4413 38.6838 12.2044 38.9998 13 38.9998H23C23.7956 38.9998 24.5587 38.6838 25.1213 38.1212C25.6839 37.5585 26 36.7955 26 35.9998V33.4728C27.8507 32.1856 29.3628 30.4701 30.4075 28.4724C31.4522 26.4748 31.9986 24.2542 32 21.9998C32 21.7346 31.8946 21.4803 31.7071 21.2927C31.5196 21.1052 31.2652 20.9998 31 20.9998H30.949C30.732 18.8655 29.8343 16.8574 28.3885 15.2724C26.9427 13.6873 25.0254 12.6093 22.9199 12.1974C20.8145 11.7856 18.6323 12.0618 16.6959 12.9853C14.7594 13.9088 13.1713 15.4305 12.166 17.3258L10.983 10.8208C10.9264 10.569 10.7746 10.3488 10.5594 10.2062C10.3441 10.0637 10.0821 10.01 9.82817 10.0562C9.57421 10.1025 9.34796 10.2451 9.19678 10.4544C9.04559 10.6636 8.98117 10.9232 9.017 11.1788L10.617 19.9788L6.77 15.3608C6.6 15.1569 6.35594 15.0288 6.09151 15.0048C5.82708 14.9808 5.56395 15.0628 5.36 15.2328C5.15605 15.4028 5.02798 15.6469 5.00398 15.9113C4.97997 16.1758 5.062 16.4389 5.232 16.6428L8.864 20.9998H5C4.73478 20.9998 4.48043 21.1052 4.29289 21.2927C4.10536 21.4803 4 21.7346 4 21.9998C4.00142 24.2542 4.54776 26.4748 5.59247 28.4724C6.63718 30.4701 8.1493 32.1856 10 33.4728ZM19.278 20.9998C19.4514 20.6962 19.702 20.4438 20.0044 20.2682C20.3069 20.0927 20.6503 20.0002 21 20.0002C21.3497 20.0002 21.6931 20.0927 21.9956 20.2682C22.298 20.4438 22.5486 20.6962 22.722 20.9998H19.278ZM24.858 20.9998C24.6397 20.1423 24.1419 19.3818 23.4433 18.8387C22.7446 18.2956 21.8849 18.0008 21 18.0008C20.1151 18.0008 19.2554 18.2956 18.5567 18.8387C17.8581 19.3818 17.3603 20.1423 17.142 20.9998H16.1C16.3295 19.8695 16.9427 18.8534 17.8357 18.1235C18.7288 17.3936 19.8466 16.9948 21 16.9948C22.1534 16.9948 23.2712 17.3936 24.1643 18.1235C25.0573 18.8534 25.6705 19.8695 25.9 20.9998H24.858ZM21 13.9998C22.9478 14.0027 24.828 14.7148 26.2889 16.0031C27.7498 17.2914 28.6915 19.0677 28.938 20.9998H27.92C27.6809 19.335 26.8496 17.8121 25.5786 16.7106C24.3075 15.609 22.6819 15.0027 21 15.0027C19.3181 15.0027 17.6925 15.609 16.4214 16.7106C15.1504 17.8121 14.3191 19.335 14.08 20.9998H13.062C13.3085 19.0677 14.2502 17.2914 15.7111 16.0031C17.172 14.7148 19.0522 14.0027 21 13.9998Z" fill="black"/>
</svg>
