<svg width="36" height="40" viewBox="0 0 36 40" fill="none" xmlns="http://www.w3.org/2000/svg">
<path d="M34.037 10.9651L21.037 1.02413C19.248 -0.340875 16.752 -0.341875 14.963 1.02413L1.963 10.9641C0.734 11.9031 0 13.3891 0 14.9371V34.9601C0 37.7171 2.243 39.9601 5 39.9601H31C33.757 39.9601 36 37.7171 36 34.9601V14.9371C36 13.3891 35.267 11.9041 34.037 10.9651ZM26 32.9601H10C8.895 32.9601 8 32.0651 8 30.9601C8 29.8551 8.895 28.9601 10 28.9601H26C27.105 28.9601 28 29.8551 28 30.9601C28 32.0651 27.105 32.9601 26 32.9601Z" fill="black"/>
</svg>
