<svg width="36" height="36" viewBox="0 0 36 36" fill="none" xmlns="http://www.w3.org/2000/svg">
<path d="M36 14.7552C36 12.1664 34.723 9.74589 32.5811 8.28894L22.4115 1.35827C21.1055 0.470171 19.5847 0 18 0C16.4154 0 14.8946 0.470171 13.5885 1.35827L3.4189 8.28894C1.27701 9.74589 0 12.1664 0 14.7552V29.5975C0 33.1209 2.86166 35.9826 6.38504 35.9826H29.6034C33.1267 35.9826 35.9884 33.1209 35.9884 29.5975V14.7552H36ZM32.5173 29.5975C32.5173 31.1996 31.217 32.4998 29.615 32.4998H6.39665C4.79458 32.4998 3.49436 31.1996 3.49436 29.5975V14.7552C3.49436 13.3157 4.20252 11.9748 5.39245 11.168L15.5621 4.23734C17.0132 3.25056 19.01 3.25056 20.4553 4.23734L30.625 11.168C31.8149 11.9748 32.5231 13.3215 32.5231 14.7552V29.5975H32.5173Z" fill="black"/>
<path d="M23.8105 23.2124H12.2013C11.2436 23.2124 10.46 23.996 10.46 24.9538C10.46 25.9115 11.2436 26.6951 12.2013 26.6951H23.8105C24.7682 26.6951 25.5519 25.9115 25.5519 24.9538C25.5519 23.996 24.7682 23.2124 23.8105 23.2124Z" fill="black"/>
</svg>
