<svg width="82" height="82" viewBox="0 0 82 82" fill="none" xmlns="http://www.w3.org/2000/svg">
<path d="M40.8208 81.69C17.7108 81.598 -0.652232 62.674 0.0177677 39.62C0.657768 17.594 18.6918 -0.154979 41.1468 0.00102051C63.7618 0.159021 81.8818 18.636 81.6578 41.176C81.4338 63.647 63.0168 81.918 40.8208 81.69ZM41.6868 35.032C37.5478 35.168 33.8468 36.601 30.4298 38.86C30.1408 39.051 29.8638 39.287 29.6448 39.554C28.8648 40.506 29.1318 41.312 30.3078 41.619C30.7598 41.737 31.2238 41.818 31.6678 41.96C33.5458 42.559 34.0518 43.48 33.5758 45.427C32.4178 50.16 31.2368 54.888 30.0988 59.626C29.2548 63.142 31.0358 66.017 34.4108 66.278C39.4058 66.663 43.8638 65.015 47.8738 62.121C48.2988 61.815 48.6278 61.053 48.5828 60.539C48.5558 60.227 47.7328 59.97 47.2508 59.72C47.0478 59.615 46.8018 59.595 46.5758 59.534C44.3418 58.937 43.7608 58.003 44.3018 55.774C45.4218 51.152 46.6128 46.547 47.6588 41.908C47.9068 40.81 47.9238 39.548 47.6458 38.465C47.0228 36.053 44.9118 34.938 41.6868 35.032ZM52.0788 20.875C52.0848 16.609 48.7878 13.243 44.5748 13.215C40.2908 13.186 36.8508 16.592 36.8868 20.825C36.9228 25.044 40.2758 28.356 44.5268 28.37C48.6718 28.384 52.0718 25.009 52.0788 20.875Z" fill="black"/>
</svg>
