<svg width="22" height="22" viewBox="0 0 22 22" fill="none" xmlns="http://www.w3.org/2000/svg">
<path d="M11 21C16.5228 21 21 16.5228 21 11C21 5.47715 16.5228 1 11 1C5.47715 1 1 5.47715 1 11C1 16.5228 5.47715 21 11 21Z" stroke="black" stroke-width="2"/>
<path fill-rule="evenodd" clip-rule="evenodd" d="M13.2734 15.9766L13.1016 16.6797C12.5859 16.8828 12.1745 17.0378 11.8672 17.1445C11.5599 17.2513 11.2031 17.3047 10.7969 17.3047C10.1719 17.3047 9.6862 17.1523 9.33984 16.8477C8.99349 16.543 8.82031 16.1563 8.82031 15.6875C8.82031 15.5052 8.83333 15.319 8.85938 15.1289C8.88542 14.9388 8.92708 14.724 8.98438 14.4844L9.625 12.2031C9.68229 11.9844 9.73047 11.7773 9.76953 11.582C9.80859 11.3867 9.82812 11.2083 9.82812 11.0469C9.82812 10.7552 9.76823 10.5521 9.64844 10.4375C9.52865 10.3229 9.29948 10.2656 8.96094 10.2656C8.79427 10.2656 8.6237 10.2917 8.44922 10.3438C8.27474 10.3958 8.125 10.4453 8 10.4922L8.17188 9.78906C8.59375 9.61719 8.99739 9.47005 9.38281 9.34766C9.76823 9.22526 10.1328 9.16406 10.4766 9.16406C11.0964 9.16406 11.5742 9.3138 11.9102 9.61328C12.2461 9.91276 12.4141 10.3021 12.4141 10.7812C12.4141 10.8802 12.4023 11.0547 12.3789 11.3047C12.3555 11.5547 12.3125 11.7839 12.25 11.9922L11.6094 14.2656C11.5573 14.4479 11.5104 14.6562 11.4688 14.8906C11.4271 15.125 11.4062 15.3021 11.4062 15.4219C11.4062 15.724 11.474 15.9297 11.6094 16.0391C11.7448 16.1484 11.9792 16.2031 12.3125 16.2031C12.4688 16.2031 12.6458 16.1758 12.8438 16.1211C13.0417 16.0664 13.1849 16.0182 13.2734 15.9766ZM13.4375 6.4375C13.4375 6.83334 13.2878 7.17057 12.9883 7.44922C12.6888 7.72787 12.3281 7.86719 11.9062 7.86719C11.4844 7.86719 11.1224 7.72787 10.8203 7.44922C10.5182 7.17057 10.3672 6.83334 10.3672 6.4375C10.3672 6.04166 10.5182 5.70313 10.8203 5.42188C11.1224 5.14062 11.4844 5 11.9062 5C12.3281 5 12.6888 5.14062 12.9883 5.42188C13.2878 5.70313 13.4375 6.04166 13.4375 6.4375Z" fill="black"/>
</svg>
