<svg width="20" height="20" viewBox="0 0 20 20" fill="none" xmlns="http://www.w3.org/2000/svg">
<path fill-rule="evenodd" clip-rule="evenodd" d="M10 0C4.48 0 0 4.48 0 10C0 15.52 4.48 20 10 20C15.52 20 20 15.52 20 10C20 4.48 15.52 0 10 0ZM10 18C5.59 18 2 14.41 2 10C2 5.59 5.59 2 10 2C14.41 2 18 5.59 18 10C18 14.41 14.41 18 10 18ZM10 14C10.5523 14 11 14.4477 11 15C11 15.5523 10.5523 16 10 16C9.44772 16 9 15.5523 9 15C9 14.4477 9.44772 14 10 14ZM6.00489 7.80029C6.10887 5.68316 7.85697 4 10 4C12.21 4 14 5.79 14 8C14 9.21811 13.2878 9.90205 12.5574 10.5435C12.1794 10.8754 11.7966 11.1959 11.505 11.5732C11.35 11.7738 11.2208 11.9905 11.1319 12.2334L11.0794 12.3551C10.8834 12.747 10.4808 13 10.0351 13H10C9.94824 13 9.89658 12.9952 9.84571 12.9857C9.39056 12.9005 9.09067 12.4624 9.17589 12.0073C9.2358 11.6873 9.27533 11.5058 9.29447 11.4627C9.52058 10.9541 9.85352 10.5841 10.2091 10.2723C11.0423 9.54175 12 9.13 12 8C12 6.9 11.1 6 10 6C8.9 6 8 6.9 8 8C8 8.55228 7.55228 9 7 9C6.44772 9 6 8.55228 6 8L6.00489 7.80029Z" fill="black"/>
</svg>
