<svg width="76" height="95" viewBox="0 0 76 95" fill="none" xmlns="http://www.w3.org/2000/svg">
<path d="M25.1 68L15 56.4C14.5 55.9 13.9 55.6 13.2 55.5C12.5 55.5 11.8 55.7 11.3 56.2C10.4 57 10.2 58.3 10.7 59.3L11 59.9C12.5 62.9 14.3 65.8 16.4 68.5L18.1 70.8C18.4 71.2 18.5 71.6 18.4 72.1C18.3 72.6 18.1 73 17.7 73.2C17.3 73.5 16.9 73.6 16.4 73.5C15.9 73.4 15.5 73.2 15.3 72.8L13.5 70.5C11.4 67.6 9.4 64.6 7.8 61.4L7.5 60.8C6.2 58.3 6.8 55.3 8.9 53.5C9.1 53.4 9.2 53.2 9.4 53.1L5.9 44C5.5 42.9 4.4 42.2 3.3 42.1C2.4 42 1.6 42.3 1 42.9C0.4 43.5 0 44.3 0 45.2L0.4 69.1C0.4 71.3 1.3 73.5 2.9 75.1L11.9 84.3H27.2L26.9 72.6C26.9 70.9 26.2 69.3 25.1 68Z" fill="black"/>
<path d="M12.1001 93.5C12.1001 94.3 12.8001 95 13.6001 95H25.8001C26.6001 95 27.3001 94.3 27.3001 93.5V87.5H12.1001V93.5Z" fill="black"/>
<path d="M74.9001 42.9C74.3001 42.3 73.4001 42 72.6001 42.1C71.5001 42.2 70.4001 43 70.0001 44L66.3001 53.3C66.5001 53.4 66.6001 53.5 66.8001 53.7C68.9001 55.5 69.4001 58.5 68.2001 61L67.8001 61.5C66.2001 64.7 64.3001 67.7 62.1001 70.6L60.3001 72.9C60.0001 73.3 59.6001 73.5 59.2001 73.6C58.7001 73.7 58.3001 73.5 57.9001 73.3C57.5001 73 57.3001 72.6 57.2001 72.2C57.1001 71.7 57.2001 71.3 57.5001 70.9L59.3001 68.6C61.3001 65.9 63.1001 63 64.7001 60L65.0001 59.4C65.5001 58.3 65.3001 57.1 64.4001 56.3C63.9001 55.8 63.2001 55.6 62.5001 55.6C61.8001 55.7 61.2001 56 60.7001 56.5L50.7001 68C49.6001 69.3 48.9001 70.9 48.9001 72.6L48.6001 84.2H63.9001L72.9001 75C74.5001 73.4 75.4001 71.3 75.4001 69L75.8001 45.1C75.8001 44.3 75.5001 43.5 74.9001 42.9Z" fill="black"/>
<path d="M48.6001 93.5C48.6001 94.3 49.3001 95 50.1001 95H62.3001C63.1001 95 63.8001 94.3 63.8001 93.5V87.5H48.6001V93.5Z" fill="black"/>
<path d="M59.3999 40.6001C59.3999 28.7001 49.7999 19.1001 37.8999 19.1001C25.9999 19.1001 16.3999 28.7001 16.3999 40.6001C16.3999 52.5001 25.9999 62.1001 37.8999 62.1001C49.7999 62.1001 59.3999 52.5001 59.3999 40.6001ZM49.5999 38.5001L45.1999 42.5001C44.8999 42.7001 44.7999 43.1001 44.8999 43.5001L46.0999 49.4001C46.3999 50.8001 44.8999 51.9001 43.5999 51.2001L38.3999 48.2001C38.0999 48.0001 37.6999 48.0001 37.3999 48.2001L32.1999 51.2001C30.8999 51.9001 29.3999 50.8001 29.6999 49.4001L30.8999 43.5001C30.9999 43.2001 30.8999 42.8001 30.5999 42.6001L26.1999 38.6001C25.0999 37.6001 25.6999 35.9001 27.0999 35.7001L33.0999 35.0001C33.4999 35.0001 33.7999 34.7001 33.8999 34.4001L36.3999 28.9001C36.9999 27.6001 38.8999 27.6001 39.4999 28.9001L41.9999 34.4001C42.0999 34.7001 42.4999 34.9001 42.7999 35.0001L48.7999 35.7001C50.0999 35.8001 50.6999 37.5001 49.5999 38.5001Z" fill="black"/>
<path d="M37.8999 13.3C39.5999 13.3 40.8999 11.9 40.8999 10.3V3C40.8999 1.3 39.4999 0 37.8999 0C36.2999 0 34.8999 1.4 34.8999 3V10.2C34.8999 11.9 36.1999 13.3 37.8999 13.3Z" fill="black"/>
<path d="M50.6998 16.5001C51.1998 16.7001 51.5998 16.9001 52.0998 16.9001C53.1998 16.9001 54.1998 16.3001 54.7998 15.3001L58.1998 8.90009C58.9998 7.40009 58.3998 5.6001 56.8998 4.8001C55.3998 4.0001 53.5998 4.6001 52.7998 6.1001L49.3998 12.5001C48.6998 13.9001 49.1998 15.7001 50.6998 16.5001Z" fill="black"/>
<path d="M20.9999 15.2001C21.4999 16.2001 22.5999 16.8001 23.6999 16.8001C24.1999 16.8001 24.6999 16.7001 25.0999 16.4001C26.5999 15.6001 27.0999 13.8001 26.3999 12.3001L22.8999 6.00007C22.0999 4.50007 20.2999 4.00007 18.7999 4.70007C17.2999 5.50007 16.7999 7.30008 17.4999 8.80008L20.9999 15.2001Z" fill="black"/>
</svg>
