<svg width="627" height="799" viewBox="0 0 627 799" fill="none" xmlns="http://www.w3.org/2000/svg">
<path d="M313.27 0C399.77 0 478.1 35.07 534.78 91.76C591.46 148.44 626.54 226.77 626.54 313.27C626.54 399.77 591.47 478.1 534.78 534.78C532.55 537.02 530.27 539.21 527.97 541.38V781.5C527.92 785.11 526.77 788.75 524.4 791.82C518.71 799.19 508.09 800.55 500.72 794.86L427.7 738.47L355.68 794.09C352.68 796.79 348.71 798.43 344.36 798.43C335.01 798.43 327.43 790.85 327.43 781.5V626.22C322.74 626.42 318.02 626.54 313.27 626.54C308.52 626.54 303.8 626.42 299.1 626.22V781.5C299.05 785.11 297.9 788.75 295.53 791.82C289.84 799.19 279.22 800.55 271.85 794.86L198.83 738.47L126.81 794.09C123.81 796.79 119.84 798.43 115.49 798.43C106.14 798.43 98.56 790.85 98.56 781.5V541.37C96.27 539.21 93.99 537.01 91.76 534.78C35.07 478.1 0 399.77 0 313.27C0 226.77 35.08 148.44 91.76 91.76C148.44 35.08 226.77 0 313.27 0ZM93.09 313.27C93.09 252.55 117.71 197.57 157.49 157.79C197.27 118.01 252.25 93.39 312.97 93.39V110.33C256.93 110.33 206.19 133.05 169.47 169.77C132.75 206.49 110.03 257.23 110.03 313.27H93.09ZM387.69 705.84V716.09H370.75V705.84H387.69ZM387.71 634.24V701.71H370.77V634.24H387.71ZM161.07 609.61V688L181.13 676.8L189.33 691.54L144.13 716.77V609.61H161.07ZM328.41 163.19L365.07 237.07L472.91 258.41L398.03 340.94L412.51 458.49L314.25 407.14L213.78 458.29L229.15 342.94L153.74 258.09L259.89 238.29L313.43 133.01L328.41 163.19ZM338.52 259.52L313.1 208.3L282.53 268.39L218.72 280.3L264.64 331.98L255.73 398.97L314.32 369.12L371.05 398.77L362.54 329.75L407.71 279.99L342.24 267.03L338.52 259.52ZM494.11 569.1C455.41 596.51 410.21 615.35 361.29 622.88V747.1L417.38 703.78C423.65 698.94 432.27 699.2 438.21 703.92L494.11 747.1V569.1ZM265.24 622.88C216.32 615.35 171.12 596.49 132.42 569.08V747.1L188.51 703.78C194.78 698.94 203.4 699.2 209.34 703.92L265.24 747.1V622.88ZM313.27 42.76C387.97 42.76 455.6 73.04 504.55 121.99C553.5 170.94 583.78 238.58 583.78 313.27C583.78 387.97 553.5 455.6 504.55 504.55C455.6 553.5 387.97 583.78 313.27 583.78C238.58 583.78 170.94 553.5 121.99 504.55C73.04 455.6 42.76 387.97 42.76 313.27C42.76 238.58 73.04 170.94 121.99 121.99C170.94 73.04 238.58 42.76 313.27 42.76ZM480.61 145.93C437.79 103.11 378.62 76.62 313.27 76.62C247.93 76.62 188.75 103.11 145.93 145.93C103.11 188.75 76.62 247.93 76.62 313.27C76.62 378.62 103.11 437.79 145.93 480.61C188.75 523.43 247.93 549.92 313.27 549.92C378.62 549.92 437.79 523.43 480.61 480.61C523.43 437.79 549.92 378.62 549.92 313.27C549.92 247.93 523.43 188.75 480.61 145.93ZM510.84 115.7C460.29 65.14 390.42 33.86 313.27 33.86C236.12 33.86 166.26 65.14 115.7 115.7C65.14 166.26 33.86 236.12 33.86 313.27C33.86 390.42 65.14 460.29 115.7 510.84C168.17 563.31 238.79 592.68 313.27 592.68C390.42 592.68 460.29 561.4 510.84 510.84C561.4 460.29 592.68 390.42 592.68 313.27C592.68 236.12 561.4 166.26 510.84 115.7Z" fill="black"/>
</svg>
