<svg width="95" height="95" viewBox="0 0 95 95" fill="none" xmlns="http://www.w3.org/2000/svg">
<path d="M89.0615 8.90601H83.1241V11.8744C83.1241 16.7727 79.1166 20.7802 74.2183 20.7802C69.32 20.7802 65.3125 16.7727 65.3125 11.8744L65.3118 8.90601H56.406V11.8744C56.406 16.7727 52.3985 20.7802 47.5002 20.7802C42.6019 20.7802 38.5944 16.7727 38.5944 11.8744L38.5937 8.90601H29.6878V11.8744C29.6878 16.7727 25.6803 20.7802 20.782 20.7802C15.883 20.781 11.8748 16.7727 11.8748 11.8744V8.90601H5.93739C2.67193 8.90601 0 11.5779 0 14.8434V89.0621C0 92.3276 2.67192 94.9995 5.93739 94.9995H89.0619C92.3274 94.9995 94.9993 92.3276 94.9993 89.0621L95 14.8434C95 11.5779 92.3281 8.90601 89.0626 8.90601L89.0615 8.90601ZM89.0615 86.0915C89.0615 87.7243 87.7259 89.0599 86.0931 89.0599L8.90579 89.0607C7.27304 89.0607 5.93736 87.725 5.93736 86.0922L5.93666 35.6242C5.93666 33.9618 7.27229 32.6557 8.90508 32.6557H86.0906C87.7233 32.6557 89.059 33.9618 89.059 35.6242L89.0615 86.0915Z" fill="black"/>
<path d="M20.7818 14.8434C22.4146 14.8434 23.7503 13.5077 23.7503 11.875V2.96842C23.7503 1.33567 22.4146 2.78108e-07 20.7818 2.78108e-07C19.1491 -0.000703822 17.8127 1.33564 17.8127 2.96842V11.8742C17.8127 13.507 19.149 14.8434 20.7818 14.8434Z" fill="black"/>
<path d="M47.4992 14.8434C49.132 14.8434 50.4677 13.5077 50.4677 11.875V2.96842C50.4677 1.33567 49.132 0 47.4992 0C45.8665 0 44.5308 1.33564 44.5308 2.96842V11.8742C44.5308 13.507 45.8665 14.8434 47.4992 14.8434Z" fill="black"/>
<path d="M74.2167 14.8434C75.8494 14.8434 77.1851 13.5077 77.1851 11.875L77.1858 2.96842C77.1858 1.33567 75.8502 0 74.2174 0C72.5846 0 71.249 1.33564 71.249 2.96842V11.8742C71.2483 13.507 72.5839 14.8434 74.2167 14.8434Z" fill="black"/>
<path d="M51 60V50C51 47.7909 49.2091 46 47 46C44.7909 46 43 47.7909 43 50V60C43 62.2091 44.7909 64 47 64C49.2091 64 51 62.2091 51 60Z" fill="black"/>
<path d="M43 71C43 73.2091 44.7909 75 47 75C49.2091 75 51 73.2091 51 71C51 68.7909 49.2091 67 47 67C44.7909 67 43 68.7909 43 71Z" fill="black"/>
</svg>
