<svg width="22" height="22" viewBox="0 0 22 22" fill="none" xmlns="http://www.w3.org/2000/svg">
<path d="M19.2 2H17V1C17 0.734784 16.8946 0.48043 16.7071 0.292893C16.5196 0.105357 16.2652 0 16 0C15.7348 0 15.4804 0.105357 15.2929 0.292893C15.1054 0.48043 15 0.734784 15 1V2H12V1C12 0.734784 11.8946 0.48043 11.7071 0.292893C11.5196 0.105357 11.2652 0 11 0C10.7348 0 10.4804 0.105357 10.2929 0.292893C10.1054 0.48043 10 0.734784 10 1V2H7V1C7 0.734784 6.89464 0.48043 6.70711 0.292893C6.51957 0.105357 6.26522 0 6 0C5.73478 0 5.48043 0.105357 5.29289 0.292893C5.10536 0.48043 5 0.734784 5 1V2H2.8C2.05739 2 1.3452 2.295 0.820101 2.8201C0.294999 3.3452 0 4.05739 0 4.8V19.2C0 19.5677 0.0724241 19.9318 0.213137 20.2715C0.35385 20.6112 0.560097 20.9199 0.820101 21.1799C1.08011 21.4399 1.38877 21.6462 1.72849 21.7869C2.0682 21.9276 2.4323 22 2.8 22H19.2C19.5677 22 19.9318 21.9276 20.2715 21.7869C20.6112 21.6462 20.9199 21.4399 21.1799 21.1799C21.4399 20.9199 21.6462 20.6112 21.7869 20.2715C21.9276 19.9318 22 19.5677 22 19.2V4.8C22 4.4323 21.9276 4.0682 21.7869 3.72849C21.6462 3.38877 21.4399 3.08011 21.1799 2.8201C20.9199 2.5601 20.6112 2.35385 20.2715 2.21314C19.9318 2.07242 19.5677 2 19.2 2ZM20 19.2C20 19.4122 19.9157 19.6157 19.7657 19.7657C19.6157 19.9157 19.4122 20 19.2 20H2.8C2.58783 20 2.38434 19.9157 2.23431 19.7657C2.08429 19.6157 2 19.4122 2 19.2V4.8C2 4.58783 2.08429 4.38434 2.23431 4.23431C2.38434 4.08429 2.58783 4 2.8 4H5V5C5 5.26522 5.10536 5.51957 5.29289 5.70711C5.48043 5.89464 5.73478 6 6 6C6.26522 6 6.51957 5.89464 6.70711 5.70711C6.89464 5.51957 7 5.26522 7 5V4H10V5C10 5.26522 10.1054 5.51957 10.2929 5.70711C10.4804 5.89464 10.7348 6 11 6C11.2652 6 11.5196 5.89464 11.7071 5.70711C11.8946 5.51957 12 5.26522 12 5V4H15V5C15 5.26522 15.1054 5.51957 15.2929 5.70711C15.4804 5.89464 15.7348 6 16 6C16.2652 6 16.5196 5.89464 16.7071 5.70711C16.8946 5.51957 17 5.26522 17 5V4H19.2C19.4122 4 19.6157 4.08429 19.7657 4.23431C19.9157 4.38434 20 4.58783 20 4.8V19.2Z" fill="black"/>
<path d="M10.994 7.75477C10.7288 7.75481 10.4745 7.86017 10.287 8.04767C10.0996 8.23517 9.9942 8.48946 9.99416 8.75462V11.9974L6.75136 11.9974C6.4892 12.002 6.23931 12.1093 6.05552 12.2963C5.87173 12.4833 5.76874 12.7351 5.76874 12.9973C5.76874 13.2595 5.87173 13.5112 6.05552 13.6982C6.23931 13.8852 6.4892 13.9926 6.75136 13.9971L9.99416 13.9971L9.99416 17.2399C9.99185 17.3727 10.016 17.5046 10.0652 17.6279C10.1144 17.7512 10.1877 17.8635 10.2808 17.9582C10.3739 18.0529 10.4849 18.1281 10.6073 18.1795C10.7298 18.2308 10.8612 18.2573 10.994 18.2573C11.1268 18.2573 11.2582 18.2308 11.3807 18.1795C11.5032 18.1281 11.6142 18.0529 11.7072 17.9582C11.8003 17.8635 11.8736 17.7512 11.9228 17.6279C11.972 17.5046 11.9962 17.3727 11.9939 17.2399L11.9939 13.9971L15.2366 13.9971C15.4988 13.9926 15.7487 13.8852 15.9325 13.6982C16.1163 13.5112 16.2193 13.2595 16.2193 12.9973C16.2193 12.7351 16.1163 12.4833 15.9325 12.2963C15.7487 12.1093 15.4988 12.002 15.2366 11.9974L11.9939 11.9974V8.75462C11.9938 8.48946 11.8885 8.23517 11.701 8.04767C11.5135 7.86017 11.2592 7.75481 10.994 7.75477Z" fill="black"/>
</svg>
