<svg width="22" height="22" viewBox="0 0 22 22" fill="none" xmlns="http://www.w3.org/2000/svg">
<path d="M18.874 2H17V1C17 0.734784 16.8946 0.48043 16.7071 0.292893C16.5196 0.105357 16.2652 0 16 0C15.7348 0 15.4804 0.105357 15.2929 0.292893C15.1054 0.48043 15 0.734784 15 1V2H12V1C12 0.734784 11.8946 0.48043 11.7071 0.292893C11.5196 0.105357 11.2652 0 11 0C10.7348 0 10.4804 0.105357 10.2929 0.292893C10.1054 0.48043 10 0.734784 10 1V2H7V1C7 0.734784 6.89464 0.48043 6.70711 0.292893C6.51957 0.105357 6.26522 0 6 0C5.73478 0 5.48043 0.105357 5.29289 0.292893C5.10536 0.48043 5 0.734784 5 1V2H3.126C2.29735 2.00079 1.50285 2.33026 0.916814 2.91611C0.330776 3.50196 0.00105894 4.29635 0 5.125V18.875C0.00105894 19.7036 0.330776 20.498 0.916814 21.0839C1.50285 21.6697 2.29735 21.9992 3.126 22H18.874C19.7027 21.9992 20.4971 21.6697 21.0832 21.0839C21.6692 20.498 21.9989 19.7036 22 18.875V5.125C21.9989 4.29635 21.6692 3.50196 21.0832 2.91611C20.4971 2.33026 19.7027 2.00079 18.874 2ZM2 5.125C2.00053 4.82662 2.11936 4.54063 2.33044 4.32974C2.54152 4.11884 2.82762 4.00026 3.126 4H5V5C5 5.26522 5.10536 5.51957 5.29289 5.70711C5.48043 5.89464 5.73478 6 6 6C6.26522 6 6.51957 5.89464 6.70711 5.70711C6.89464 5.51957 7 5.26522 7 5V4H10V5C10 5.26522 10.1054 5.51957 10.2929 5.70711C10.4804 5.89464 10.7348 6 11 6C11.2652 6 11.5196 5.89464 11.7071 5.70711C11.8946 5.51957 12 5.26522 12 5V4H15V5C15 5.26522 15.1054 5.51957 15.2929 5.70711C15.4804 5.89464 15.7348 6 16 6C16.2652 6 16.5196 5.89464 16.7071 5.70711C16.8946 5.51957 17 5.26522 17 5V4H18.874C19.1724 4.00026 19.4585 4.11884 19.6696 4.32974C19.8806 4.54063 19.9995 4.82662 20 5.125V8H2V5.125ZM20 18.875C19.9995 19.1734 19.8806 19.4594 19.6696 19.6703C19.4585 19.8812 19.1724 19.9997 18.874 20H3.126C2.82762 19.9997 2.54152 19.8812 2.33044 19.6703C2.11936 19.4594 2.00053 19.1734 2 18.875V10H20V18.875Z" fill="black"/>
<path d="M9.29292 17.7069C9.48045 17.8944 9.73475 17.9997 9.99992 17.9997C10.2651 17.9997 10.5194 17.8944 10.7069 17.7069L14.7069 13.7069C14.8891 13.5183 14.9899 13.2657 14.9876 13.0035C14.9853 12.7413 14.8801 12.4905 14.6947 12.3051C14.5093 12.1197 14.2585 12.0145 13.9963 12.0122C13.7341 12.01 13.4815 12.1108 13.2929 12.2929L9.99992 15.5859L8.70692 14.2929C8.51832 14.1108 8.26571 14.01 8.00352 14.0122C7.74132 14.0145 7.49051 14.1197 7.3051 14.3051C7.11969 14.4905 7.01452 14.7413 7.01224 15.0035C7.00997 15.2657 7.11076 15.5183 7.29292 15.7069L9.29292 17.7069Z" fill="black"/>
</svg>
