<svg width="95" height="91" viewBox="0 0 95 91" fill="none" xmlns="http://www.w3.org/2000/svg">
<path d="M16.8001 55.6H29.6001C30.8001 55.6 31.8001 54.6 31.8001 53.4V44.5C31.8001 43.3 30.8001 42.3 29.6001 42.3H16.8001C15.6001 42.3 14.6001 43.3 14.6001 44.5V53.4C14.7001 54.6 15.7001 55.6 16.8001 55.6Z" fill="black"/>
<path d="M85 10.2H74.1V3.6C74.1 1.6 72.5 0 70.5 0H63.7C61.7 0 60.1 1.6 60.1 3.6V10.2H34.8V3.6C34.8 1.6 33.2 0 31.2 0H24.4C22.4 0 20.8 1.6 20.8 3.6V10.2H10C4.5 10.2 0 14.7 0 20.2V80.5C0 86 4.5 90.5 10 90.5H85C90.5 90.5 95 86 95 80.5V20.2C95 14.7 90.5 10.2 85 10.2ZM88.3 80.5C88.3 82.3 86.8 83.8 85 83.8H10C8.2 83.8 6.7 82.3 6.7 80.5V34.4H88.4V80.5H88.3Z" fill="black"/>
<path d="M41.0999 55.6H53.8999C55.0999 55.6 56.0999 54.6 56.0999 53.4V44.5C56.0999 43.3 55.0999 42.3 53.8999 42.3H41.0999C39.8999 42.3 38.8999 43.3 38.8999 44.5V53.4C38.8999 54.6 39.8999 55.6 41.0999 55.6Z" fill="black"/>
<path d="M65.4002 55.6H78.2002C79.4002 55.6 80.4002 54.6 80.4002 53.4V44.5C80.4002 43.3 79.4002 42.3 78.2002 42.3H65.4002C64.2002 42.3 63.2002 43.3 63.2002 44.5V53.4C63.2002 54.6 64.2002 55.6 65.4002 55.6Z" fill="black"/>
<path d="M16.8001 75.9001H29.6001C30.8001 75.9001 31.8001 74.9001 31.8001 73.7001V64.8001C31.8001 63.6001 30.8001 62.6001 29.6001 62.6001H16.8001C15.6001 62.6001 14.6001 63.6001 14.6001 64.8001V73.7001C14.7001 74.9001 15.7001 75.9001 16.8001 75.9001Z" fill="black"/>
<path d="M41.0999 75.9001H53.8999C55.0999 75.9001 56.0999 74.9001 56.0999 73.7001V64.8001C56.0999 63.6001 55.0999 62.6001 53.8999 62.6001H41.0999C39.8999 62.6001 38.8999 63.6001 38.8999 64.8001V73.7001C38.8999 74.9001 39.8999 75.9001 41.0999 75.9001Z" fill="black"/>
<path d="M65.4002 75.9001H78.2002C79.4002 75.9001 80.4002 74.9001 80.4002 73.7001V64.8001C80.4002 63.6001 79.4002 62.6001 78.2002 62.6001H65.4002C64.2002 62.6001 63.2002 63.6001 63.2002 64.8001V73.7001C63.2002 74.9001 64.2002 75.9001 65.4002 75.9001Z" fill="black"/>
</svg>
