<svg width="36" height="50" viewBox="0 0 36 50" fill="none" xmlns="http://www.w3.org/2000/svg">
<path fill-rule="evenodd" clip-rule="evenodd" d="M17.8138 0C27.5304 0 35.4656 7.93522 35.4656 17.8138C35.4656 25.9109 32.0648 28.3401 26.8826 36.5992L18.9474 49.3927C18.4615 50.2024 17.166 50.2024 16.6802 49.3927L8.74494 36.5992C3.56275 28.3401 0 25.9109 0 17.8138C0 7.93522 7.93522 0 17.8138 0ZM17.8138 7.77328C23.3198 7.77328 27.8543 12.3077 27.8543 17.8138C27.8543 23.3198 23.3198 27.8543 17.8138 27.8543C12.3077 27.8543 7.77328 23.3198 7.77328 17.8138C7.77328 12.3077 12.3077 7.77328 17.8138 7.77328Z" fill="black"/>
</svg>
