<svg width="45" height="39" viewBox="0 0 45 39" fill="none" xmlns="http://www.w3.org/2000/svg">
<path fill-rule="evenodd" clip-rule="evenodd" d="M5.5 39C2.4624 39 0 36.5376 0 33.5V5.5C0 2.4624 2.4624 0 5.5 0H23.7594C26.797 0 29.2594 2.4624 29.2594 5.5V10.5C29.2594 11.3284 28.5878 12 27.7594 12C26.931 12 26.2594 11.3284 26.2594 10.5V5.5C26.2594 4.1193 25.1401 3 23.7594 3H5.5C4.1193 3 3 4.1193 3 5.5V33.5C3 34.8807 4.1193 36 5.5 36H23.7594C25.1401 36 26.2594 34.8807 26.2594 33.5V28.5C26.2594 27.6716 26.931 27 27.7594 27C28.5878 27 29.2594 27.6716 29.2594 28.5V33.5C29.2594 36.5376 26.797 39 23.7594 39H5.5ZM20.1995 19.5C20.1995 18.6716 20.8711 18 21.6995 18H40.2722L34.7838 12.5659C34.1952 11.983 34.1904 11.0333 34.7733 10.4446C35.3562 9.8559 36.3059 9.8512 36.8946 10.4341L44.2567 17.7235C45.2448 18.7018 45.2448 20.2982 44.2567 21.2765L36.8946 28.5659C36.3059 29.1488 35.3562 29.1441 34.7733 28.5554C34.1904 27.9667 34.1952 27.017 34.7838 26.4341L40.2722 21H21.6995C20.8711 21 20.1995 20.3284 20.1995 19.5Z" fill="black"/>
</svg>
