<svg width="50" height="40" viewBox="0 0 50 40" fill="none" xmlns="http://www.w3.org/2000/svg">
<path fill-rule="evenodd" clip-rule="evenodd" d="M16.0691 5.45455H47.3213C48.8007 5.45455 50 4.2335 50 2.72727C50 1.22104 48.8007 0 47.3213 0H16.0691C14.5897 0 13.3904 1.22104 13.3904 2.72727C13.3904 4.2335 14.5897 5.45455 16.0691 5.45455ZM2.67877 22.7273H47.3213C48.8007 22.7273 50 21.5062 50 20C50 18.4938 48.8007 17.2727 47.3213 17.2727H2.67877C1.19934 17.2727 0 18.4938 0 20C0 21.5062 1.19934 22.7273 2.67877 22.7273ZM16.0691 40H47.3213C48.8007 40 50 38.779 50 37.2727C50 35.7665 48.8007 34.5455 47.3213 34.5455H16.0691C14.5897 34.5455 13.3904 35.7665 13.3904 37.2727C13.3904 38.779 14.5897 40 16.0691 40Z" fill="black"/>
</svg>
