<svg width="76" height="56" viewBox="0 0 76 56" fill="none" xmlns="http://www.w3.org/2000/svg">
<path d="M4 0C1.7909 0 0 1.79079 0 4C0 6.2092 1.7909 8 4 8H72C74.2091 8 76 6.2092 76 4C76 1.79079 74.2091 0 72 0H4ZM4 24.0001C1.7909 24.0001 0 25.7909 0 28.0001C0 30.2093 1.7909 32.0001 4 32.0001H72C74.2091 32.0001 76 30.2093 76 28.0001C76 25.7909 74.2091 24.0001 72 24.0001H4ZM4 48C1.7909 48 0 49.7908 0 52C0 54.2092 1.7909 56 4 56H72C74.2091 56 76 54.2092 76 52C76 49.7908 74.2091 48 72 48H4Z" fill="black"/>
</svg>
