<svg width="98" height="83" viewBox="0 0 98 83" fill="none" xmlns="http://www.w3.org/2000/svg">
<path d="M92.7 36.1001H5.3C2.4 36.1001 0 38.5001 0 41.4001C0 44.3001 2.4 46.7001 5.3 46.7001H92.7C95.6 46.7001 98 44.3001 98 41.4001C98 38.5001 95.6 36.1001 92.7 36.1001Z" fill="black"/>
<path d="M5.3 10.6H75C77.9 10.6 80.3 8.2 80.3 5.3C80.3 2.4 77.9 0 75 0H5.3C2.4 0 0 2.4 0 5.3C0 8.2 2.4 10.6 5.3 10.6Z" fill="black"/>
<path d="M43 72.2H5.3C2.4 72.2 0 74.5999 0 77.4999C0 80.3999 2.4 82.7999 5.3 82.7999H43C45.9 82.7999 48.3 80.3999 48.3 77.4999C48.3 74.5999 45.9 72.2 43 72.2Z" fill="black"/>
</svg>
