<svg width="98" height="90" viewBox="0 0 98 90" fill="none" xmlns="http://www.w3.org/2000/svg">
<path d="M97.9303 69.5926V51.7726C97.929 51.6003 97.9055 51.4289 97.8603 51.2626V51.1426C97.8151 51.0031 97.7548 50.869 97.6803 50.7426V50.6826C97.5898 50.5432 97.4823 50.4155 97.3603 50.3026L97.2703 50.2226C97.1562 50.1293 97.0321 50.0488 96.9003 49.9826H96.8503L80.9303 42.6326V31.1226C80.9299 30.7719 80.8373 30.4275 80.6618 30.1238C80.4863 29.8202 80.234 29.568 79.9303 29.3926L68.0203 22.6426V9.41265C68.0125 9.23946 67.9823 9.06803 67.9303 8.90265V8.78265C67.8845 8.64656 67.8241 8.51581 67.7503 8.39265V8.32265C67.6592 8.18668 67.5517 8.06242 67.4303 7.95265L67.3403 7.87265C67.2262 7.77925 67.1021 7.69876 66.9703 7.63265H66.9203L50.7803 0.182646C50.5184 0.0623043 50.2335 0 49.9453 0C49.657 0 49.3722 0.0623043 49.1103 0.182646L33.0203 7.60265H32.9703C32.8385 7.66876 32.7144 7.74925 32.6003 7.84265L32.5103 7.92265C32.3882 8.03552 32.2807 8.16317 32.1903 8.30265V8.36265C32.1158 8.48898 32.0554 8.62312 32.0103 8.76265V8.88265C31.9651 9.04892 31.9416 9.22034 31.9403 9.39265V22.6726L19.9403 29.6726C19.6366 29.848 19.3843 30.1002 19.2087 30.4038C19.0332 30.7075 18.9406 31.0519 18.9403 31.4026V42.5626H18.8703C18.6084 42.4423 18.3235 42.38 18.0353 42.38C17.747 42.38 17.4622 42.4423 17.2003 42.5626L1.08029 49.9526H1.03029C0.898486 50.0188 0.774398 50.0993 0.660289 50.1926L0.570289 50.2726C0.448244 50.3855 0.340749 50.5132 0.250289 50.6526V50.7126C0.175805 50.839 0.115442 50.9731 0.0702893 51.1126V51.2326C0.0250838 51.3989 0.00155567 51.5703 0.000289319 51.7426V69.5926C-0.00604349 69.965 0.0916981 70.3317 0.282508 70.6515C0.473317 70.9712 0.749616 71.2314 1.08029 71.4026L17.1603 78.8126C17.4222 78.933 17.707 78.9953 17.9953 78.9953C18.2835 78.9953 18.5684 78.933 18.8303 78.8126L25.9303 75.5026L49.1003 88.7426C49.4043 88.9182 49.7492 89.0106 50.1003 89.0106C50.4514 89.0106 50.7962 88.9182 51.1003 88.7426L72.9303 76.0026L79.0403 78.8126C79.3022 78.933 79.587 78.9953 79.8753 78.9953C80.1635 78.9953 80.4484 78.933 80.7103 78.8126L96.7803 71.4026C97.124 71.2413 97.4147 70.9853 97.6184 70.6648C97.822 70.3443 97.9302 69.9724 97.9303 69.5926ZM65.7703 54.8926L77.8603 60.5026V73.8826L65.7703 68.3126V54.8926ZM79.8503 56.9826L68.5503 51.7726L79.8603 46.5626L91.1703 51.7726L79.8503 56.9826ZM35.8603 12.5026L47.9303 18.1126V31.5026L35.8603 25.9526V12.5026ZM51.9303 18.1126L64.0203 12.5026V25.9526L51.9303 31.5026V18.1126ZM49.9303 4.20265L61.2403 9.41265L49.9303 14.6226L38.6303 9.41265L49.9303 4.20265ZM18.0003 46.5526L29.3103 51.7626L18.0003 56.9826L6.70029 51.7726L18.0003 46.5526ZM20.0003 60.4526L32.0803 54.8826V68.3126L20.0003 73.8826V60.4526ZM3.93029 54.8926L16.0003 60.5026V73.8826L3.93029 68.3126V54.8926ZM50.1003 84.6926L30.4403 73.5026L34.9303 71.4026C35.2775 71.242 35.5713 70.9851 35.7769 70.6625C35.9825 70.34 36.0912 69.9652 36.0903 69.5826V51.7726C36.089 51.6003 36.0655 51.4289 36.0203 51.2626V51.1426C35.9751 51.0031 35.9148 50.869 35.8403 50.7426V50.6826C35.7498 50.5432 35.6423 50.4155 35.5203 50.3026L35.4303 50.2226C35.3162 50.1293 35.1921 50.0488 35.0603 49.9826H35.0103L22.9303 44.4226V32.5526L31.9303 27.3126C31.9415 27.6821 32.0549 28.0413 32.258 28.3502C32.461 28.6591 32.7456 28.9057 33.0803 29.0626L49.1003 36.5026C49.3622 36.623 49.647 36.6853 49.9353 36.6853C50.2235 36.6853 50.5084 36.623 50.7703 36.5026L66.8503 29.0926C67.1944 28.9334 67.4861 28.6797 67.6915 28.361C67.8969 28.0423 68.0074 27.6718 68.0103 27.2926L76.8403 32.2926L76.9303 43.5026L62.9303 49.9526H62.8803C62.7485 50.0188 62.6244 50.0993 62.5103 50.1926L62.4203 50.2726C62.2982 50.3855 62.1907 50.5132 62.1003 50.6526V50.7126C62.0258 50.839 61.9654 50.9731 61.9203 51.1126V51.2326C61.8751 51.3989 61.8516 51.5703 61.8503 51.7426V69.5926C61.844 69.965 61.9417 70.3317 62.1325 70.6515C62.3233 70.9712 62.5996 71.2314 62.9303 71.4026L68.4703 73.9526L50.1003 84.6926ZM81.8603 73.8826V60.5026L93.9303 54.8926V68.3126L81.8603 73.8826Z" fill="black"/>
</svg>
