<svg width="37" height="48" viewBox="0 0 37 48" fill="none" xmlns="http://www.w3.org/2000/svg">
<path d="M3.29001 23.194V27.771C3.29001 29.566 2.78701 31.321 1.83601 32.843L0.740009 34.596C-0.198991 36.099 -0.246991 37.922 0.611009 39.472C1.47001 41.022 3.04101 41.948 4.81301 41.948H12.122C12.159 45.291 14.888 48.001 18.24 48.001C21.592 48.001 24.32 45.292 24.358 41.948H31.667C33.439 41.948 35.01 41.022 35.869 39.472C36.727 37.922 36.68 36.099 35.74 34.596L34.644 32.844C33.693 31.321 33.19 29.566 33.19 27.771V23.656C33.19 16.253 28.012 9.99 21.201 8.56C22.315 7.679 23.045 6.332 23.045 4.805C23.045 2.156 20.89 0 18.24 0C15.59 0 13.435 2.155 13.435 4.805C13.435 6.322 14.156 7.661 15.257 8.542C12.448 9.107 9.86001 10.468 7.76501 12.525C4.87901 15.359 3.28901 19.148 3.28901 23.193L3.29001 23.194ZM18.24 46.001C15.991 46.001 14.163 44.189 14.126 41.948H22.354C22.316 44.188 20.489 46.001 18.24 46.001ZM18.24 2.001C19.787 2.001 21.045 3.259 21.045 4.806C21.045 6.353 19.787 7.611 18.24 7.611C16.693 7.611 15.435 6.353 15.435 4.806C15.435 3.259 16.693 2.001 18.24 2.001ZM18.24 10.244C18.321 10.244 18.402 10.244 18.483 10.246C25.49 10.374 31.19 16.39 31.19 23.656V27.771C31.19 29.941 31.798 32.062 32.949 33.904L34.045 35.657C34.593 36.534 34.621 37.598 34.119 38.504C33.618 39.408 32.701 39.948 31.667 39.948H4.81301C3.77901 39.948 2.86201 39.408 2.36101 38.504C1.85901 37.599 1.88701 36.534 2.43501 35.657L3.53101 33.903C4.68101 32.062 5.29001 29.941 5.29001 27.771V23.194C5.29001 19.69 6.66701 16.409 9.16701 13.953C11.609 11.556 14.823 10.244 18.24 10.244Z" fill="black"/>
</svg>
