<svg width="25" height="32" viewBox="0 0 25 32" fill="none" xmlns="http://www.w3.org/2000/svg">
<path d="M9.68799 9.50977C8.77699 9.86877 7.96099 10.4198 7.29199 11.1138C7.72999 11.1998 8.21399 11.2758 8.73799 11.3408C8.99899 10.6348 9.31999 10.0158 9.68799 9.50977Z" fill="black"/>
<path d="M8.4292 12.3338C7.7722 12.2478 7.1412 12.1428 6.5612 12.0098C5.9122 12.9608 5.4982 14.0878 5.4082 15.3028H8.0162C8.0512 14.2338 8.1962 13.2338 8.4292 12.3338Z" fill="black"/>
<path d="M13.5891 11.5041V11.5061C13.9321 11.4921 14.2641 11.4711 14.5821 11.4451C14.0191 10.0491 13.2121 9.18709 12.4141 9.05609C12.3761 9.05209 12.3391 9.04809 12.3041 9.04409C12.2971 9.04409 12.2911 9.04409 12.2841 9.04209C12.2421 9.03809 12.2021 9.03809 12.1631 9.03809H12.1621C11.2991 9.03809 10.3991 9.92709 9.78711 11.4441C10.5151 11.5031 11.3041 11.5381 12.1631 11.5381C12.6631 11.5391 13.1361 11.5251 13.5891 11.5041Z" fill="black"/>
<path d="M17.0796 11.1128C16.4106 10.4198 15.5946 9.86879 14.6836 9.50879C15.0516 10.0148 15.3726 10.6338 15.6316 11.3388C16.1576 11.2748 16.6416 11.1988 17.0796 11.1128Z" fill="black"/>
<path d="M14.917 12.4409C14.029 12.5209 13.112 12.5599 12.207 12.5599C12.193 12.5599 12.178 12.5599 12.164 12.5599C11.259 12.5599 10.342 12.5209 9.45402 12.4409C9.22502 13.2749 9.07702 14.2379 9.04102 15.3019H10.64H13.733H15.332C15.294 14.2379 15.146 13.2749 14.917 12.4409Z" fill="black"/>
<path d="M9.04102 16.3262C9.07702 17.3902 9.22602 18.3532 9.45402 19.1852C10.342 19.1072 11.259 19.0662 12.164 19.0662C12.178 19.0662 12.193 19.0682 12.207 19.0682V19.0662C13.099 19.0662 14.001 19.1072 14.875 19.1832C14.921 19.0192 14.977 18.8572 15.037 18.6972C15.197 17.9822 15.301 17.1872 15.331 16.3262H14.475H9.89702H9.04102Z" fill="black"/>
<path d="M8.0162 16.3262H5.4082C5.4992 17.5412 5.9122 18.6682 6.5612 19.6212C7.1412 19.4882 7.7722 19.3812 8.4292 19.2972C8.1962 18.3962 8.0512 17.3952 8.0162 16.3262Z" fill="black"/>
<path d="M15.9414 12.3338C16.1744 13.2338 16.3194 14.2338 16.3554 15.3028H18.9624C18.8714 14.0878 18.4584 12.9608 17.8094 12.0098C17.2294 12.1428 16.5984 12.2478 15.9414 12.3338Z" fill="black"/>
<path d="M15.9414 19.2972C16.5854 19.3792 17.2024 19.4852 17.7724 19.6132C17.8324 19.5272 17.9004 19.4452 17.9724 19.3652C18.5274 18.4692 18.8794 17.4332 18.9624 16.3262H16.3554C16.3194 17.3952 16.1744 18.3962 15.9414 19.2972Z" fill="black"/>
<path d="M7.29199 20.516C7.96099 21.209 8.77599 21.758 9.68799 22.12C9.31999 21.614 8.99899 20.995 8.73899 20.29C8.21399 20.352 7.72999 20.43 7.29199 20.516Z" fill="black"/>
<path d="M14.7012 22.094C15.5882 21.735 16.3832 21.194 17.0372 20.516C16.6102 20.432 16.1392 20.358 15.6302 20.293C15.3742 20.986 15.0612 21.594 14.7012 22.094Z" fill="black"/>
<path d="M9.78809 20.1858C10.4001 21.7018 11.3001 22.5898 12.1631 22.5898C13.0281 22.5898 13.9281 21.7008 14.5401 20.1858C13.8121 20.1248 13.0221 20.0898 12.1641 20.0898C11.3041 20.0898 10.5151 20.1248 9.78809 20.1858Z" fill="black"/>
<path d="M22.177 4.822H10.282L19.801 2.384V3.845H21.996V1.529C21.996 0.672 21.334 0 20.49 0C20.36 0 20.229 0.018 20.101 0.049L1.209 4.875C0.768 4.984 0.394 5.273 0.184 5.67C0.016 5.984 0 6.908 0 7.016V29.807C0 31.018 0.982 32 2.194 32H22.176C23.388 32 24.37 31.018 24.37 29.807V7.016C24.372 5.805 23.389 4.822 22.177 4.822ZM19.035 29.488H5.337C5.061 29.488 4.837 29.263 4.837 28.988C4.837 28.711 5.061 28.488 5.337 28.488H19.035C19.312 28.488 19.535 28.711 19.535 28.988C19.535 29.264 19.312 29.488 19.035 29.488ZM19.035 26.904H5.337C5.061 26.904 4.837 26.68 4.837 26.404C4.837 26.128 5.061 25.904 5.337 25.904H19.035C19.312 25.904 19.535 26.128 19.535 26.404C19.535 26.68 19.312 26.904 19.035 26.904ZM18.847 19.902C18.656 20.213 18.444 20.507 18.213 20.785C16.781 22.512 14.621 23.613 12.208 23.613C12.194 23.613 12.178 23.613 12.164 23.613H12.163C9.751 23.613 7.59 22.511 6.158 20.785C5.928 20.508 5.716 20.213 5.524 19.902C4.789 18.713 4.364 17.312 4.364 15.814C4.364 14.316 4.789 12.914 5.524 11.726C5.715 11.417 5.927 11.121 6.158 10.843C7.59 9.116 9.751 8.013 12.163 8.013H12.164C12.178 8.013 12.193 8.015 12.207 8.015V8.014C14.62 8.014 16.781 9.118 18.213 10.844C18.443 11.121 18.655 11.418 18.847 11.727C19.582 12.915 20.007 14.317 20.007 15.815C20.007 17.313 19.582 18.713 18.847 19.902Z" fill="black"/>
</svg>
