<svg width="38" height="44" viewBox="0 0 38 44" fill="none" xmlns="http://www.w3.org/2000/svg">
<path d="M22.0001 13C21.6046 13 21.2179 12.8827 20.889 12.6629C20.5601 12.4432 20.3037 12.1308 20.1524 11.7654C20.001 11.3999 19.9614 10.9978 20.0385 10.6098C20.1157 10.2219 20.3062 9.86549 20.5859 9.58579C20.8656 9.30608 21.222 9.1156 21.6099 9.03843C21.9979 8.96126 22.4 9.00087 22.7655 9.15224C23.1309 9.30362 23.4433 9.55996 23.6631 9.88886C23.8828 10.2178 24.0001 10.6044 24.0001 11C24.0001 11.2652 24.1055 11.5196 24.293 11.7071C24.4805 11.8946 24.7349 12 25.0001 12C25.2653 12 25.5197 11.8946 25.7072 11.7071C25.8948 11.5196 26.0001 11.2652 26.0001 11C25.9974 10.1156 25.7015 9.25711 25.1586 8.55896C24.6157 7.86081 23.8566 7.36247 23.0001 7.142V5C23.0001 4.73478 22.8948 4.48043 22.7072 4.29289C22.5197 4.10536 22.2653 4 22.0001 4C21.7349 4 21.4805 4.10536 21.293 4.29289C21.1055 4.48043 21.0001 4.73478 21.0001 5V7.142C20.0578 7.38364 19.2361 7.9611 18.6896 8.76587C18.143 9.57064 17.9091 10.5473 18.0319 11.5124C18.1548 12.4774 18.6258 13.3644 19.3565 14.0066C20.0872 14.6488 21.0273 15.0021 22.0001 15C22.3957 15 22.7824 15.1173 23.1113 15.3371C23.4402 15.5568 23.6965 15.8692 23.8479 16.2346C23.9992 16.6001 24.0389 17.0022 23.9617 17.3902C23.8845 17.7781 23.694 18.1345 23.4143 18.4142C23.1346 18.6939 22.7783 18.8844 22.3903 18.9616C22.0023 19.0387 21.6002 18.9991 21.2347 18.8478C20.8693 18.6964 20.5569 18.44 20.3372 18.1111C20.1174 17.7822 20.0001 17.3956 20.0001 17C20.0001 16.7348 19.8948 16.4804 19.7072 16.2929C19.5197 16.1054 19.2653 16 19.0001 16C18.7349 16 18.4805 16.1054 18.293 16.2929C18.1055 16.4804 18.0001 16.7348 18.0001 17C18.0028 17.8844 18.2987 18.7429 18.8416 19.441C19.3845 20.1392 20.1437 20.6375 21.0001 20.858V23C21.0001 23.2652 21.1055 23.5196 21.293 23.7071C21.4805 23.8946 21.7349 24 22.0001 24C22.2653 24 22.5197 23.8946 22.7072 23.7071C22.8948 23.5196 23.0001 23.2652 23.0001 23V20.858C23.9425 20.6164 24.7641 20.0389 25.3107 19.2341C25.8572 18.4294 26.0911 17.4527 25.9683 16.4876C25.8455 15.5226 25.3745 14.6356 24.6437 13.9934C23.913 13.3512 22.9729 12.9979 22.0001 13Z" fill="black"/>
<path d="M33 28H11C10.7348 28 10.4804 27.8946 10.2929 27.7071C10.1054 27.5196 10 27.2652 10 27C10 26.7348 10.1054 26.4804 10.2929 26.2929C10.4804 26.1054 10.7348 26 11 26H33C33.2652 26 33.5196 26.1054 33.7071 26.2929C33.8946 26.4804 34 26.7348 34 27C34 27.2652 33.8946 27.5196 33.7071 27.7071C33.5196 27.8946 33.2652 28 33 28Z" fill="black"/>
<path d="M33 32H24C23.7348 32 23.4804 31.8946 23.2929 31.7071C23.1054 31.5196 23 31.2652 23 31C23 30.7348 23.1054 30.4804 23.2929 30.2929C23.4804 30.1054 23.7348 30 24 30H33C33.2652 30 33.5196 30.1054 33.7071 30.2929C33.8946 30.4804 34 30.7348 34 31C34 31.2652 33.8946 31.5196 33.7071 31.7071C33.5196 31.8946 33.2652 32 33 32Z" fill="black"/>
<path d="M20 32H11C10.7348 32 10.4804 31.8946 10.2929 31.7071C10.1054 31.5196 10 31.2652 10 31C10 30.7348 10.1054 30.4804 10.2929 30.2929C10.4804 30.1054 10.7348 30 11 30H20C20.2652 30 20.5196 30.1054 20.7071 30.2929C20.8946 30.4804 21 30.7348 21 31C21 31.2652 20.8946 31.5196 20.7071 31.7071C20.5196 31.8946 20.2652 32 20 32Z" fill="black"/>
<path d="M33 0H11C9.6744 0.00155617 8.40353 0.52884 7.46618 1.46618C6.52884 2.40353 6.00156 3.6744 6 5V34H1C0.734784 34 0.48043 34.1054 0.292893 34.2929C0.105357 34.4804 0 34.7348 0 35V39C0.00155617 40.3256 0.52884 41.5965 1.46618 42.5338C2.40353 43.4712 3.6744 43.9984 5 44H33C34.3256 43.9984 35.5965 43.4712 36.5338 42.5338C37.4712 41.5965 37.9984 40.3256 38 39V5C37.9984 3.6744 37.4712 2.40353 36.5338 1.46618C35.5965 0.52884 34.3256 0.00155617 33 0ZM36 39C36 39.7956 35.6839 40.5587 35.1213 41.1213C34.5587 41.6839 33.7956 42 33 42C32.2044 42 31.4413 41.6839 30.8787 41.1213C30.3161 40.5587 30 39.7956 30 39V35C30 34.7348 29.8946 34.4804 29.7071 34.2929C29.5196 34.1054 29.2652 34 29 34H8V5C8.00087 4.20462 8.31722 3.44206 8.87964 2.87964C9.44206 2.31722 10.2046 2.00087 11 2H33C33.7954 2.00087 34.5579 2.31722 35.1204 2.87964C35.6828 3.44206 35.9991 4.20462 36 5V39Z" fill="black"/>
</svg>
