<svg width="56" height="56" viewBox="0 0 56 56" fill="none" xmlns="http://www.w3.org/2000/svg">
<path d="M45.0447 34.8252C43.8047 33.5752 41.6247 33.5752 40.3747 34.8252L37.2547 37.9451C36.2347 38.9651 34.7347 39.2952 33.4347 38.7952C31.0847 37.8852 28.6547 36.2752 26.8047 34.8952C24.9647 33.5152 23.7047 32.3652 23.7047 32.3652C23.6547 32.3152 19.0348 27.2752 17.2147 22.5753C16.7147 21.2752 17.0447 19.7752 18.0647 18.7552L21.1847 15.6352C21.8147 15.0052 22.1548 14.1851 22.1548 13.2952C22.1548 12.4151 21.8147 11.5851 21.1847 10.9651L11.1947 0.97516C10.0447 -0.18475 8.24473 -0.32489 6.92472 0.63519C4.67472 2.2752 0.794718 5.98517 0.104708 12.3952C-0.775292 20.6751 3.89475 30.6152 13.9947 41.9351L14.0747 42.0152C24.4947 51.3052 33.7447 56.0052 41.6047 56.0052C42.2848 56.0052 42.9548 55.9752 43.6147 55.9051C50.0247 55.2151 53.7347 51.3351 55.3747 49.0851C56.3347 47.7652 56.1947 45.9651 55.0348 44.8152L45.0447 34.8252Z" fill="black"/>
</svg>
