<svg width="28" height="24" viewBox="0 0 28 24" fill="none" xmlns="http://www.w3.org/2000/svg">
<path d="M20 4V1C20 0.447715 19.5523 0 19 0H9C8.44772 0 8 0.447715 8 1V4H1C0.447715 4 0 4.44772 0 5V23C0 23.5523 0.447715 24 1 24H27C27.5523 24 28 23.5523 28 23V5C28 4.44772 27.5523 4 27 4H20ZM10 2.5C10 2.22386 10.2239 2 10.5 2H17.5C17.7761 2 18 2.22386 18 2.5V4H10V2.5ZM2 6.5C2 6.22386 2.22386 6 2.5 6H25.5C25.7761 6 26 6.22386 26 6.5V11.26C22.9885 12.138 19.8901 12.6846 16.76 12.89H16C14.67 12.95 13.33 12.95 12 12.89H11.24C8.10985 12.6846 5.01149 12.138 2 11.26V6.5ZM12 14.94C12.67 14.94 13.33 14.94 14 14.94C14.67 14.94 15.33 14.94 16 14.94V15.5C16 15.7761 15.7761 16 15.5 16H12.5C12.2239 16 12 15.7761 12 15.5V14.94ZM2.5 22C2.22386 22 2 21.7761 2 21.5V13.33C4.61765 14.0569 7.29493 14.5489 10 14.8V17.5C10 17.7761 10.2239 18 10.5 18H17.5C17.7761 18 18 17.7761 18 17.5V14.8C20.7051 14.5489 23.3824 14.0569 26 13.33V21.5C26 21.7761 25.7761 22 25.5 22H2.5Z" fill="black"/>
</svg>
