<svg width="100" height="99" viewBox="0 0 100 99" fill="none" xmlns="http://www.w3.org/2000/svg">
<path fill-rule="evenodd" clip-rule="evenodd" d="M34.5003 59.68C38.7503 62.32 46.1103 62.83 49.5003 62.83C52.8903 62.83 60.2503 62.33 64.5003 59.68V65C64.5003 67.74 57.7903 69.97 49.5003 69.97C41.2103 69.97 34.5003 67.74 34.5003 65V59.68ZM34.5003 54.66C34.5003 57.41 41.2103 59.63 49.5003 59.63C57.7903 59.63 64.5003 57.41 64.5003 54.66V49.34C60.2503 51.98 52.8903 52.48 49.5003 52.48C46.1103 52.48 38.7503 51.98 34.5003 49.34V54.66ZM34.5003 44.32C34.5003 47.07 41.2103 49.29 49.5003 49.29C57.7903 49.29 64.5003 47.06 64.5003 44.32V39.02C60.2503 41.66 52.8903 42.16 49.5003 42.16C46.1103 42.16 38.7503 41.66 34.5003 39.02V44.32ZM64.5003 34C64.5003 31.26 57.7903 29.03 49.5003 29.03C41.2103 29.03 34.5003 31.26 34.5003 34C34.5003 36.75 41.2103 38.97 49.5003 38.97C57.7903 38.97 64.5003 36.75 64.5003 34ZM98.2703 62.87L95.2703 61.6C94.6903 61.35 94.4003 60.7 94.6103 60.1C98.8403 48 94.0503 34.67 83.4003 27.96C82.9303 27.66 82.3403 27.72 81.9403 28.1C81.5403 28.48 81.4503 29.06 81.7203 29.55C87.1503 39.33 85.2103 45.53 81.7003 54.5C81.5703 54.81 81.3503 55.04 81.0503 55.16C80.7403 55.29 80.4303 55.29 80.1203 55.16L77.2203 53.93C76.7703 53.74 76.2703 53.83 75.9103 54.18C75.5603 54.53 75.4603 55.02 75.6403 55.48L81.7003 70.49C81.9503 71.1 82.6503 71.4 83.2603 71.15L98.2703 65.09C98.7203 64.9 99.0103 64.48 99.0203 63.99C99.0003 63.49 98.7203 63.07 98.2703 62.87ZM17.3103 28.52C17.0603 27.91 16.3603 27.61 15.7503 27.86L0.750259 33.92C0.300259 34.11 0.0102592 34.53 0.000259187 35.02C-0.00974081 35.51 0.270259 35.94 0.730259 36.13L3.73026 37.4C4.31026 37.65 4.60026 38.3 4.39026 38.9C0.160259 50.99 4.95026 64.32 15.6003 71.04C16.0703 71.34 16.6503 71.28 17.0603 70.9C17.4603 70.52 17.5503 69.94 17.2803 69.45C11.8603 59.67 13.8003 53.48 17.3103 44.5C17.4403 44.19 17.6503 43.96 17.9603 43.84C18.2703 43.71 18.5803 43.71 18.8903 43.84L21.7903 45.07C22.2403 45.26 22.7403 45.17 23.1003 44.82C23.4503 44.47 23.5503 43.98 23.3703 43.52L17.3103 28.52ZM69.4503 81.72C59.6703 87.14 53.4803 85.2 44.5003 81.69C44.1903 81.57 43.9603 81.35 43.8303 81.04C43.7003 80.73 43.7003 80.42 43.8303 80.11L45.0703 77.2C45.2603 76.75 45.1703 76.25 44.8203 75.9C44.4703 75.55 43.9803 75.45 43.5203 75.63L28.5103 81.69C27.9003 81.94 27.6103 82.64 27.8503 83.25L33.9103 98.25C34.1003 98.71 34.5103 99 35.0103 99C35.5003 99 35.9303 98.73 36.1203 98.27L37.3903 95.27C37.6403 94.69 38.2903 94.4 38.8903 94.61C50.9903 98.84 64.3203 94.05 71.0403 83.4C71.3303 82.93 71.2803 82.34 70.9003 81.94C70.5203 81.54 69.9403 81.44 69.4503 81.72ZM65.0803 0.75C64.8903 0.29 64.4803 0 63.9803 0C63.4803 0 63.0603 0.27 62.8703 0.73L61.6003 3.73C61.3503 4.31 60.7003 4.6 60.1003 4.39C48.0003 0.16 34.6703 4.95 27.9503 15.6C27.6503 16.07 27.7103 16.66 28.0903 17.06C28.4703 17.47 29.0503 17.55 29.5403 17.28C39.3203 11.86 45.5103 13.79 54.4903 17.31C54.8003 17.43 55.0303 17.65 55.1603 17.96C55.2903 18.27 55.2903 18.58 55.1603 18.89L53.9203 21.8C53.7303 22.25 53.8203 22.75 54.1703 23.1C54.5203 23.45 55.0103 23.55 55.4703 23.37L70.4703 17.31C71.0803 17.06 71.3803 16.37 71.1303 15.75L65.0803 0.75Z" fill="black"/>
</svg>
