<svg width="87" height="82" viewBox="0 0 87 82" fill="none" xmlns="http://www.w3.org/2000/svg">
<path d="M1.84401 0.00152143C1.34108 0.0409142 0.871612 0.268882 0.529657 0.639766C0.187702 1.01065 -0.00148125 1.49706 8.73467e-06 2.00152V9.37652C6.17419e-05 9.90694 0.210792 10.4156 0.585854 10.7907C0.960915 11.1658 1.46959 11.3765 2.00001 11.3765H3.93801V59.0641C3.93806 59.5945 4.14879 60.1031 4.52385 60.4782C4.89891 60.8533 5.40759 61.064 5.93801 61.0641H25.938L15.938 78.2828C15.8035 78.5107 15.7153 78.7628 15.6785 79.0248C15.6417 79.2867 15.6569 79.5535 15.7234 79.8096C15.7898 80.0656 15.9062 80.306 16.0658 80.517C16.2253 80.728 16.425 80.9055 16.6533 81.0392C16.8816 81.1729 17.134 81.2601 17.3961 81.296C17.6582 81.3319 17.9249 81.3156 18.1807 81.2483C18.4365 81.1809 18.6765 81.0638 18.887 80.9034C19.0974 80.7431 19.2741 80.5428 19.407 80.3141L30.563 61.0641H41.126V79.3141C41.1223 79.5791 41.1712 79.8422 41.2701 80.0881C41.3689 80.3341 41.5156 80.558 41.7017 80.7467C41.8878 80.9354 42.1095 81.0853 42.354 81.1876C42.5986 81.2899 42.861 81.3425 43.126 81.3425C43.3911 81.3425 43.6535 81.2899 43.898 81.1876C44.1425 81.0853 44.3642 80.9354 44.5503 80.7467C44.7364 80.558 44.8831 80.3341 44.982 80.0881C45.0808 79.8422 45.1298 79.5791 45.126 79.3141V61.0641H55.719L66.876 80.3141C67.0089 80.5428 67.1856 80.743 67.396 80.9033C67.6064 81.0636 67.8464 81.1807 68.1022 81.248C68.358 81.3154 68.6245 81.3315 68.8866 81.2955C69.1486 81.2596 69.401 81.1724 69.6292 81.0387C69.8575 80.905 70.0571 80.7276 70.2166 80.5166C70.3761 80.3056 70.4924 80.0652 70.5588 79.8092C70.6252 79.5532 70.6404 79.2866 70.6036 79.0247C70.5667 78.7627 70.4785 78.5106 70.344 78.2828L60.344 61.0641H80.376C80.9064 61.064 81.4151 60.8533 81.7902 60.4782C82.1652 60.1031 82.376 59.5945 82.376 59.0641V11.3765H84.25C84.7804 11.3765 85.2891 11.1658 85.6642 10.7907C86.0392 10.4156 86.25 9.90694 86.25 9.37652V2.00152C86.25 1.4711 86.0392 0.962459 85.6642 0.587398C85.2891 0.212337 84.7804 0.00157443 84.25 0.00152143H2.00001C1.94803 -0.000507142 1.89599 -0.000507142 1.84401 0.00152143ZM4.00001 4.00152H82.25V7.37652H80.719C80.5224 7.34706 80.3226 7.34706 80.126 7.37652H6.34401C6.12854 7.33012 5.90689 7.31964 5.68801 7.34552C5.62488 7.35286 5.56215 7.36321 5.50001 7.37652H4.00001V4.00152ZM7.93801 11.3765H78.376V57.0641H57.157C57.0228 57.0399 56.8864 57.0295 56.75 57.0331C56.6872 57.0404 56.6248 57.0508 56.563 57.0641H43.532C43.3266 57.021 43.1157 57.0106 42.907 57.0331C42.8439 57.0404 42.7811 57.0508 42.719 57.0641H29.907C29.6912 57.0176 29.4692 57.0071 29.25 57.0331C29.1872 57.0404 29.1248 57.0508 29.063 57.0641H7.93801V11.3765ZM22.376 22.0953C21.8842 22.1493 21.4299 22.3836 21.1008 22.753C20.7717 23.1224 20.5911 23.6006 20.594 24.0953V36.9703C20.5903 37.2354 20.6392 37.4985 20.7381 37.7444C20.8369 37.9904 20.9836 38.2142 21.1697 38.403C21.3558 38.5917 21.5775 38.7416 21.822 38.8439C22.0666 38.9462 22.329 38.9988 22.594 38.9988C22.8591 38.9988 23.1215 38.9462 23.366 38.8439C23.6105 38.7416 23.8322 38.5917 24.0183 38.403C24.2044 38.2142 24.3511 37.9904 24.45 37.7444C24.5488 37.4985 24.5978 37.2354 24.594 36.9703V28.8453L41.75 45.7516C42.1175 46.1074 42.6073 46.3089 43.1188 46.3147C43.6303 46.3205 44.1246 46.13 44.5 45.7826L53 37.8137L62.407 45.8451C62.6022 46.0393 62.8354 46.1912 63.0919 46.2911C63.3485 46.3911 63.623 46.437 63.8981 46.426C64.1733 46.4149 64.4432 46.3472 64.6909 46.227C64.9387 46.1068 65.159 45.9368 65.338 45.7275C65.5169 45.5183 65.6508 45.2744 65.7311 45.011C65.8115 44.7476 65.8366 44.4704 65.8049 44.1969C65.7731 43.9234 65.6853 43.6593 65.5468 43.4213C65.4083 43.1833 65.2222 42.9765 65 42.8138L54.25 33.595C53.8764 33.2785 53.3997 33.11 52.9102 33.1214C52.4207 33.1328 51.9524 33.3234 51.594 33.657L43.157 41.5633L27.532 26.0945H36.282C36.547 26.0983 36.8102 26.0493 37.0561 25.9505C37.302 25.8517 37.5259 25.7049 37.7146 25.5189C37.9034 25.3328 38.0532 25.111 38.1555 24.8665C38.2578 24.622 38.3105 24.3596 38.3105 24.0945C38.3105 23.8295 38.2578 23.5671 38.1555 23.3226C38.0532 23.0781 37.9034 22.8563 37.7146 22.6702C37.5259 22.4841 37.302 22.3374 37.0561 22.2386C36.8102 22.1398 36.547 22.0908 36.282 22.0945H22.594C22.5214 22.0906 22.4486 22.0914 22.376 22.0953Z" fill="black"/>
</svg>
