<svg width="16" height="18" viewBox="0 0 16 18" fill="none" xmlns="http://www.w3.org/2000/svg">
<path fill-rule="evenodd" clip-rule="evenodd" d="M10.96 14.205C7.66801 15.903 3.54201 14.949 1.35901 11.832C-1.02099 8.43202 -0.193987 3.74001 3.20601 1.35901C6.60501 -1.02099 11.298 -0.193987 13.678 3.20601C15.867 6.33201 15.343 10.552 12.601 13.062L14.971 16.424C15.289 16.875 15.181 17.499 14.73 17.817C14.279 18.135 13.654 18.027 13.336 17.576L10.96 14.205ZM10.684 12.04C13.18 10.293 13.787 6.84802 12.04 4.35302C10.292 1.85802 6.84802 1.25002 4.35302 2.99802C1.85702 4.74502 1.25001 8.18902 2.99701 10.685C4.74001 13.174 8.17202 13.784 10.666 12.053C10.672 12.049 10.678 12.044 10.684 12.04Z" fill="black"/>
</svg>
