<svg width="88" height="88" viewBox="0 0 88 88" fill="none" xmlns="http://www.w3.org/2000/svg">
<path fill-rule="evenodd" clip-rule="evenodd" d="M49.7677 21.3495L48.7137 12.5605H38.5687L37.5147 21.3505C35.6427 21.8645 33.8637 22.6075 32.2127 23.5495L25.2497 18.0775L18.0757 25.2515L23.5467 32.2135C22.6057 33.8635 21.8617 35.6425 21.3477 37.5175L12.5587 38.5715V48.7175L21.3487 49.7715C21.8627 51.6435 22.6057 53.4215 23.5477 55.0735L18.0757 62.0365L25.2497 69.2105L32.2107 63.7395C33.8607 64.6805 35.6397 65.4245 37.5147 65.9385L38.5687 74.7275H48.7147L49.7687 65.9375C51.6407 65.4235 53.4197 64.6805 55.0717 63.7385L62.0347 69.2105L69.2087 62.0365L63.7377 55.0755C64.6787 53.4255 65.4227 51.6465 65.9367 49.7715L74.7257 48.7175V38.5695L65.9357 37.5155C65.4217 35.6435 64.6787 33.8645 63.7367 32.2125L69.2087 25.2495L62.0347 18.0755L55.0737 23.5465C53.4217 22.6075 51.6427 21.8635 49.7677 21.3495ZM55.8817 82.8015C56.5747 82.5855 57.3117 82.9725 57.5277 83.6655C57.7437 84.3585 57.3567 85.0955 56.6637 85.3115C54.4737 85.9955 52.2097 86.5115 49.8867 86.8445C47.6337 87.1675 45.3157 87.3165 42.9457 87.2785V87.2835C42.8967 87.2835 42.8477 87.2805 42.8007 87.2755C30.7987 87.0445 20.0187 81.9895 12.2807 73.9925C4.51672 65.9705 -0.187281 54.9875 0.00571901 42.9455H0.000719369C0.000719369 42.8975 0.00371927 42.8505 0.00871927 42.8045C0.123719 36.7935 1.44972 31.0885 3.74972 25.9185C5.46372 22.0635 7.71972 18.5075 10.4167 15.3435C9.75572 15.5015 9.07472 15.1245 8.86372 14.4675C8.64172 13.7775 9.02172 13.0375 9.71272 12.8165L14.4967 11.2805C14.7627 11.1795 15.0627 11.1625 15.3557 11.2535C16.0487 11.4695 16.4357 12.2065 16.2197 12.8995L14.6907 17.7595C14.4747 18.4525 13.7377 18.8395 13.0447 18.6235C12.4917 18.4515 12.1337 17.9465 12.1207 17.3975C9.71372 20.2845 7.69472 23.5075 6.14672 26.9885C3.98572 31.8475 2.73972 37.2085 2.63272 42.8575C2.63472 42.8865 2.63572 42.9165 2.63572 42.9465H2.63072V42.9665C2.44472 54.2915 6.86572 64.6195 14.1637 72.1625C21.4417 79.6845 31.5797 84.4385 42.8607 84.6525C42.8887 84.6505 42.9167 84.6495 42.9457 84.6495V84.6545L42.9657 84.6555C45.1807 84.6915 47.3697 84.5495 49.5157 84.2415C51.6957 83.9295 53.8227 83.4445 55.8817 82.8015ZM28.1757 5.64354C27.5027 5.91654 26.7357 5.59154 26.4627 4.91854C26.1897 4.24554 26.5147 3.47854 27.1877 3.20554C29.8597 2.11654 32.6737 1.28454 35.5987 0.738535C38.4237 0.211535 41.3467 -0.0414649 44.3377 0.00553506V0.00153535C44.3867 0.00153535 44.4367 0.00453524 44.4837 0.00953524C56.4847 0.240535 67.2647 5.29554 75.0017 13.2915C82.7647 21.3145 87.4687 32.2965 87.2757 44.3375H87.2807C87.2807 44.3855 87.2777 44.4335 87.2727 44.4805C87.1447 51.1605 85.5257 57.4595 82.7377 63.0625C80.6057 67.3475 77.7887 71.2305 74.4297 74.5715C75.0777 74.4995 75.6927 74.9205 75.8477 75.5715C76.0157 76.2765 75.5797 76.9835 74.8757 77.1505L69.9467 78.3345C69.6867 78.4025 69.4027 78.3905 69.1337 78.2845C68.4607 78.0175 68.1307 77.2555 68.3977 76.5815L70.2867 71.8495C70.5537 71.1765 71.3157 70.8465 71.9897 71.1135C72.5517 71.3365 72.8737 71.9035 72.8097 72.4765C75.8577 69.3925 78.4237 65.8225 80.3797 61.8895C83.0037 56.6145 84.5277 50.6955 84.6477 44.4275C84.6457 44.3985 84.6447 44.3685 84.6447 44.3395L84.6497 44.3385V44.3175C84.8357 32.9935 80.4147 22.6665 73.1167 15.1235C65.8427 7.60054 55.7057 2.84653 44.4247 2.63253C44.3967 2.63453 44.3687 2.63554 44.3397 2.63554H44.3387V2.63054H44.3177C41.5017 2.58454 38.7437 2.82354 36.0717 3.32154C33.3477 3.82954 30.7047 4.61354 28.1757 5.64354ZM47.1077 34.5585C46.7097 35.1665 45.8947 35.3365 45.2867 34.9395C45.1017 34.8185 44.9577 34.6595 44.8577 34.4795L34.9877 40.1955C34.3597 40.5595 33.5557 40.3445 33.1927 39.7175C32.8287 39.0895 33.0437 38.2855 33.6707 37.9225L43.5427 32.2055C43.4377 32.0295 43.3727 31.8275 43.3597 31.6095C43.3167 30.8845 43.8697 30.2635 44.5947 30.2205L47.4987 30.0435C47.7907 30.0115 48.0957 30.0775 48.3607 30.2505C48.9687 30.6485 49.1387 31.4635 48.7417 32.0715L47.1077 34.5585ZM50.1947 34.8925H54.0647V51.9075H50.1947V34.8925ZM41.7067 40.3525H45.5767V51.9065H41.7067V40.3525ZM33.2197 44.7605H37.0897V51.9065H33.2197V44.7605ZM43.9297 26.1515C53.5897 26.3105 61.2917 34.2705 61.1327 43.9305C60.9737 53.5905 53.0137 61.2935 43.3537 61.1345C33.6937 60.9755 25.9907 53.0155 26.1497 43.3545C26.3097 33.6945 34.2697 25.9915 43.9297 26.1515Z" fill="black"/>
</svg>
