<svg width="84" height="92" viewBox="0 0 84 92" fill="none" xmlns="http://www.w3.org/2000/svg">
<path fill-rule="evenodd" clip-rule="evenodd" d="M51.07 21.2927C50.6052 19.7732 50.3591 18.1599 50.3591 16.488C50.3591 7.3903 57.7458 0 66.8471 0C75.9448 0 83.3351 7.3906 83.3351 16.488C83.3351 25.5896 75.9445 32.976 66.8471 32.976C62.4213 32.976 58.4057 31.2299 55.4411 28.394L32.4451 41.667C32.7927 42.999 32.9763 44.3975 32.9763 45.835C32.9763 47.2725 32.7927 48.667 32.4451 49.9991L55.4411 63.2761C58.4059 60.4363 62.4216 58.6902 66.8471 58.6902C75.9448 58.6902 83.3351 66.0808 83.3351 75.1782C83.3351 84.2798 75.9445 91.6662 66.8471 91.6662C57.7455 91.6662 50.3591 84.2795 50.3591 75.1782C50.3591 73.5102 50.6051 71.897 51.07 70.3735L28.363 57.2685C25.363 60.3857 21.1521 62.3232 16.488 62.3232C7.3864 62.3232 0 54.9326 0 45.8352C0 36.7336 7.3867 29.3472 16.488 29.3472C21.1521 29.3472 25.363 31.2847 28.363 34.4019L51.07 21.2927ZM66.847 83.3357C62.347 83.3357 58.6908 79.6795 58.6908 75.1795C58.6908 70.6795 62.347 67.0272 66.847 67.0272C71.347 67.0272 74.9993 70.6795 74.9993 75.1795C74.9993 79.6795 71.347 83.3357 66.847 83.3357ZM16.488 53.9877C11.988 53.9877 8.3357 50.3354 8.3357 45.8354C8.3357 41.3354 11.988 37.6792 16.488 37.6792C20.988 37.6792 24.6442 41.3354 24.6442 45.8354C24.6442 50.3354 20.988 53.9877 16.488 53.9877ZM66.847 8.3357C71.347 8.3357 74.9993 11.988 74.9993 16.488C74.9993 20.988 71.347 24.6442 66.847 24.6442C62.347 24.6442 58.6908 20.988 58.6908 16.488C58.6908 11.988 62.347 8.3357 66.847 8.3357Z" fill="black"/>
</svg>
