<svg width="28" height="24" viewBox="0 0 28 24" fill="none" xmlns="http://www.w3.org/2000/svg">
<path d="M25 0H12C11.2046 0.000873479 10.4421 0.317225 9.87964 0.879644C9.31722 1.44206 9.00087 2.20462 9 3V9H3C2.20462 9.00087 1.44206 9.31722 0.879644 9.87964C0.317225 10.4421 0.000873479 11.2046 0 12V19C0.00156145 20.3256 0.528847 21.5965 1.46619 22.5338C2.40353 23.4712 3.6744 23.9984 5 24H25C25.7954 23.9991 26.5579 23.6828 27.1204 23.1204C27.6828 22.5579 27.9991 21.7954 28 21V3C27.9991 2.20462 27.6828 1.44206 27.1204 0.879644C26.5579 0.317225 25.7954 0.000873479 25 0ZM5 22C4.20462 21.9991 3.44206 21.6828 2.87964 21.1204C2.31722 20.5579 2.00087 19.7954 2 19V12C2.00024 11.7349 2.10567 11.4806 2.29316 11.2932C2.48064 11.1057 2.73486 11.0002 3 11H9V19C8.99913 19.7954 8.68278 20.5579 8.12036 21.1204C7.55794 21.6828 6.79538 21.9991 6 22H5ZM26 21C25.9998 21.2651 25.8943 21.5194 25.7068 21.7068C25.5194 21.8943 25.2651 21.9998 25 22H9.9744C10.6358 21.1394 10.9962 20.0854 11 19V3C11.0002 2.73486 11.1057 2.48064 11.2932 2.29316C11.4806 2.10567 11.7349 2.00024 12 2H25C25.2651 2.00024 25.5194 2.10567 25.7068 2.29316C25.8943 2.48064 25.9998 2.73486 26 3V21Z" fill="black"/>
<path d="M15.2934 10.7069C15.3862 10.7998 15.4964 10.8735 15.6178 10.9238C15.7391 10.974 15.8691 10.9999 16.0004 10.9999C16.1317 10.9999 16.2618 10.974 16.3831 10.9238C16.5044 10.8735 16.6146 10.7998 16.7074 10.7069L21.2074 6.20692C21.3896 6.01832 21.4904 5.76571 21.4881 5.50352C21.4858 5.24132 21.3806 4.99051 21.1952 4.8051C21.0098 4.61969 20.759 4.51452 20.4968 4.51224C20.2346 4.50997 19.982 4.61076 19.7934 4.79292L16.0004 8.58582L14.7074 7.29292C14.5188 7.11076 14.2662 7.00997 14.004 7.01224C13.7418 7.01452 13.491 7.11969 13.3056 7.3051C13.1202 7.49051 13.015 7.74132 13.0127 8.00352C13.0105 8.26571 13.1112 8.51832 13.2934 8.70692L15.2934 10.7069Z" fill="black"/>
<path d="M14 16H18C18.2652 16 18.5196 15.8946 18.7071 15.7071C18.8946 15.5196 19 15.2652 19 15C19 14.7348 18.8946 14.4804 18.7071 14.2929C18.5196 14.1054 18.2652 14 18 14H14C13.7348 14 13.4804 14.1054 13.2929 14.2929C13.1054 14.4804 13 14.7348 13 15C13 15.2652 13.1054 15.5196 13.2929 15.7071C13.4804 15.8946 13.7348 16 14 16Z" fill="black"/>
<path d="M22 18H14C13.7348 18 13.4804 18.1054 13.2929 18.2929C13.1054 18.4804 13 18.7348 13 19C13 19.2652 13.1054 19.5196 13.2929 19.7071C13.4804 19.8946 13.7348 20 14 20H22C22.2652 20 22.5196 19.8946 22.7071 19.7071C22.8946 19.5196 23 19.2652 23 19C23 18.7348 22.8946 18.4804 22.7071 18.2929C22.5196 18.1054 22.2652 18 22 18Z" fill="black"/>
</svg>
