<svg width="95" height="86" viewBox="0 0 95 86" fill="none" xmlns="http://www.w3.org/2000/svg">
<path d="M42.315 15.915H90.515C92.915 15.915 94.915 13.915 94.915 11.515C94.915 9.11499 92.915 7.11499 90.515 7.11499H42.315C39.915 7.11499 37.915 9.11499 37.915 11.515C37.915 13.915 39.915 15.915 42.315 15.915Z" fill="black"/>
<path d="M21.3149 1.41491L11.4149 12.1149L7.71491 8.11491C6.01491 6.31491 3.21491 6.21491 1.41491 7.91491C-0.38509 9.51491 -0.48509 12.3149 1.21491 14.1149L8.11491 21.6149C8.91491 22.5149 10.1149 23.0149 11.3149 23.0149C12.5149 23.0149 13.7149 22.5149 14.5149 21.6149L27.7149 7.41491C29.4149 5.61491 29.3149 2.81491 27.5149 1.21491C25.8149 -0.48509 23.0149 -0.38509 21.3149 1.41491Z" fill="black"/>
<path d="M90.615 38.115H42.315C39.915 38.115 37.915 40.115 37.915 42.515C37.915 44.915 39.915 46.915 42.315 46.915H90.515C92.915 46.915 94.915 44.915 94.915 42.515C94.915 40.115 93.015 38.115 90.615 38.115Z" fill="black"/>
<path d="M21.3149 32.4149L11.4149 43.1149L7.71491 39.1149C6.01491 37.3149 3.21491 37.2149 1.41491 38.9149C-0.38509 40.5149 -0.48509 43.3149 1.21491 45.1149L8.11491 52.6149C8.91491 53.5149 10.1149 54.0149 11.3149 54.0149C12.5149 54.0149 13.7149 53.5149 14.5149 52.6149L27.7149 38.4149C29.4149 36.6149 29.3149 33.8149 27.5149 32.2149C25.8149 30.5149 23.0149 30.6149 21.3149 32.4149Z" fill="black"/>
<path d="M90.615 69.115H42.315C39.915 69.115 37.915 71.115 37.915 73.515C37.915 75.915 39.915 77.915 42.315 77.915H90.515C92.915 77.915 94.915 75.915 94.915 73.515C94.915 71.115 93.015 69.115 90.615 69.115Z" fill="black"/>
<path d="M21.3149 63.415L11.4149 74.115L7.71491 70.115C6.01491 68.315 3.21491 68.215 1.41491 69.915C-0.38509 71.615 -0.48509 74.415 1.21491 76.115L8.11491 83.615C8.91491 84.515 10.1149 85.015 11.3149 85.015C12.5149 85.015 13.7149 84.515 14.5149 83.615L27.8149 69.515C29.5149 67.715 29.4149 64.915 27.6149 63.315C25.8149 61.615 23.0149 61.715 21.3149 63.415Z" fill="black"/>
</svg>
