<svg width="22" height="28" viewBox="0 0 22 28" fill="none" xmlns="http://www.w3.org/2000/svg">
<path d="M20 3.21997V4.99997C20.0024 5.26164 19.979 5.52291 19.93 5.77997C19.7457 6.95536 19.1478 8.02633 18.244 8.8C17.3401 9.57367 16.1897 9.99921 15 9.99997H7C5.81025 9.99921 4.65987 9.57367 3.75603 8.8C2.85219 8.02633 2.25429 6.95536 2.07 5.77997C2.02103 5.52291 1.99758 5.26164 2 4.99997V3.21997C1.41059 3.45344 0.904851 3.85849 0.548268 4.38267C0.191685 4.90685 0.000684945 5.52601 0 6.15997V24.84C0.00177544 25.6775 0.335273 26.4802 0.927504 27.0725C1.51973 27.6647 2.32246 27.9982 3.16 28H18.84C19.6775 27.9982 20.4803 27.6647 21.0725 27.0725C21.6647 26.4802 21.9982 25.6775 22 24.84V6.15997C21.9993 5.52601 21.8083 4.90685 21.4517 4.38267C21.0951 3.85849 20.5894 3.45344 20 3.21997ZM9.71 21.71L6.71 24.71C6.52043 24.8959 6.26551 25 6 25C5.73449 25 5.47957 24.8959 5.29 24.71L4.29 23.71C4.19614 23.6169 4.12158 23.5061 4.07061 23.3842C4.01965 23.2622 3.99327 23.1313 3.993 22.9991C3.99273 22.8669 4.01857 22.736 4.06904 22.6138C4.11951 22.4916 4.19361 22.3805 4.2871 22.2871C4.38058 22.1936 4.4916 22.1195 4.6138 22.069C4.73599 22.0185 4.86695 21.9927 4.99915 21.993C5.13136 21.9932 5.26221 22.0196 5.38419 22.0706C5.50618 22.1216 5.6169 22.1961 5.71 22.29L6 22.59L8.29 20.29C8.3831 20.1961 8.49382 20.1216 8.61581 20.0706C8.73779 20.0196 8.86864 19.9932 9.00085 19.993C9.13305 19.9927 9.26401 20.0185 9.3862 20.069C9.5084 20.1195 9.61942 20.1936 9.7129 20.2871C9.80639 20.3805 9.88049 20.4916 9.93096 20.6138C9.98143 20.736 10.0073 20.8669 10.007 20.9991C10.0067 21.1313 9.98035 21.2622 9.92939 21.3842C9.87842 21.5061 9.80386 21.6169 9.71 21.71ZM9.71 13.71L6.71 16.71C6.52043 16.8959 6.26551 17 6 17C5.73449 17 5.47957 16.8959 5.29 16.71L4.29 15.71C4.19614 15.6169 4.12158 15.5061 4.07061 15.3842C4.01965 15.2622 3.99327 15.1313 3.993 14.9991C3.99273 14.8669 4.01857 14.736 4.06904 14.6138C4.11951 14.4916 4.19361 14.3805 4.2871 14.2871C4.38058 14.1936 4.4916 14.1195 4.6138 14.069C4.73599 14.0185 4.86695 13.9927 4.99915 13.993C5.13136 13.9932 5.26221 14.0196 5.38419 14.0706C5.50618 14.1216 5.6169 14.1961 5.71 14.29L6 14.59L8.29 12.29C8.47857 12.1029 8.73356 11.9982 8.99915 11.9988C9.26474 11.9993 9.5193 12.1051 9.70711 12.2929C9.89491 12.4807 10.0007 12.7352 10.0012 13.0008C10.0017 13.2664 9.89703 13.5214 9.71 13.71ZM17 24H13C12.7348 24 12.4804 23.8946 12.2929 23.7071C12.1054 23.5195 12 23.2652 12 23C12 22.7348 12.1054 22.4804 12.2929 22.2929C12.4804 22.1053 12.7348 22 13 22H17C17.2652 22 17.5196 22.1053 17.7071 22.2929C17.8946 22.4804 18 22.7348 18 23C18 23.2652 17.8946 23.5195 17.7071 23.7071C17.5196 23.8946 17.2652 24 17 24ZM17 16H13C12.7348 16 12.4804 15.8946 12.2929 15.7071C12.1054 15.5195 12 15.2652 12 15C12 14.7348 12.1054 14.4804 12.2929 14.2929C12.4804 14.1053 12.7348 14 13 14H17C17.2652 14 17.5196 14.1053 17.7071 14.2929C17.8946 14.4804 18 14.7348 18 15C18 15.2652 17.8946 15.5195 17.7071 15.7071C17.5196 15.8946 17.2652 16 17 16Z" fill="black"/>
<path d="M15 0H7C5.34315 0 4 1.34315 4 3V5C4 6.65685 5.34315 8 7 8H15C16.6569 8 18 6.65685 18 5V3C18 1.34315 16.6569 0 15 0Z" fill="black"/>
</svg>
