<svg width="55" height="50" viewBox="0 0 55 50" fill="none" xmlns="http://www.w3.org/2000/svg">
<path d="M3.5 49.0524H47.05C47.9783 49.0524 48.8685 48.6837 49.5249 48.0273C50.1813 47.3709 50.55 46.4807 50.55 45.5524V37.7324H40.49C39.2965 37.7324 38.1519 37.2583 37.308 36.4144C36.4641 35.5705 35.99 34.4259 35.99 33.2324V25.5324C35.99 24.3389 36.4641 23.1943 37.308 22.3504C38.1519 21.5065 39.2965 21.0324 40.49 21.0324H50.55V13.2124C50.5474 12.285 50.1778 11.3962 49.522 10.7404C48.8662 10.0846 47.9774 9.71504 47.05 9.7124H3.5C2.57255 9.71504 1.68385 10.0846 1.02804 10.7404C0.372235 11.3962 0.00263855 12.285 0 13.2124V45.5524C0 46.4807 0.368749 47.3709 1.02513 48.0273C1.6815 48.6837 2.57174 49.0524 3.5 49.0524Z" fill="black"/>
<path d="M42.7304 3.50229C42.7308 2.97099 42.6102 2.44657 42.3777 1.96881C42.1453 1.49104 41.8071 1.07246 41.3889 0.744805C40.9706 0.417147 40.4833 0.18901 39.9638 0.077688C39.4443 -0.033634 38.9062 -0.025219 38.3904 0.102295L7.19043 8.7123H42.7304V3.50229Z" fill="black"/>
<path d="M42.5703 31.1323C43.5368 31.1323 44.3203 30.3488 44.3203 29.3823C44.3203 28.4158 43.5368 27.6323 42.5703 27.6323C41.6038 27.6323 40.8203 28.4158 40.8203 29.3823C40.8203 30.3488 41.6038 31.1323 42.5703 31.1323Z" fill="black"/>
<path d="M40.4902 22.0322C39.562 22.0322 38.6717 22.401 38.0154 23.0574C37.359 23.7137 36.9902 24.604 36.9902 25.5322V33.2322C36.9902 34.1605 37.359 35.0507 38.0154 35.7071C38.6717 36.3635 39.562 36.7322 40.4902 36.7322H51.5502C52.4692 36.7173 53.3456 36.3422 53.9908 35.6876C54.6361 35.033 54.9985 34.1513 55.0002 33.2322V25.5322C54.9985 24.6131 54.6361 23.7314 53.9908 23.0768C53.3456 22.4223 52.4692 22.0472 51.5502 22.0322H40.4902ZM42.5702 32.1322C42.0263 32.1322 41.4947 31.9709 41.0424 31.6688C40.5902 31.3666 40.2377 30.9371 40.0296 30.4346C39.8214 29.9321 39.767 29.3792 39.8731 28.8457C39.9792 28.3123 40.2411 27.8223 40.6257 27.4377C41.0103 27.0531 41.5003 26.7912 42.0337 26.6851C42.5672 26.579 43.1201 26.6334 43.6226 26.8416C44.1251 27.0497 44.5546 27.4022 44.8568 27.8544C45.1589 28.3066 45.3202 28.8383 45.3202 29.3822C45.3205 29.7434 45.2495 30.1012 45.1114 30.4349C44.9733 30.7687 44.7708 31.0719 44.5154 31.3274C44.2599 31.5828 43.9567 31.7853 43.6229 31.9234C43.2892 32.0615 42.9314 32.1325 42.5702 32.1322Z" fill="black"/>
</svg>
